{"glyphs":{"0":{"ha":713,"x_min":0,"x_max":0,"o":"m 350 994 b 108 861 269 994 143 939 b 35 464 28 740 35 607 b 104 117 35 347 40 215 b 349 -6 156 36 251 -6 b 685 539 625 -6 685 311 b 614 844 685 643 674 757 b 350 994 550 938 450 994 z m 119 854 l 121 856 b 354 981 160 932 279 981 b 603 838 449 981 542 928 b 671 519 665 746 671 625 b 490 44 671 353 649 146 b 356 6 449 18 403 6 b 103 144 256 6 153 60 b 51 438 51 232 54 340 b 49 556 50 476 49 517 b 119 854 49 660 60 761 z m 236 533 b 318 228 236 458 238 231 b 353 218 331 221 343 218 b 449 365 417 218 449 310 b 456 553 449 424 456 489 b 350 772 456 644 438 772 b 236 533 250 772 236 624 z m 325 240 l 321 242 l 318 242 b 253 490 257 258 253 431 b 264 649 253 543 258 597 b 353 758 269 700 279 758 b 442 525 444 758 442 571 b 436 379 442 476 436 428 b 354 232 436 363 424 232 b 325 240 344 232 335 235 z "},"1":{"ha":508,"x_min":0,"x_max":0,"o":"m 349 -10 b 443 25 403 -10 443 -3 b 439 117 440 56 439 86 b 456 842 439 358 456 600 b 450 986 456 889 454 939 b 333 999 436 1000 360 999 b 167 994 276 999 222 994 b 25 756 126 956 49 806 b -4 683 17 739 -4 707 b 161 622 -4 646 149 622 b 225 690 189 622 207 638 b 208 11 225 463 208 238 b 349 -10 224 -4 292 -10 z m 425 117 b 429 24 425 86 426 54 b 300 7 429 7 340 7 b 222 15 274 7 247 10 b 242 656 222 232 242 428 b 238 701 242 676 240 696 l 238 704 b 231 711 235 707 232 708 b 169 633 203 711 196 633 b 10 679 132 633 26 667 l 10 685 b 107 875 33 754 69 813 b 174 982 128 911 147 950 b 310 985 218 982 264 985 b 438 979 350 985 394 979 b 439 883 440 947 439 918 b 444 765 439 844 444 807 b 425 117 444 549 425 333 z "},"2":{"ha":692,"x_min":0,"x_max":0,"o":"m 43 -8 l 106 -8 b 638 -1 282 -6 460 -1 b 643 1 639 0 640 0 l 644 3 b 646 10 644 4 644 7 b 642 47 640 21 642 35 b 647 94 646 58 647 75 b 626 208 647 138 642 193 b 342 203 532 208 436 203 b 285 210 315 203 285 203 b 296 256 285 225 296 243 b 665 631 368 408 665 374 b 361 994 665 808 635 994 b 142 936 307 994 197 986 b 35 682 71 872 35 776 b 51 574 35 654 40 585 b 138 569 79 574 108 569 b 267 588 168 569 253 574 b 357 753 267 650 278 753 b 426 654 399 753 426 703 b 308 515 426 579 361 546 b 86 353 228 468 149 421 b 35 6 28 289 35 83 l 32 6 b 35 4 32 6 33 4 l 35 1 l 38 -6 l 39 -7 b 43 -8 40 -7 42 -8 z m 629 13 b 106 6 454 13 279 8 l 49 6 b 51 40 50 11 51 29 l 51 96 b 96 343 51 165 47 288 b 315 503 156 413 238 457 b 442 650 368 533 442 575 b 356 768 442 707 407 768 b 253 594 271 768 253 660 b 126 583 210 593 167 583 b 58 588 103 583 81 586 b 50 676 57 615 50 647 b 150 925 50 769 79 863 b 375 982 211 979 329 982 b 650 642 544 982 650 890 b 521 426 650 542 617 482 b 271 211 396 354 271 321 b 301 190 271 199 278 190 l 439 190 b 621 194 499 190 560 194 b 631 121 629 171 631 146 b 626 33 631 92 626 63 b 629 13 626 26 626 18 z "},"3":{"ha":683,"x_min":0,"x_max":0,"o":"m 639 694 b 640 761 639 713 640 738 b 344 993 640 925 490 993 b 31 746 179 993 31 900 b 29 714 31 738 29 726 b 39 669 29 696 31 676 b 174 667 82 669 128 667 b 229 676 196 667 221 668 b 349 756 247 715 300 756 b 418 685 381 756 418 731 b 226 601 418 583 290 621 l 222 593 l 224 571 b 217 472 224 542 217 508 b 238 394 217 447 218 404 b 299 401 257 399 278 401 b 417 313 382 401 417 356 b 342 232 417 272 388 232 b 238 303 311 232 257 260 b 224 324 232 313 232 314 b 39 311 161 324 100 311 l 32 303 b 38 213 38 285 38 242 b 93 54 38 156 51 96 b 339 -8 151 -6 269 -8 b 586 97 433 -8 528 14 b 640 406 633 164 640 296 b 639 532 640 454 639 499 z m 335 4 b 103 63 249 4 157 24 l 103 65 b 47 297 40 128 60 217 b 71 296 56 296 63 296 b 218 310 118 296 168 308 b 343 221 232 263 294 221 b 431 300 404 221 431 256 b 299 415 431 367 383 415 b 239 410 279 415 257 413 b 229 464 232 426 229 444 b 238 567 229 499 238 533 b 236 589 238 575 236 582 b 432 685 310 607 432 574 b 350 769 432 740 390 769 b 218 685 297 769 239 728 b 154 681 197 682 175 681 b 46 683 117 681 81 683 b 44 746 46 706 44 726 b 351 979 44 889 181 979 b 625 749 506 979 625 910 l 625 690 l 625 533 b 626 414 625 504 626 463 b 335 4 626 169 606 4 z "},"4":{"ha":651,"x_min":0,"x_max":0,"o":"m 563 467 b 543 465 556 467 549 467 l 540 465 b 538 513 538 481 538 497 b 547 849 538 625 544 736 b 551 978 549 892 547 935 b 544 985 549 981 546 982 b 322 982 469 985 396 982 l 315 974 l 315 975 l 321 985 b 69 572 231 851 146 714 b 10 419 29 517 10 469 b 28 265 10 365 15 290 l 28 267 l 31 261 b 64 257 38 257 51 257 b 107 258 82 257 100 258 b 322 256 178 258 251 256 b 318 190 317 238 319 210 b 307 3 314 128 307 65 l 306 3 b 307 1 306 3 306 1 l 307 -1 l 310 -8 l 311 -10 b 315 -11 313 -10 314 -11 b 414 -14 326 -11 369 -14 b 522 6 463 -14 522 -10 b 531 108 522 40 528 74 b 540 244 533 153 532 200 b 556 246 546 246 550 246 b 596 243 569 246 582 243 b 626 254 606 243 621 243 l 635 456 b 563 467 624 467 582 467 z m 536 450 b 544 451 539 450 542 451 b 621 449 571 451 594 449 l 613 260 b 581 256 601 256 593 256 b 554 260 572 258 564 260 b 528 251 543 260 536 260 b 517 110 518 206 519 156 b 508 8 514 76 508 42 b 426 -1 488 1 458 -1 b 321 3 389 -1 350 1 b 338 263 321 89 338 175 b 257 274 328 272 289 274 b 99 268 210 274 156 268 b 39 274 78 268 57 269 b 25 419 28 294 25 368 b 26 468 25 442 25 460 b 125 644 64 524 92 586 b 326 968 189 754 256 863 b 536 971 397 968 467 971 b 533 850 533 931 535 889 b 524 496 531 731 524 628 b 536 450 524 476 525 456 z m 375 454 l 379 751 l 379 753 b 378 757 379 754 378 756 l 376 758 b 371 761 374 760 372 760 b 338 722 357 761 342 731 b 215 519 296 681 249 575 b 178 457 204 503 182 478 b 301 442 197 438 263 442 b 375 454 333 442 369 443 z m 365 740 l 361 460 b 290 456 343 457 318 456 b 194 461 257 456 222 457 b 294 629 226 517 260 574 b 365 740 303 643 340 714 z "},"5":{"ha":699,"x_min":0,"x_max":0,"o":"m 264 307 l 257 314 b 58 307 190 311 124 307 b 46 194 47 307 46 229 b 335 -21 46 49 197 -21 b 629 111 464 -21 560 26 b 668 278 664 153 668 221 b 358 717 668 476 617 717 b 274 708 329 717 301 714 b 267 753 268 721 267 739 b 504 757 344 753 425 757 b 582 756 528 757 556 756 b 646 769 606 756 640 757 l 646 797 b 653 926 650 808 653 878 b 650 974 653 951 651 969 l 650 975 b 643 982 647 978 644 979 b 50 974 444 982 247 974 l 43 965 b 46 488 43 806 46 647 b 97 476 54 479 75 476 b 289 488 142 476 214 488 b 433 356 389 488 433 436 b 333 224 433 283 396 224 b 264 304 264 224 274 285 z m 250 300 b 251 297 250 299 251 297 b 329 211 258 250 282 211 b 446 346 404 211 446 279 b 300 499 446 431 406 499 b 60 493 218 499 140 493 b 57 960 60 649 57 803 b 638 968 250 960 444 968 b 632 775 638 901 632 839 b 569 769 613 771 592 769 b 501 771 547 769 524 771 b 258 767 419 771 339 767 l 251 758 l 251 754 b 271 694 251 742 254 694 b 357 703 299 694 328 703 b 654 311 600 703 654 485 b 585 82 654 224 651 143 b 328 -6 526 28 425 -6 b 60 196 201 -6 60 56 b 67 293 60 228 65 260 b 250 300 128 296 189 297 z "},"6":{"ha":699,"x_min":0,"x_max":0,"o":"m 676 254 b 675 282 676 263 675 272 b 639 418 671 328 667 378 b 458 506 596 481 528 506 b 290 464 400 506 340 489 b 285 613 290 496 285 522 b 368 772 285 688 297 772 b 446 665 425 772 446 713 l 453 657 b 640 667 514 657 579 657 b 653 735 654 681 653 715 b 397 990 653 872 560 990 b 249 965 347 990 296 981 b 60 804 181 943 74 881 b 42 611 42 767 44 656 b 38 482 39 568 38 528 b 331 -12 38 281 56 -12 b 676 254 514 -12 676 71 z m 628 411 b 661 281 650 368 657 328 b 663 253 661 271 663 263 b 332 1 663 78 506 1 b 50 479 76 1 50 285 b 63 747 50 569 57 658 b 386 978 76 897 243 978 b 642 742 531 978 642 878 b 633 679 642 722 639 700 b 460 671 576 669 517 671 b 371 788 457 739 417 788 b 268 619 325 788 268 742 b 276 453 268 558 276 493 b 288 446 281 450 283 447 b 449 490 335 475 392 490 b 628 411 510 490 600 463 z m 418 201 b 510 283 463 201 510 231 b 443 353 510 332 486 353 b 333 276 393 353 333 321 b 418 201 333 224 381 201 z m 496 293 l 496 282 b 417 215 496 238 456 215 b 350 271 372 215 350 243 b 443 343 350 300 396 343 b 496 293 474 343 481 322 z "},"7":{"ha":661,"x_min":0,"x_max":0,"o":"m 24 793 l 31 785 b 378 772 146 785 261 772 b 17 13 263 515 133 267 b 89 -7 17 -7 69 -7 b 233 3 138 -7 188 3 b 240 7 235 4 238 6 b 650 782 371 268 538 513 l 649 979 b 643 986 647 982 644 983 b 419 996 568 993 494 996 b 38 989 293 996 164 989 l 31 981 b 31 982 31 982 31 982 l 29 956 l 29 889 b 24 793 29 857 28 825 z m 39 799 b 44 975 46 857 40 915 b 415 981 168 975 290 981 b 635 972 488 981 561 979 b 636 786 635 910 636 849 b 229 17 521 519 358 276 b 90 6 186 17 136 6 b 32 14 69 6 50 8 b 394 776 151 269 282 519 b 388 786 392 781 389 783 l 388 794 l 383 786 b 39 799 268 786 153 797 z "},"8":{"ha":681,"x_min":0,"x_max":0,"o":"m 546 479 b 651 690 607 533 651 606 b 650 713 651 699 650 708 b 364 992 650 926 522 992 b 182 965 299 992 240 990 b 38 689 85 922 38 794 b 111 489 38 622 60 540 b 25 271 54 432 25 350 b 338 -26 25 114 131 -26 b 643 257 533 -26 643 90 b 546 479 643 350 617 425 z m 339 -12 b 39 269 178 -12 39 76 b 126 485 39 351 69 428 l 126 493 b 53 696 76 542 53 618 b 344 981 53 861 140 981 b 617 832 482 981 582 940 b 636 732 617 799 635 735 l 636 679 b 619 607 632 671 621 610 b 532 486 604 558 571 518 l 529 479 b 631 257 593 415 631 361 b 339 -12 631 100 526 -12 z m 338 600 b 411 669 376 600 411 631 b 340 747 411 708 381 747 b 267 706 325 747 267 729 l 265 704 l 264 703 b 263 682 264 694 263 689 b 338 600 263 632 296 600 z m 278 701 l 281 704 b 347 729 303 718 318 729 b 396 669 383 729 396 690 b 340 614 396 640 374 614 b 276 683 296 614 276 657 b 278 701 276 689 278 694 z m 267 707 l 267 706 z m 265 706 l 265 704 l 267 706 z m 336 390 b 250 308 293 390 250 365 b 340 231 250 254 296 231 b 422 289 382 231 422 251 l 425 293 l 425 297 b 426 307 426 300 426 304 b 336 390 426 360 386 390 z m 413 313 l 413 303 b 411 297 411 301 411 299 l 413 299 b 396 263 407 290 403 276 l 393 260 b 335 246 375 250 354 246 b 264 311 297 246 264 265 b 315 378 274 339 283 368 b 411 318 374 378 386 364 b 413 313 411 315 411 314 z "},"9":{"ha":713,"x_min":0,"x_max":0,"o":"m 668 449 b 660 765 667 554 668 660 b 593 940 656 822 642 903 b 364 990 525 992 444 990 b 61 844 249 990 118 951 b 32 678 33 793 32 733 b 314 389 32 515 164 389 b 414 408 346 389 381 394 b 351 253 414 351 415 274 l 324 253 b 267 314 294 264 274 283 b 200 322 257 324 217 322 b 42 315 147 322 94 315 b 35 294 35 308 35 301 b 74 114 35 226 35 174 b 372 -12 125 33 253 -12 b 669 342 635 -12 669 185 b 668 449 669 378 668 414 z m 376 0 b 46 256 201 0 46 88 b 49 301 46 271 46 286 b 196 308 99 301 147 308 b 254 304 215 308 235 307 b 343 236 263 267 304 236 b 428 417 426 236 428 363 b 426 421 428 418 426 419 l 425 422 b 417 425 422 424 419 424 b 414 424 415 425 415 424 b 317 404 383 411 350 404 b 46 707 154 404 46 522 b 125 903 46 786 67 851 b 426 976 206 975 325 976 b 646 764 569 976 635 907 b 654 447 654 660 653 553 b 656 342 654 414 656 378 b 376 0 656 189 626 0 z m 361 767 b 272 690 313 767 272 738 b 365 597 272 639 296 597 b 451 661 417 597 451 622 b 454 667 453 663 453 665 l 454 672 b 458 689 457 678 458 683 b 361 767 458 746 399 767 z m 442 672 b 431 643 439 668 431 649 b 363 608 419 621 390 608 b 285 701 310 608 285 647 b 360 757 285 738 333 757 b 442 678 401 757 442 728 b 440 671 440 676 440 674 z "},"A":{"ha":603,"x_min":0,"x_max":0,"o":"m 614 0 l 614 4 b 426 853 553 286 492 571 b 389 986 418 885 406 967 b 225 979 353 982 239 986 l 218 979 b 211 974 215 978 214 975 b 14 97 121 689 60 390 b -1 4 8 67 7 33 l 1 -3 l 3 -4 b 193 -8 69 -4 142 -8 l 206 -7 l 204 -7 b 210 -4 206 -6 208 -6 l 213 -3 b 272 226 256 63 242 156 b 289 225 275 226 282 225 b 303 228 294 225 300 226 b 350 225 318 228 335 225 b 414 3 385 157 385 74 b 531 -14 428 -12 514 -14 b 614 0 553 -14 607 -14 z m 532 0 b 489 3 517 0 503 1 b 424 13 468 6 446 11 b 361 235 397 85 394 165 b 314 243 351 239 329 243 b 297 240 307 243 301 243 l 268 240 b 263 236 265 239 264 238 b 201 7 232 167 240 68 b 144 4 188 4 167 4 b 14 8 99 4 44 7 b 28 93 21 35 24 65 b 224 965 71 381 135 682 b 383 972 276 965 331 967 b 413 849 389 931 404 889 b 599 6 474 567 538 286 b 532 0 576 1 553 0 z m 361 390 l 368 397 b 311 694 357 490 353 646 l 306 694 b 251 399 279 694 260 492 b 278 389 260 390 268 389 b 361 390 304 389 332 390 z m 292 401 b 265 403 283 401 274 401 b 308 678 275 493 279 590 b 324 618 319 664 321 631 b 353 404 336 547 344 476 b 292 401 332 403 313 401 z "},"Á":{"ha":603,"x_min":0,"x_max":0,"o":"m 517 1172 l 517 1181 b 411 1279 485 1213 449 1260 b 179 1053 326 1210 261 1122 l 179 1042 b 290 1029 188 1033 242 1029 b 376 1039 342 1029 369 1032 b 517 1172 393 1075 482 1138 z m 501 1176 b 364 1047 463 1139 382 1082 b 297 1042 343 1043 321 1042 b 197 1050 263 1042 228 1044 b 415 1264 272 1119 336 1200 b 501 1176 443 1235 472 1206 z m 614 0 l 614 4 l 510 490 b 415 903 479 628 443 764 b 389 986 411 925 401 972 b 225 979 353 982 239 986 l 218 979 b 211 974 215 978 214 975 b 11 76 119 679 68 378 b -1 4 7 53 -1 28 l 1 -3 l 3 -4 b 193 -8 69 -4 142 -8 l 206 -7 l 204 -7 b 210 -4 206 -6 208 -6 l 213 -3 b 272 226 256 63 242 156 b 289 225 275 226 282 225 b 350 225 310 225 329 229 b 414 3 385 157 385 74 b 531 -14 428 -12 514 -14 b 614 0 553 -14 607 -14 z m 532 0 b 489 3 517 0 503 1 b 424 13 468 6 446 11 b 361 235 397 85 394 165 b 314 243 351 239 329 243 l 268 240 b 263 236 265 239 264 238 b 201 7 232 167 240 68 b 143 4 186 4 165 4 b 13 8 97 4 42 7 b 25 72 13 29 21 51 b 224 965 82 375 132 672 b 383 972 276 965 331 967 b 401 899 386 947 396 924 b 599 6 463 600 535 303 b 532 0 576 1 553 0 z m 361 390 l 368 397 b 311 694 357 490 353 646 l 306 694 b 251 399 279 694 260 492 b 278 389 260 390 268 389 b 361 390 304 389 332 390 z m 292 401 b 265 403 283 401 274 401 b 308 678 275 493 279 590 b 324 618 319 664 321 631 b 353 404 336 547 344 476 b 292 401 332 403 313 401 z "},"Â":{"ha":603,"x_min":0,"x_max":0,"o":"m 533 1043 l 539 1054 l 313 1279 b 303 1281 308 1279 306 1279 b 78 1054 224 1207 143 1139 l 82 1042 b 182 1033 113 1036 153 1033 b 303 1103 263 1033 247 1063 l 314 1092 b 422 1031 332 1056 360 1031 b 533 1043 479 1031 497 1043 z m 517 1056 b 457 1047 496 1054 476 1049 b 374 1050 429 1047 401 1049 l 361 1058 b 307 1117 343 1076 328 1103 l 299 1117 b 190 1049 257 1089 264 1049 b 94 1054 153 1049 106 1053 b 307 1265 157 1133 233 1196 b 517 1056 376 1196 446 1125 z m 614 0 l 614 4 b 426 853 553 286 492 571 b 389 986 418 885 406 967 b 225 979 353 982 239 986 l 218 979 b 211 974 215 978 214 975 b 14 97 121 689 60 390 b -1 4 8 67 7 33 l 1 -3 l 3 -4 b 193 -8 69 -4 142 -8 l 206 -7 l 204 -7 b 210 -4 206 -6 208 -6 l 213 -3 b 272 226 256 63 242 156 b 289 225 275 226 282 225 b 350 225 310 225 329 229 b 414 3 385 157 385 74 b 531 -14 428 -12 514 -14 b 614 0 553 -14 607 -14 z m 532 0 b 489 3 517 0 503 1 b 424 13 468 6 446 11 b 361 235 397 85 394 165 b 314 243 351 239 329 243 l 268 240 b 263 236 265 239 264 238 b 201 7 232 167 240 68 b 144 4 188 4 167 4 b 14 8 99 4 44 7 b 28 93 21 35 24 65 b 224 965 71 381 135 682 b 383 972 276 965 331 967 b 413 849 389 931 404 889 b 599 6 474 567 538 286 b 532 0 576 1 553 0 z m 361 390 l 368 397 b 311 694 357 490 353 646 l 306 694 b 251 399 279 694 260 492 b 278 389 260 390 268 389 b 361 390 304 389 332 390 z m 292 401 b 265 403 283 401 274 401 b 308 678 275 493 279 590 b 324 618 319 664 321 631 b 353 404 336 547 344 476 b 292 401 332 403 313 401 z "},"Ä":{"ha":603,"x_min":0,"x_max":0,"o":"m 96 1047 l 100 1047 b 238 1046 146 1047 192 1046 b 253 1193 254 1081 244 1150 b 172 1214 244 1210 208 1214 b 92 1201 140 1214 108 1208 l 88 1193 b 81 1100 88 1167 81 1132 b 96 1047 81 1081 82 1054 z m 338 1047 l 342 1047 b 479 1046 388 1047 433 1046 b 494 1193 496 1081 486 1150 b 414 1214 486 1210 450 1214 b 333 1201 382 1214 350 1208 l 329 1193 b 322 1100 329 1167 322 1132 b 338 1047 322 1081 324 1054 z m 231 1060 b 100 1061 186 1060 143 1061 b 94 1097 96 1071 94 1083 b 101 1190 94 1128 101 1164 b 185 1200 124 1194 156 1200 b 238 1192 204 1200 222 1197 b 231 1060 231 1149 231 1101 z m 472 1060 b 342 1061 428 1060 385 1061 b 336 1097 338 1071 336 1083 b 343 1190 336 1128 343 1164 b 426 1200 365 1194 397 1200 b 479 1192 446 1200 464 1197 b 472 1060 472 1149 472 1101 z m 614 0 l 614 4 b 426 853 553 286 492 571 b 389 986 418 885 406 967 b 225 979 353 982 239 986 l 218 979 b 211 974 215 978 214 975 b 14 97 121 689 60 390 b -1 4 8 67 7 33 l 1 -3 l 3 -4 b 193 -8 69 -4 142 -8 l 206 -7 l 204 -7 b 210 -4 206 -6 208 -6 l 213 -3 b 272 226 256 63 242 156 b 289 225 275 226 282 225 b 303 228 294 225 300 226 b 350 225 318 228 335 225 b 414 3 385 157 385 74 b 531 -14 428 -12 514 -14 b 614 0 553 -14 607 -14 z m 532 0 b 489 3 517 0 503 1 b 424 13 468 6 446 11 b 361 235 397 85 394 165 b 314 243 351 239 329 243 b 297 240 307 243 301 243 l 268 240 b 263 236 265 239 264 238 b 201 7 232 167 240 68 b 144 4 188 4 167 4 b 14 8 99 4 44 7 b 28 93 21 35 24 65 b 224 965 71 381 135 682 b 383 972 276 965 331 967 b 413 849 389 931 404 889 b 599 6 474 567 538 286 b 532 0 576 1 553 0 z m 361 390 l 368 397 b 311 694 357 490 353 646 l 306 694 b 251 399 279 694 260 492 b 278 389 260 390 268 389 b 361 390 304 389 332 390 z m 292 401 b 265 403 283 401 274 401 b 308 678 275 493 279 590 b 324 618 319 664 321 631 b 353 404 336 547 344 476 b 292 401 332 403 313 401 z "},"À":{"ha":603,"x_min":0,"x_max":0,"o":"m 172 1288 l 167 1279 b 71 1182 135 1246 103 1214 l 65 1178 b 211 1039 49 1165 190 1078 b 294 1029 211 1031 253 1029 b 407 1042 339 1029 389 1032 l 407 1053 b 349 1111 385 1069 367 1092 b 172 1288 294 1169 236 1240 z m 171 1264 b 339 1101 232 1218 286 1158 b 388 1050 354 1083 369 1065 b 289 1042 365 1044 324 1042 b 221 1047 258 1042 231 1044 b 83 1176 206 1078 114 1149 z m 614 0 l 614 4 l 510 490 b 415 903 479 628 443 764 b 389 986 411 925 401 972 b 225 979 353 982 239 986 l 218 979 b 211 974 215 978 214 975 b 11 76 119 679 68 378 b -1 4 7 53 -1 28 l 1 -3 l 3 -4 b 193 -8 69 -4 142 -8 l 206 -7 l 204 -7 b 210 -4 206 -6 208 -6 l 213 -3 b 272 226 256 63 242 156 b 350 225 299 224 325 229 b 414 3 385 157 385 74 b 531 -14 428 -12 514 -14 b 614 0 553 -14 607 -14 z m 532 0 b 489 3 517 0 503 1 b 424 13 468 6 446 11 b 361 235 397 85 394 165 l 268 240 b 263 236 265 239 264 238 b 201 7 232 167 240 68 b 143 4 186 4 165 4 b 13 8 97 4 42 7 b 25 72 13 29 21 51 b 224 965 82 375 132 672 b 383 972 276 965 331 967 b 401 899 386 947 396 924 b 599 6 463 600 535 303 b 532 0 576 1 553 0 z m 361 390 l 368 397 b 311 694 357 490 353 646 l 306 694 b 251 399 279 694 260 492 b 278 389 260 390 268 389 b 361 390 304 389 332 390 z m 292 401 b 265 403 283 401 274 401 b 308 678 275 493 279 590 b 324 618 319 664 321 631 b 353 404 336 547 344 476 b 292 401 332 403 313 401 z "},"Å":{"ha":603,"x_min":0,"x_max":0,"o":"m 411 1075 l 413 1076 b 432 1190 424 1111 432 1151 b 306 1306 432 1269 404 1306 b 165 1165 165 1306 165 1239 b 289 1035 165 1079 176 1035 b 411 1075 325 1035 386 1038 z m 399 1081 l 400 1082 b 290 1047 385 1058 338 1047 b 178 1161 207 1047 178 1065 b 297 1293 178 1267 211 1293 b 418 1203 369 1293 418 1274 b 399 1081 418 1158 407 1104 z m 256 1236 l 254 1235 b 228 1179 235 1219 228 1201 b 308 1097 228 1118 236 1097 b 371 1188 371 1097 371 1143 b 299 1246 371 1228 333 1246 b 256 1236 283 1246 268 1242 z m 239 1165 b 263 1224 239 1190 244 1206 b 299 1232 272 1229 286 1232 b 357 1175 335 1232 357 1215 b 293 1111 357 1139 354 1111 b 239 1165 265 1111 239 1119 z m 614 0 l 614 4 b 426 853 553 286 492 571 b 389 986 418 885 406 967 b 225 979 353 982 239 986 l 218 979 b 211 974 215 978 214 975 b 14 97 121 689 60 390 b -1 4 8 67 7 33 l 1 -3 l 3 -4 b 193 -8 69 -4 142 -8 l 206 -7 l 204 -7 b 210 -4 206 -6 208 -6 l 213 -3 b 272 226 256 63 242 156 b 289 225 275 226 282 225 b 303 228 294 225 300 226 b 350 225 318 228 335 225 b 414 3 385 157 385 74 b 531 -14 428 -12 514 -14 b 614 0 553 -14 607 -14 z m 532 0 b 489 3 517 0 503 1 b 424 13 468 6 446 11 b 361 235 397 85 394 165 b 314 243 351 239 329 243 b 297 240 307 243 301 243 l 268 240 b 263 236 265 239 264 238 b 201 7 232 167 240 68 b 144 4 188 4 167 4 b 14 8 99 4 44 7 b 28 93 21 35 24 65 b 224 965 71 381 135 682 b 383 972 276 965 331 967 b 413 849 389 931 404 889 b 599 6 474 567 538 286 b 532 0 576 1 553 0 z m 361 390 l 368 397 b 311 694 357 490 353 646 l 306 694 b 251 399 279 694 260 492 b 278 389 260 390 268 389 b 361 390 304 389 332 390 z m 292 401 b 265 403 283 401 274 401 b 308 678 275 493 279 590 b 324 618 319 664 321 631 b 353 404 336 547 344 476 b 292 401 332 403 313 401 z "},"Ã":{"ha":603,"x_min":0,"x_max":0,"o":"m 186 1040 l 193 1047 b 188 1079 193 1058 188 1068 b 251 1135 188 1118 221 1135 b 424 1033 329 1135 311 1033 b 590 1265 540 1033 590 1142 b 588 1271 589 1265 588 1268 l 586 1272 b 581 1275 583 1274 582 1274 b 560 1274 574 1275 567 1274 b 521 1275 547 1274 535 1275 b 460 1265 499 1275 476 1274 b 390 1182 451 1231 428 1189 b 214 1288 325 1194 319 1288 b 17 1053 104 1288 42 1151 l 24 1044 b 118 1046 56 1044 86 1046 b 186 1040 139 1039 164 1044 z m 176 1056 b 125 1058 158 1058 142 1058 b 96 1063 115 1061 106 1063 b 33 1058 75 1063 53 1058 b 213 1272 61 1143 100 1272 b 299 1246 242 1272 274 1265 b 390 1168 331 1221 351 1168 b 472 1257 410 1168 461 1200 b 576 1260 479 1258 540 1258 b 424 1047 576 1144 528 1047 b 253 1151 307 1047 343 1151 b 174 1074 208 1151 174 1117 b 176 1056 174 1068 175 1061 z m 614 0 l 614 4 l 510 490 b 415 903 479 628 443 764 b 389 986 411 925 401 972 b 225 979 353 982 239 986 l 218 979 b 211 974 215 978 214 975 b 14 97 121 689 60 390 b -1 4 8 67 7 33 l 1 -3 l 3 -4 b 193 -8 69 -4 142 -8 l 206 -7 l 204 -7 b 210 -4 206 -6 208 -6 l 213 -3 b 272 226 256 63 242 156 b 289 225 275 226 282 225 b 350 225 310 225 329 229 b 414 3 385 157 385 74 b 531 -14 428 -12 514 -14 b 614 0 553 -14 607 -14 z m 532 0 b 489 3 517 0 503 1 b 424 13 468 6 446 11 b 361 235 397 85 394 165 b 297 240 347 240 315 247 l 268 240 b 263 236 265 239 264 238 b 201 7 232 167 240 68 b 144 4 188 4 167 4 b 14 8 99 4 44 7 b 28 93 21 35 24 65 b 224 965 71 381 135 682 b 383 972 276 965 331 967 b 401 899 386 947 396 924 b 599 6 463 600 535 303 b 532 0 576 1 553 0 z m 361 390 l 368 397 b 311 694 357 490 353 646 l 306 694 b 251 399 279 694 260 492 b 278 389 260 390 268 389 b 361 390 304 389 332 390 z m 292 401 b 265 403 283 401 274 401 b 308 678 275 493 279 590 b 324 618 319 664 321 631 b 353 404 336 547 344 476 b 292 401 332 403 313 401 z "},"Æ":{"ha":994,"x_min":0,"x_max":0,"o":"m 978 119 b 976 186 978 153 976 181 l 976 190 b 897 203 971 200 933 203 b 747 201 824 203 799 201 b 614 206 703 201 658 201 b 600 286 604 226 600 256 b 608 372 600 318 604 350 b 649 376 621 376 635 372 b 714 374 669 376 692 374 b 776 389 732 374 769 375 b 779 518 776 433 779 475 b 768 589 779 542 778 568 b 603 596 713 597 656 585 b 594 647 596 613 594 629 b 601 747 594 681 601 715 b 701 753 635 751 668 753 b 858 751 753 753 804 751 b 972 771 899 751 963 753 l 972 974 b 965 981 969 976 967 978 b 213 969 715 981 461 983 b 206 964 210 968 208 965 b -4 0 126 644 43 325 b 6 -7 0 -3 3 -4 b 203 -4 71 -7 138 -7 l 207 -1 l 210 -1 b 256 157 218 7 242 122 l 279 157 b 313 153 289 154 300 153 b 343 154 324 153 333 153 b 389 0 344 121 375 7 b 599 -6 458 -4 528 -6 b 958 -1 718 -6 838 -1 b 978 119 972 13 978 58 z m 964 132 b 954 13 964 92 961 53 b 611 8 840 11 725 8 b 394 14 539 8 467 10 b 357 161 388 63 357 111 b 310 169 349 168 328 169 l 286 169 b 271 172 281 171 276 172 b 246 167 263 172 251 172 b 199 8 226 129 208 53 b 72 14 168 10 117 14 b 10 8 47 14 25 13 b 218 956 57 329 139 642 b 958 967 464 969 711 967 l 958 775 b 829 764 915 767 872 764 b 667 767 774 764 724 767 b 588 751 636 767 601 765 b 581 650 588 719 581 685 b 599 583 581 631 582 592 b 656 578 618 579 636 578 b 714 579 675 578 694 579 b 761 576 729 579 746 579 b 765 508 764 553 765 531 b 763 394 765 469 763 432 b 722 390 765 394 731 390 b 674 392 714 390 693 392 b 592 329 588 392 594 390 b 588 269 590 311 588 289 b 610 192 588 246 592 200 b 963 183 726 192 844 192 b 964 132 964 167 964 149 z m 357 393 l 360 401 b 310 588 349 463 329 528 l 297 588 b 296 585 296 586 296 585 l 296 583 b 251 396 269 522 251 461 b 317 383 263 385 293 383 b 357 393 332 383 346 385 z m 279 404 b 265 403 274 404 269 404 b 301 564 269 458 282 513 b 344 401 318 511 336 456 b 339 399 343 400 340 399 b 279 404 322 399 299 404 z "},"B":{"ha":667,"x_min":0,"x_max":0,"o":"m 617 86 b 654 201 642 114 647 164 l 654 222 b 483 490 654 360 613 431 b 481 493 482 490 481 492 b 496 503 485 497 490 499 b 617 724 593 553 617 631 b 586 864 617 771 615 824 b 492 957 538 931 560 908 b 300 1003 443 992 374 1003 b 51 963 221 1003 82 993 b 54 690 54 871 54 781 b 53 247 54 542 53 394 b 56 4 53 167 53 85 b 247 -12 65 -15 207 -11 b 336 -15 278 -14 307 -15 b 617 86 440 -15 540 1 z m 638 224 l 638 203 b 603 96 628 157 629 135 b 342 1 549 15 440 1 b 119 11 260 1 194 8 b 92 10 111 11 101 10 b 72 13 85 10 78 11 b 69 251 69 92 69 172 b 71 689 69 397 71 543 b 68 957 71 778 71 868 b 292 988 139 974 215 988 b 606 718 468 988 606 888 b 575 599 606 676 596 635 b 463 492 549 554 463 514 b 553 435 478 461 526 454 b 638 224 622 382 638 306 z m 451 686 b 440 735 451 700 447 717 b 301 801 418 779 357 801 b 225 778 274 801 233 796 b 226 747 225 768 226 758 b 222 639 226 711 222 675 b 268 568 222 599 215 568 b 451 686 351 568 451 607 z m 299 785 b 425 728 349 785 407 765 b 435 685 432 713 435 699 b 269 588 435 615 340 588 b 239 635 229 588 239 610 b 243 742 239 671 243 706 b 242 774 243 753 242 763 b 299 785 257 781 276 785 z m 443 274 b 433 335 443 290 440 311 b 232 419 399 425 317 419 b 215 325 217 390 215 360 b 236 179 215 279 217 217 b 296 176 257 178 276 176 b 443 274 378 176 443 193 z m 240 403 b 417 331 315 403 388 408 b 424 279 422 313 424 296 b 315 192 424 203 371 192 b 244 196 290 192 265 194 b 232 325 239 236 232 281 b 240 403 232 351 235 378 z "},"C":{"ha":678,"x_min":0,"x_max":0,"o":"m 267 733 b 274 749 268 739 271 743 b 339 768 292 767 317 761 b 428 589 443 768 411 656 b 563 568 463 572 521 568 b 644 582 585 568 631 568 b 660 679 656 614 660 647 b 322 1018 660 858 504 1018 b 56 842 168 1018 103 961 b 36 767 46 818 36 793 b 39 744 36 758 36 751 b 36 549 39 679 36 614 l 36 396 b 39 272 36 354 38 313 b 94 51 40 193 36 113 b 314 -25 150 -7 235 -25 b 657 293 535 -25 657 118 b 638 396 657 321 656 376 b 547 407 611 406 567 407 b 478 400 524 407 500 400 b 451 404 469 400 460 401 b 424 257 429 393 444 290 b 350 217 407 231 378 217 b 253 426 264 217 253 346 b 258 581 253 479 258 532 b 256 658 258 601 256 631 b 264 729 256 685 258 711 l 265 731 b 267 735 265 732 267 733 z m 264 758 l 263 756 b 243 643 249 738 243 701 b 244 582 243 614 244 588 b 240 439 243 547 240 494 b 356 203 240 307 265 203 b 444 269 392 203 429 225 b 456 389 457 308 447 349 b 486 388 465 388 475 388 b 567 390 513 388 540 390 b 631 383 585 383 607 390 b 643 292 639 354 643 322 b 311 -11 643 117 521 -11 b 104 61 238 -11 156 6 b 53 274 49 119 54 199 b 49 526 51 358 49 442 b 56 713 49 588 56 593 b 51 751 56 728 54 742 b 307 1003 51 911 168 1003 b 647 683 493 1003 647 853 b 632 590 647 653 642 621 b 563 582 610 583 586 582 b 440 596 521 582 479 589 b 332 783 429 653 454 783 b 264 758 306 783 281 775 z "},"Ç":{"ha":661,"x_min":0,"x_max":0,"o":"m 257 972 b 46 729 106 972 46 850 b 39 567 43 675 40 621 l 39 358 b 236 -18 39 207 42 -18 b 203 -175 226 -54 203 -143 b 235 -187 208 -186 213 -187 b 342 -176 278 -187 333 -185 l 342 -175 b 381 -21 360 -126 369 -71 b 639 283 543 -18 639 133 b 621 382 639 311 639 364 b 529 393 594 392 554 393 b 432 382 493 393 456 393 b 422 269 425 344 433 306 b 347 208 410 229 379 208 b 250 426 261 208 250 349 b 254 611 250 514 253 544 b 347 743 256 681 258 743 b 388 724 361 736 375 735 b 424 567 419 676 407 619 b 547 549 447 554 515 549 b 619 560 571 549 619 558 l 621 560 b 624 561 622 560 622 560 l 622 561 b 639 657 636 561 639 636 b 340 969 639 819 542 964 b 257 972 315 969 288 972 z m 51 496 b 60 728 51 574 56 650 b 174 946 60 801 93 919 b 293 957 211 958 254 957 b 494 918 360 957 438 956 b 625 660 582 861 625 760 b 614 572 625 631 621 600 b 543 563 590 571 567 563 b 435 575 507 563 471 575 b 339 758 418 640 435 758 b 240 613 242 758 242 671 b 235 446 239 563 235 504 b 347 194 235 321 250 194 b 442 332 400 194 442 239 b 444 374 442 346 442 360 b 474 372 453 374 464 372 b 503 376 483 372 494 374 l 550 376 b 614 369 568 369 590 376 b 626 283 622 342 626 313 b 376 -7 626 140 532 -7 b 381 -8 378 -7 379 -8 b 369 -11 376 -10 374 -11 b 328 -168 361 -44 332 -132 b 239 -174 299 -168 267 -174 b 217 -171 232 -174 224 -172 b 228 -117 218 -164 222 -132 b 253 -10 236 -82 253 -46 b 246 -3 250 -7 247 -6 b 221 -4 238 -4 229 -4 b 53 357 53 -4 53 233 b 51 496 53 403 51 450 z "},"D":{"ha":669,"x_min":0,"x_max":0,"o":"m 551 861 b 213 982 458 1001 367 982 b 50 957 165 982 54 981 b 51 958 50 958 50 958 b 49 953 50 957 49 954 b 50 833 49 913 50 874 b 47 475 50 714 47 594 b 71 0 47 317 51 158 b 78 -1 74 0 75 0 l 79 -1 b 49 -4 68 -3 58 -3 l 81 -4 l 86 -14 b 85 -4 85 -10 85 -7 b 264 -6 144 -4 204 -6 b 446 0 325 -6 385 -4 b 601 233 508 63 565 153 b 628 301 608 249 626 282 l 629 303 b 643 419 629 340 642 381 b 646 529 644 461 646 497 b 551 861 646 647 629 722 z m 629 421 b 615 304 628 382 615 342 l 617 304 b 614 301 615 304 615 303 l 614 303 b 440 14 579 196 510 101 b 274 8 385 10 329 8 b 83 10 210 8 146 10 b 61 479 65 165 61 322 b 64 825 61 594 64 710 b 63 951 64 867 63 910 l 63 953 b 393 967 172 975 282 960 b 540 854 454 946 504 907 b 632 533 617 719 632 646 b 629 421 632 500 631 464 z m 329 686 b 246 672 303 686 258 685 l 246 404 b 243 344 246 383 243 363 b 297 289 243 313 251 289 b 349 293 314 289 332 289 b 354 292 350 292 353 292 b 425 350 376 292 413 326 l 424 349 b 464 472 446 386 464 428 b 329 686 464 554 433 686 z m 413 356 b 356 306 404 340 364 306 l 354 306 b 343 307 351 307 349 307 b 283 303 325 307 293 303 b 257 393 250 311 257 361 b 263 561 257 449 263 506 b 260 667 263 596 260 631 b 328 674 281 668 306 674 b 450 483 410 674 450 560 b 413 356 450 436 436 394 z "},"Ð":{"ha":669,"x_min":0,"x_max":0,"o":"m 65 575 b -7 576 40 575 17 576 b -15 556 -14 572 -15 564 b -8 379 -15 496 -8 438 b 36 368 0 371 18 368 b 65 369 46 368 57 369 b 63 108 65 282 63 256 b 78 -1 63 56 65 4 b 351 -7 168 -1 260 -7 b 499 29 400 -7 458 -1 b 614 251 563 78 594 176 b 646 494 635 332 646 414 b 301 988 646 706 575 988 b 71 961 222 988 142 971 l 64 953 b 67 790 65 899 67 844 b 65 575 67 718 65 646 z m 72 561 l 79 568 b 81 785 79 640 81 713 b 78 949 81 839 79 893 b 303 974 146 957 226 974 b 633 450 588 974 633 656 b 600 256 633 385 615 318 b 490 40 582 183 551 88 b 351 7 453 11 396 7 b 85 13 261 7 174 13 b 79 376 75 133 79 256 b 31 385 71 383 50 385 l 6 385 b -1 538 6 436 -1 486 b 0 563 -1 546 0 554 b 72 561 24 563 47 561 z m 281 219 b 431 281 367 219 400 240 b 469 458 458 326 469 392 b 301 753 469 615 425 753 b 229 735 278 753 253 746 l 225 726 b 228 663 226 706 228 683 b 226 565 228 631 226 597 b 275 554 235 557 256 554 b 308 556 286 554 299 556 b 307 528 308 547 307 538 b 313 392 307 483 313 438 b 232 393 286 392 258 393 l 225 385 b 228 239 225 336 228 286 b 281 219 235 225 244 219 z m 456 458 b 419 288 456 394 444 331 b 294 236 386 242 342 236 b 243 239 278 236 260 239 l 242 240 b 238 303 239 260 238 282 b 239 379 238 328 239 354 b 319 378 265 379 292 378 b 328 451 328 394 328 418 b 322 515 328 478 326 503 l 322 563 b 275 571 314 569 294 571 l 240 571 b 242 663 240 601 242 632 b 239 724 242 682 240 703 b 299 735 257 731 281 735 b 456 458 415 735 456 621 z "},"E":{"ha":668,"x_min":0,"x_max":0,"o":"m 651 122 b 650 186 651 143 651 164 l 650 189 b 643 196 647 192 644 193 b 561 193 615 194 589 193 b 283 203 468 193 375 201 b 276 279 279 226 276 253 b 285 367 276 308 279 339 b 325 372 299 369 311 368 b 383 371 344 372 364 371 b 453 386 403 371 444 371 b 451 418 451 396 451 407 b 454 522 451 453 454 488 b 443 588 454 544 451 569 b 360 586 415 588 388 586 b 276 592 332 586 303 588 b 271 643 272 608 271 626 b 276 743 271 676 275 711 b 397 747 315 743 356 747 b 515 746 438 747 472 746 b 646 767 561 746 636 747 b 650 914 646 814 650 864 b 640 972 650 933 649 954 b 550 981 611 978 582 981 b 407 974 503 981 453 975 b 64 964 292 969 178 971 b 57 958 61 963 60 960 b 49 625 50 847 49 736 b 56 8 49 419 56 214 l 63 0 b 278 -8 133 -6 206 -8 b 632 -3 396 -8 514 -3 b 651 122 654 19 651 89 z m 626 11 b 281 6 511 11 396 6 b 69 14 210 6 140 8 b 63 621 69 217 63 418 b 71 950 63 731 64 840 b 407 960 182 957 294 956 b 551 965 450 961 501 965 b 633 960 581 965 608 964 b 636 904 636 942 636 922 b 632 771 636 860 632 814 b 494 760 586 763 540 760 b 413 761 467 760 440 761 b 267 756 364 761 314 756 l 265 754 b 254 621 251 725 254 628 b 307 572 254 599 261 572 b 357 575 328 572 347 575 b 436 574 383 575 410 574 b 440 508 439 551 440 531 b 439 390 440 469 439 429 b 407 386 428 386 418 386 b 349 389 388 386 368 389 b 264 301 275 389 264 385 b 279 189 264 283 260 189 b 569 179 375 189 472 179 b 636 181 592 179 614 179 b 638 119 638 160 638 140 b 626 11 638 83 635 47 z "},"É":{"ha":668,"x_min":0,"x_max":0,"o":"m 415 1039 b 556 1172 432 1075 521 1138 l 556 1181 b 450 1279 524 1213 488 1260 b 218 1053 365 1210 300 1122 l 218 1042 b 329 1029 226 1033 281 1029 b 415 1039 381 1029 408 1032 z m 454 1264 b 540 1176 482 1235 511 1206 b 403 1047 501 1139 421 1082 b 336 1042 382 1043 360 1042 b 236 1050 301 1042 267 1044 b 454 1264 311 1119 375 1200 z m 651 122 b 650 186 651 143 651 164 l 650 189 b 643 196 647 192 644 193 b 561 193 615 194 589 193 b 283 203 468 193 375 201 b 276 279 279 226 276 253 b 285 367 276 308 279 339 b 325 372 299 369 311 368 b 383 371 344 372 364 371 b 453 386 403 371 444 371 b 451 418 451 396 451 407 b 454 522 451 453 454 488 b 443 588 454 544 451 569 b 360 586 415 588 388 586 b 276 592 332 586 303 588 b 271 643 272 608 271 626 b 276 743 271 676 275 711 b 397 747 315 743 356 747 b 515 746 438 747 472 746 b 646 767 561 746 636 747 b 650 914 646 814 650 864 b 640 972 650 933 649 954 b 550 981 611 978 582 981 b 407 974 503 981 453 975 b 64 964 292 969 178 971 b 57 958 61 963 60 960 b 49 625 50 847 49 736 b 56 8 49 419 56 214 l 63 0 b 278 -8 133 -6 206 -8 b 632 -3 396 -8 514 -3 b 651 122 654 19 651 89 z m 626 11 b 281 6 511 11 396 6 b 69 14 210 6 140 8 b 63 621 69 217 63 418 b 71 950 63 731 64 840 b 407 960 182 957 294 956 b 551 965 450 961 501 965 b 633 960 581 965 608 964 b 636 904 636 942 636 922 b 632 771 636 860 632 814 b 494 760 586 763 540 760 b 413 761 467 760 440 761 b 267 756 364 761 314 756 l 265 754 b 254 621 251 725 254 628 b 307 572 254 599 261 572 b 357 575 328 572 347 575 b 436 574 383 575 410 574 b 440 508 439 551 440 531 b 439 390 440 469 439 429 b 407 386 428 386 418 386 b 349 389 388 386 368 389 b 264 301 275 389 264 385 b 279 189 264 283 260 189 b 569 179 375 189 472 179 b 636 181 592 179 614 179 b 638 119 638 160 638 140 b 626 11 638 83 635 47 z "},"Ê":{"ha":668,"x_min":0,"x_max":0,"o":"m 225 1033 b 346 1103 306 1033 290 1063 l 357 1092 b 465 1031 375 1056 403 1031 b 576 1043 522 1031 540 1043 l 582 1054 l 356 1279 b 346 1281 351 1279 349 1279 b 121 1054 267 1207 186 1139 l 125 1042 b 225 1033 156 1036 196 1033 z m 350 1265 b 560 1056 419 1196 489 1125 b 500 1047 539 1054 519 1049 b 417 1050 472 1047 444 1049 l 404 1058 b 350 1117 386 1076 371 1103 l 342 1117 b 233 1049 300 1089 307 1049 b 138 1054 196 1049 149 1053 b 350 1265 200 1133 276 1196 z m 651 122 b 650 186 651 143 651 164 l 650 189 b 643 196 647 192 644 193 b 561 193 615 194 589 193 b 283 203 468 193 375 201 b 276 279 279 226 276 253 b 285 367 276 308 279 339 b 325 372 299 369 311 368 b 383 371 344 372 364 371 b 453 386 403 371 444 371 b 451 418 451 396 451 407 b 454 522 451 453 454 488 b 443 588 454 544 451 569 b 360 586 415 588 388 586 b 276 592 332 586 303 588 b 271 643 272 608 271 626 b 276 743 271 676 275 711 b 397 747 315 743 356 747 b 515 746 438 747 472 746 b 646 767 561 746 636 747 b 650 914 646 814 650 864 b 640 972 650 933 649 954 b 550 981 611 978 582 981 b 407 974 503 981 453 975 b 64 964 292 969 178 971 b 57 958 61 963 60 960 b 49 625 50 847 49 736 b 56 8 49 419 56 214 l 63 0 b 278 -8 133 -6 206 -8 b 632 -3 396 -8 514 -3 b 651 122 654 19 651 89 z m 626 11 b 281 6 511 11 396 6 b 69 14 210 6 140 8 b 63 621 69 217 63 418 b 71 950 63 731 64 840 b 407 960 182 957 294 956 b 551 965 450 961 501 965 b 633 960 581 965 608 964 b 636 904 636 942 636 922 b 632 771 636 860 632 814 b 494 760 586 763 540 760 b 413 761 467 760 440 761 b 267 756 364 761 314 756 l 265 754 b 254 621 251 725 254 628 b 307 572 254 599 261 572 b 357 575 328 572 347 575 b 436 574 383 575 410 574 b 440 508 439 551 440 531 b 439 390 440 469 439 429 b 407 386 428 386 418 386 b 349 389 388 386 368 389 b 264 301 275 389 264 385 b 279 189 264 283 260 189 b 569 179 375 189 472 179 b 636 181 592 179 614 179 b 638 119 638 160 638 140 b 626 11 638 83 635 47 z "},"Ë":{"ha":668,"x_min":0,"x_max":0,"o":"m 150 1047 l 154 1047 b 292 1046 200 1047 246 1046 b 307 1193 308 1081 299 1150 b 226 1214 299 1210 263 1214 b 146 1201 194 1214 163 1208 l 142 1193 b 135 1100 142 1167 135 1132 b 150 1047 135 1081 136 1054 z m 392 1047 l 396 1047 b 533 1046 442 1047 488 1046 b 549 1193 550 1081 540 1150 b 468 1214 540 1210 504 1214 b 388 1201 436 1214 404 1208 l 383 1193 b 376 1100 383 1167 376 1132 b 392 1047 376 1081 378 1054 z m 156 1190 b 239 1200 178 1194 210 1200 b 292 1192 258 1200 276 1197 b 285 1060 285 1149 285 1101 b 154 1061 240 1060 197 1061 b 149 1097 150 1071 149 1083 b 156 1190 149 1128 156 1164 z m 397 1190 b 481 1200 419 1194 451 1200 b 533 1192 500 1200 518 1197 b 526 1060 526 1149 526 1101 b 396 1061 482 1060 439 1061 b 390 1097 392 1071 390 1083 b 397 1190 390 1128 397 1164 z m 651 122 b 650 186 651 143 651 164 l 650 189 b 643 196 647 192 644 193 b 561 193 615 194 589 193 b 283 203 468 193 375 201 b 276 279 279 226 276 253 b 285 367 276 308 279 339 b 325 372 299 369 311 368 b 383 371 344 372 364 371 b 453 386 403 371 444 371 b 451 418 451 396 451 407 b 454 522 451 453 454 488 b 443 588 454 544 451 569 b 360 586 415 588 388 586 b 276 592 332 586 303 588 b 271 643 272 608 271 626 b 276 743 271 676 275 711 b 397 747 315 743 356 747 b 515 746 438 747 472 746 b 646 767 561 746 636 747 b 650 914 646 814 650 864 b 640 972 650 933 649 954 b 550 981 611 978 582 981 b 407 974 503 981 453 975 b 64 964 292 969 178 971 b 57 958 61 963 60 960 b 49 625 50 847 49 736 b 56 8 49 419 56 214 l 63 0 b 278 -8 133 -6 206 -8 b 632 -3 396 -8 514 -3 b 651 122 654 19 651 89 z m 626 11 b 281 6 511 11 396 6 b 69 14 210 6 140 8 b 63 621 69 217 63 418 b 71 950 63 731 64 840 b 407 960 182 957 294 956 b 551 965 450 961 501 965 b 633 960 581 965 608 964 b 636 904 636 942 636 922 b 632 771 636 860 632 814 b 494 760 586 763 540 760 b 413 761 467 760 440 761 b 267 756 364 761 314 756 l 265 754 b 254 621 251 725 254 628 b 307 572 254 599 261 572 b 357 575 328 572 347 575 b 436 574 383 575 410 574 b 440 508 439 551 440 531 b 439 390 440 469 439 429 b 407 386 428 386 418 386 b 349 389 388 386 368 389 b 264 301 275 389 264 385 b 279 189 264 283 260 189 b 569 179 375 189 472 179 b 636 181 592 179 614 179 b 638 119 638 160 638 140 b 626 11 638 83 635 47 z "},"È":{"ha":668,"x_min":0,"x_max":0,"o":"m 290 1039 b 374 1029 290 1031 332 1029 b 486 1042 418 1029 468 1032 l 486 1053 b 428 1111 464 1069 446 1092 b 254 1279 374 1169 318 1232 l 246 1279 b 150 1182 214 1246 182 1214 l 150 1171 b 290 1039 150 1150 269 1078 z m 250 1264 b 418 1101 311 1218 365 1158 b 467 1050 433 1083 449 1065 b 368 1042 444 1044 403 1042 b 300 1047 338 1042 310 1044 b 163 1176 285 1078 193 1149 z m 651 122 b 650 186 651 143 651 164 l 650 189 b 643 196 647 192 644 193 b 561 193 615 194 589 193 b 283 203 468 193 375 201 b 276 279 279 226 276 253 b 285 367 276 308 279 339 b 325 372 299 369 311 368 b 383 371 344 372 364 371 b 453 386 403 371 444 371 b 451 418 451 396 451 407 b 454 522 451 453 454 488 b 443 588 454 544 451 569 b 360 586 415 588 388 586 b 276 592 332 586 303 588 b 271 643 272 608 271 626 b 276 743 271 676 275 711 b 397 747 315 743 356 747 b 515 746 438 747 472 746 b 646 767 561 746 636 747 b 650 914 646 814 650 864 b 640 972 650 933 649 954 b 550 981 611 978 582 981 b 407 974 503 981 453 975 b 64 964 292 969 178 971 b 57 958 61 963 60 960 b 49 625 50 847 49 736 b 56 8 49 419 56 214 l 63 0 b 278 -8 133 -6 206 -8 b 632 -3 396 -8 514 -3 b 651 122 654 19 651 89 z m 626 11 b 281 6 511 11 396 6 b 69 14 210 6 140 8 b 63 621 69 217 63 418 b 71 950 63 731 64 840 b 407 960 182 957 294 956 b 551 965 450 961 501 965 b 633 960 581 965 608 964 b 636 904 636 942 636 922 b 632 771 636 860 632 814 b 494 760 586 763 540 760 b 413 761 467 760 440 761 b 267 756 364 761 314 756 l 265 754 b 254 621 251 725 254 628 b 307 572 254 599 261 572 b 357 575 328 572 347 575 b 436 574 383 575 410 574 b 440 508 439 551 440 531 b 439 390 440 469 439 429 b 407 386 428 386 418 386 b 349 389 388 386 368 389 b 264 301 275 389 264 385 b 279 189 264 283 260 189 b 569 179 375 189 472 179 b 636 181 592 179 614 179 b 638 119 638 160 638 140 b 626 11 638 83 635 47 z "},"F":{"ha":686,"x_min":0,"x_max":0,"o":"m 492 356 l 493 356 b 501 378 501 364 501 363 b 499 425 501 396 499 422 b 504 543 499 454 504 503 b 490 600 504 571 503 586 b 392 592 467 596 428 592 b 303 653 331 592 303 593 b 315 714 303 674 308 696 b 608 729 408 728 514 729 l 629 729 b 688 742 654 729 682 731 l 688 756 b 692 810 692 767 692 786 b 682 954 692 860 690 936 b 438 978 603 972 519 978 b 228 968 367 978 296 974 b 57 951 174 964 108 968 l 53 943 l 53 747 b 49 371 53 621 49 496 b 50 4 49 249 50 126 b 85 -11 57 -10 67 -11 b 117 -10 97 -11 108 -10 b 229 -11 154 -12 176 -11 b 307 1 263 -11 301 -10 b 318 335 307 113 310 224 b 492 356 375 340 436 346 z m 486 368 b 364 356 444 363 404 360 b 319 349 349 354 333 350 l 319 353 l 317 349 l 311 349 b 304 343 308 347 307 344 b 293 7 296 232 293 119 b 168 0 253 3 210 0 b 64 7 133 0 97 3 b 67 939 64 317 67 628 b 421 965 174 953 299 965 b 674 942 510 965 597 958 b 675 763 674 882 675 822 b 674 747 674 757 674 753 b 596 743 649 742 621 744 b 310 726 501 738 403 740 b 289 649 296 719 289 674 b 392 578 289 581 324 578 b 485 585 425 578 460 581 b 490 540 489 574 490 558 b 482 407 490 500 482 447 b 486 368 482 392 483 379 z "},"G":{"ha":668,"x_min":0,"x_max":0,"o":"m 435 508 b 335 490 397 508 363 504 l 326 481 b 329 422 326 463 329 442 b 325 389 326 417 325 404 b 376 318 325 336 331 318 b 404 324 388 318 397 319 l 439 324 b 317 190 439 204 390 190 b 232 389 242 213 232 306 b 301 768 232 579 244 747 b 361 767 321 768 342 767 b 446 651 414 750 425 693 b 519 643 461 646 493 643 b 561 647 536 643 551 644 b 583 646 567 647 575 646 b 628 654 600 646 615 647 b 635 708 628 672 635 692 b 358 981 635 861 521 981 b 156 943 288 981 217 978 b 29 589 42 878 29 715 b 117 49 29 456 21 156 b 308 -28 168 -10 238 -28 b 596 69 394 -28 536 -14 b 644 331 646 139 644 247 b 631 493 644 360 642 482 b 625 496 628 494 626 494 b 435 508 571 496 499 508 z m 340 476 b 342 478 340 476 340 478 b 435 493 367 490 399 493 b 619 482 497 493 569 482 b 633 286 625 421 633 354 b 601 103 633 222 626 158 b 308 -14 557 3 401 -14 b 126 58 239 -14 172 3 b 44 485 56 144 44 343 b 53 714 44 582 46 638 b 117 896 58 775 69 851 b 314 967 169 946 242 967 b 621 718 478 967 621 886 b 603 663 621 693 624 663 b 593 661 599 663 596 663 b 571 663 586 661 578 663 b 554 660 565 663 560 661 b 454 664 521 660 488 664 b 317 781 435 739 400 781 b 222 540 221 781 226 619 b 219 428 221 504 219 465 b 335 175 219 324 222 175 b 456 308 406 175 456 224 b 417 339 456 328 450 339 b 364 333 397 339 383 333 b 340 358 342 333 340 344 b 346 438 340 390 346 410 b 340 475 346 451 343 467 z "},"H":{"ha":693,"x_min":0,"x_max":0,"o":"m 621 981 b 614 988 618 983 615 985 l 597 988 b 557 993 586 992 572 993 b 417 964 515 993 435 982 b 421 832 419 919 421 876 b 411 608 421 757 417 682 b 335 601 388 604 361 601 b 271 607 313 601 292 603 b 267 629 269 614 268 621 l 268 629 b 243 967 250 740 260 854 b 193 979 236 979 208 979 b 111 975 165 979 138 975 b 56 978 92 975 74 978 b 49 969 53 975 51 972 l 49 971 b 44 804 46 971 44 831 b 56 233 44 613 56 424 l 56 153 b 79 -4 56 82 58 3 b 114 3 89 0 100 3 b 217 -8 144 3 182 -8 b 268 4 235 -8 253 -6 b 271 7 268 6 269 7 b 278 107 276 40 278 74 b 272 288 278 167 272 228 b 278 376 272 317 274 347 b 358 385 306 382 332 385 b 428 378 381 385 404 382 b 449 -1 444 251 429 125 b 465 -7 456 -6 456 -7 b 476 -6 469 -7 472 -7 b 565 -7 504 -6 535 -7 b 653 1 594 -7 625 -6 l 658 8 z m 597 10 b 518 13 571 10 543 13 b 469 7 500 13 483 11 l 461 7 b 449 290 449 100 449 196 b 439 389 449 303 446 383 b 381 400 428 397 406 400 b 265 383 332 400 279 390 b 260 292 261 353 260 322 b 264 117 260 233 264 175 b 257 14 264 82 263 47 b 214 4 244 7 229 4 b 110 15 181 4 143 15 b 81 11 100 15 90 14 b 76 94 76 39 78 67 b 58 764 60 317 58 542 b 63 963 58 829 60 896 b 103 957 75 958 89 957 b 200 963 133 957 168 963 b 229 961 210 963 219 963 b 258 600 247 842 239 721 b 318 588 272 593 297 588 b 421 596 351 588 410 596 l 418 596 b 425 603 419 599 422 600 b 435 835 431 679 435 757 b 431 960 435 876 433 918 b 590 975 486 971 535 975 b 607 974 597 974 599 974 l 644 14 b 597 10 629 11 614 10 z "},"I":{"ha":361,"x_min":0,"x_max":0,"o":"m 315 976 l 308 983 b 222 982 279 983 250 982 b 65 990 169 982 117 990 b 49 864 53 978 50 896 b 44 724 46 817 44 771 b 53 232 44 558 53 394 b 47 -4 53 153 51 75 l 60 -10 b 90 -6 67 -7 76 -6 b 233 -15 128 -6 185 -15 b 314 7 269 -15 296 -11 b 306 315 307 110 306 213 b 315 976 306 536 315 756 z m 292 314 b 300 10 292 213 293 111 b 228 0 281 10 256 0 b 96 6 183 0 133 6 b 61 3 82 6 71 4 b 68 288 65 99 68 193 b 60 732 68 436 60 583 b 72 976 60 814 63 894 b 221 968 122 976 171 968 b 301 969 247 968 274 969 b 292 314 301 750 292 532 z "},"Í":{"ha":360,"x_min":0,"x_max":0,"o":"m 275 1039 l 418 1176 b 310 1279 386 1208 347 1260 b 78 1053 225 1210 160 1122 l 65 1043 b 189 1029 74 1035 140 1029 b 275 1039 240 1029 268 1032 z m 400 1176 b 263 1047 361 1139 281 1082 b 196 1042 242 1043 219 1042 b 96 1050 161 1042 126 1044 b 314 1264 171 1119 235 1200 b 400 1176 342 1235 371 1206 z m 319 985 l 308 983 b 222 982 279 983 250 982 b 65 990 169 982 117 990 b 49 864 53 978 50 896 b 44 724 46 817 44 771 b 53 232 44 558 53 394 b 46 -12 53 153 50 67 b 233 -15 110 -7 171 -15 b 314 7 269 -15 296 -11 b 306 315 307 110 306 213 b 319 985 306 536 319 764 z m 292 314 b 300 10 292 213 293 111 b 228 0 281 10 256 0 b 96 6 183 0 133 6 b 61 3 82 6 71 4 b 68 288 65 99 68 193 b 60 732 68 436 60 583 b 72 976 60 814 63 894 b 221 968 122 976 171 968 b 301 969 247 968 274 969 b 292 314 301 750 292 532 z "},"Î":{"ha":361,"x_min":0,"x_max":0,"o":"m 444 1043 l 432 1054 b 203 1288 357 1132 271 1207 b -46 1044 124 1214 19 1129 l -25 1042 b 75 1033 6 1036 46 1033 b 196 1103 156 1033 140 1063 b 315 1031 225 1056 253 1031 b 444 1043 372 1031 408 1043 z m 410 1056 b 350 1047 389 1054 369 1049 b 196 1124 282 1028 231 1078 b 83 1049 154 1096 157 1049 b -12 1054 46 1049 -1 1053 b 200 1265 50 1133 126 1196 b 410 1056 269 1196 339 1125 z m 315 976 l 308 983 b 222 982 279 983 250 982 b 65 990 169 982 117 990 b 49 864 53 978 50 896 b 44 724 46 817 44 771 b 53 232 44 558 53 394 b 47 -7 53 153 51 72 b 90 -6 67 -10 76 -6 b 233 -15 128 -6 185 -15 b 314 7 269 -15 296 -11 b 306 315 307 110 306 213 b 315 976 306 536 315 756 z m 292 314 b 300 10 292 213 293 111 b 228 0 281 10 256 0 b 96 6 183 0 133 6 b 61 3 82 6 71 4 b 68 288 65 99 68 193 b 60 732 68 436 60 583 b 72 976 60 814 63 894 b 221 968 122 976 171 968 b 301 969 247 968 274 969 b 292 314 301 750 292 532 z "},"Ï":{"ha":361,"x_min":0,"x_max":0,"o":"m 3 1047 l 7 1047 b 144 1046 53 1047 99 1046 b 160 1193 161 1081 151 1150 b 79 1214 151 1210 115 1214 b -6 1201 47 1214 11 1208 l -6 1193 b -12 1100 -6 1167 -12 1132 b 3 1047 -12 1081 -11 1054 z m 244 1047 l 249 1047 b 386 1046 294 1047 340 1046 b 401 1193 403 1081 393 1150 b 321 1214 393 1210 357 1214 b 236 1201 289 1214 253 1208 l 236 1193 b 229 1100 236 1167 229 1132 b 244 1047 229 1081 231 1054 z m 138 1060 b 7 1061 93 1060 50 1061 b 1 1097 3 1071 1 1083 b 8 1190 1 1128 8 1164 b 92 1200 31 1194 63 1200 b 144 1192 111 1200 129 1197 b 138 1060 138 1149 138 1101 z m 379 1060 b 249 1061 335 1060 292 1061 b 243 1097 244 1071 243 1083 b 250 1190 243 1128 250 1164 b 333 1200 272 1194 304 1200 b 386 1192 353 1200 371 1197 b 379 1060 379 1149 379 1101 z m 314 983 l 308 983 b 222 982 279 983 250 982 b 65 990 169 982 117 990 b 49 864 53 978 50 896 b 44 724 46 817 44 771 b 53 232 44 558 53 394 b 47 -4 53 153 51 75 b 90 -6 67 -7 76 -6 b 233 -15 128 -6 185 -15 b 314 7 269 -15 296 -11 b 306 315 307 110 306 213 b 314 983 306 536 314 763 z m 292 314 b 300 10 292 213 293 111 b 228 0 281 10 256 0 b 96 6 183 0 133 6 b 61 3 82 6 71 4 b 68 288 65 99 68 193 b 60 732 68 436 60 583 b 72 976 60 814 63 894 b 221 968 122 976 171 968 b 301 969 247 968 274 969 b 292 314 301 750 292 532 z "},"Ì":{"ha":361,"x_min":0,"x_max":0,"o":"m 74 1283 l 69 1279 b -26 1182 38 1246 6 1214 l -26 1171 b 114 1039 -26 1150 93 1078 b 197 1029 114 1031 156 1029 b 319 1044 242 1029 301 1035 l 310 1053 b 251 1111 288 1069 269 1092 b 74 1283 197 1169 138 1236 z m 74 1264 b 242 1101 135 1218 189 1158 b 290 1050 257 1083 272 1065 b 192 1042 268 1044 226 1042 b 124 1047 161 1042 133 1044 b -14 1176 108 1078 17 1149 z m 318 985 l 308 983 b 222 982 279 983 250 982 b 65 990 169 982 117 990 b 49 864 53 978 50 896 b 44 724 46 817 44 771 b 53 232 44 558 53 394 b 47 -11 53 153 51 68 b 233 -15 107 3 163 -15 b 314 7 269 -15 296 -11 b 306 315 307 110 306 213 b 318 985 306 536 318 764 z m 292 314 b 300 10 292 213 293 111 b 228 0 281 10 256 0 b 96 6 183 0 133 6 b 61 3 82 6 71 4 b 68 288 65 99 68 193 b 60 732 68 436 60 583 b 72 976 60 814 63 894 b 221 968 122 976 171 968 b 301 969 247 968 274 969 b 292 314 301 750 292 532 z "},"J":{"ha":643,"x_min":0,"x_max":0,"o":"m 596 919 b 597 989 596 943 597 965 l 590 996 b 388 993 522 994 454 994 l 381 985 b 378 561 381 844 378 703 b 382 349 378 489 382 431 b 329 236 382 301 374 254 l 310 236 b 282 243 300 239 292 238 b 228 397 233 271 228 349 b 85 415 221 411 142 415 b -7 372 4 415 -7 400 b 267 -19 -7 194 33 -19 b 543 101 392 -19 489 22 b 599 385 597 181 597 293 b 603 644 600 472 603 553 b 596 919 603 736 596 828 z m 586 422 b 532 108 582 315 588 203 b 269 -3 479 18 367 -3 b 118 35 214 -3 161 4 b 8 346 39 89 8 242 b 11 394 8 364 10 381 b 96 401 39 399 68 401 b 214 392 136 401 176 397 b 319 221 214 325 229 221 b 396 346 383 221 396 296 b 389 731 396 475 389 601 b 394 979 389 814 394 896 b 582 982 457 981 519 981 b 579 885 581 950 579 918 b 588 518 579 763 588 640 b 586 422 588 486 588 454 z "},"K":{"ha":638,"x_min":0,"x_max":0,"o":"m 644 -1 l 650 8 l 413 499 b 649 963 479 660 599 794 b 610 975 644 974 626 975 b 504 972 575 975 539 972 b 454 976 488 972 471 974 b 447 972 451 975 449 974 b 319 747 399 900 363 824 b 258 660 303 719 276 688 b 256 968 258 763 258 865 b 249 975 253 971 250 972 b 63 978 186 975 124 978 l 56 969 b 44 299 56 746 44 522 b 53 6 44 201 47 103 b 150 -12 67 -8 107 -12 b 269 7 200 -12 263 -8 b 263 282 269 99 263 190 b 264 340 263 301 263 321 b 446 -3 321 224 364 99 b 543 -8 478 -3 511 -8 b 644 -1 578 -8 611 -7 z m 543 6 b 454 10 513 6 483 7 b 265 368 369 115 328 249 l 249 369 b 251 364 249 368 250 365 b 249 281 250 336 249 308 b 256 13 249 190 256 101 b 149 3 236 6 192 3 b 65 11 114 3 82 4 b 58 283 60 101 58 193 b 69 964 58 511 69 738 b 242 961 126 964 185 961 b 243 872 243 932 243 901 b 242 751 243 832 242 792 b 244 633 242 718 242 633 b 244 635 244 633 244 633 l 258 631 b 260 635 258 632 260 633 b 379 833 313 688 346 768 b 456 961 403 879 426 919 b 496 958 468 960 482 958 b 592 963 528 958 560 963 b 633 960 606 963 619 961 b 400 501 585 794 464 660 l 400 496 l 633 11 b 543 6 603 7 572 6 z "},"L":{"ha":640,"x_min":0,"x_max":0,"o":"m 642 126 l 642 129 b 639 146 640 135 639 140 b 644 200 639 163 644 182 b 638 218 644 210 640 211 b 608 215 628 217 618 215 b 285 228 501 215 393 228 b 279 838 285 431 279 633 b 283 972 279 882 279 928 b 142 997 274 990 189 997 b 51 983 107 997 74 993 l 47 975 b 54 521 47 822 54 672 b 43 0 54 347 43 174 l 50 -8 b 358 -12 151 -8 256 -12 b 556 -10 425 -12 478 -10 b 646 50 651 -10 646 1 b 642 126 646 78 642 111 z m 625 156 b 628 125 625 144 626 133 b 633 53 628 103 633 76 b 624 7 633 36 631 21 b 57 6 435 7 246 6 b 68 518 57 175 68 347 b 61 971 68 669 61 819 b 167 982 96 978 132 982 b 269 968 201 982 236 978 b 265 833 265 924 265 878 b 271 221 265 629 271 425 l 279 213 b 306 214 288 214 297 214 b 603 201 399 214 510 201 b 631 203 613 201 621 201 l 631 197 b 625 156 626 186 625 171 z "},"M":{"ha":696,"x_min":0,"x_max":0,"o":"m 633 -8 l 640 -1 b 647 547 642 179 647 365 b 643 844 647 646 643 744 b 646 968 643 885 643 926 b 639 975 643 971 640 972 b 458 967 576 975 518 967 b 435 969 450 967 442 968 b 350 753 378 913 385 819 b 251 967 303 804 304 914 b 139 969 225 967 181 969 b 58 960 106 969 75 968 l 54 951 b 50 379 54 761 50 569 l 50 94 b 79 -8 50 35 50 -8 b 132 -7 92 -8 108 -7 b 200 -8 153 -7 179 -8 b 268 4 225 -8 263 -7 b 254 340 261 117 254 229 b 260 497 254 393 256 444 b 274 458 265 485 268 472 b 344 331 282 433 315 331 b 426 517 388 374 401 456 b 439 174 438 403 439 286 b 438 63 439 136 438 101 b 488 -8 438 3 435 -8 b 579 -4 518 -8 547 -4 z m 553 11 b 507 7 535 11 518 10 l 456 7 b 451 83 453 32 451 58 b 453 175 451 114 453 144 b 438 540 453 296 453 421 b 426 546 433 542 429 543 b 342 344 389 508 379 390 b 264 531 325 344 264 515 l 263 531 b 264 535 263 532 264 533 l 254 531 b 250 532 253 531 251 532 l 250 529 b 240 336 243 465 240 400 b 254 10 240 228 247 119 b 175 6 228 6 201 6 b 68 7 139 6 103 7 l 68 10 b 60 163 63 60 60 111 b 68 947 60 426 68 686 b 164 954 99 953 132 954 b 249 953 192 954 221 953 b 353 739 306 889 306 739 b 358 742 354 740 356 740 b 436 954 386 769 399 908 b 468 951 444 953 456 951 b 632 961 518 951 593 961 b 629 839 629 921 629 881 b 633 522 629 733 633 628 b 626 7 633 350 626 176 b 553 11 606 10 578 11 z "},"N":{"ha":692,"x_min":0,"x_max":0,"o":"m 461 -7 b 589 -14 504 -7 546 -14 b 633 -7 606 -14 618 -14 l 635 -7 b 642 0 636 -4 639 -3 b 640 978 642 326 640 651 b 542 993 632 993 564 993 b 435 979 508 993 464 993 b 431 903 432 954 431 928 b 438 692 431 832 438 763 b 432 592 438 658 436 625 b 364 729 410 638 385 682 b 324 808 351 756 333 781 b 251 965 324 840 251 932 b 143 983 240 986 169 983 b 125 986 139 985 132 986 b 60 974 101 986 79 983 b 46 557 49 835 46 696 b 51 3 46 372 51 188 b 172 -18 64 -10 138 -18 b 260 0 197 -18 242 -18 b 256 208 253 67 256 140 b 264 446 256 289 257 369 b 329 272 288 388 306 329 b 456 -3 367 179 414 89 b 461 -7 457 -4 458 -6 z m 628 7 b 589 0 614 6 601 0 b 465 7 540 0 526 7 b 342 278 425 97 379 186 b 269 471 315 340 296 407 b 263 475 267 472 264 474 l 261 475 b 246 392 249 475 246 429 b 247 351 246 372 247 356 b 240 114 246 272 240 193 b 244 4 240 78 242 40 b 201 0 231 0 215 4 b 65 8 144 0 128 8 b 60 557 65 190 60 374 b 74 967 60 693 63 831 b 88 968 78 968 82 968 l 99 968 b 114 971 104 968 110 968 l 138 971 b 238 960 150 964 210 967 b 310 806 244 924 294 842 b 351 724 313 782 342 742 b 433 569 364 697 413 569 l 435 569 b 451 638 450 585 451 611 b 444 882 451 722 444 800 b 449 972 444 913 446 942 b 540 979 479 976 510 979 b 626 972 569 979 597 976 b 628 7 626 649 628 329 z "},"Ñ":{"ha":717,"x_min":0,"x_max":0,"o":"m 244 1038 l 256 1038 b 249 1081 256 1053 249 1069 b 260 1114 249 1092 251 1097 l 267 1121 b 322 1132 278 1126 304 1132 b 361 1106 339 1132 354 1118 b 486 1031 374 1056 432 1031 b 650 1233 592 1031 650 1138 b 647 1271 650 1244 647 1260 b 579 1272 624 1272 599 1272 b 518 1263 557 1272 535 1271 b 449 1179 510 1228 486 1186 b 272 1285 383 1192 378 1285 b 71 1039 157 1285 97 1138 b 244 1038 126 1042 189 1042 z m 271 1269 b 357 1243 300 1269 332 1263 b 449 1165 389 1218 410 1165 b 531 1254 468 1165 519 1197 b 635 1258 533 1256 606 1256 b 638 1229 636 1249 638 1239 b 483 1044 638 1140 578 1044 b 318 1150 381 1044 376 1150 b 232 1076 282 1150 232 1125 b 235 1053 232 1068 233 1060 l 92 1056 b 271 1269 119 1140 158 1269 z m 664 742 b 665 975 664 819 665 897 b 563 988 654 986 603 988 b 435 969 539 988 461 996 b 428 847 435 929 428 889 b 438 726 428 807 438 767 b 436 676 438 710 438 693 b 333 846 399 731 367 790 l 336 840 b 276 953 317 876 290 913 l 276 956 b 125 983 269 969 167 983 b 60 967 100 983 74 981 b 44 564 49 833 44 699 b 51 1 44 376 51 189 l 58 -7 b 247 -14 121 -7 183 -14 b 288 0 260 -14 288 -12 b 283 143 285 47 283 96 b 292 375 283 221 286 297 b 449 -10 338 246 386 113 b 454 -14 450 -11 451 -12 b 506 -11 471 -14 489 -11 b 607 -19 517 -11 564 -19 b 667 1 633 -19 658 -15 l 667 4 b 669 83 668 29 669 57 b 664 742 669 314 664 522 z m 653 6 l 650 3 b 606 -6 636 -4 621 -6 b 489 6 568 -6 526 6 b 457 1 478 6 467 4 b 294 411 393 133 343 272 b 281 410 290 410 285 410 b 269 128 274 317 269 222 b 272 3 269 86 269 44 b 229 -3 258 -1 243 -3 b 97 10 185 -3 139 10 b 65 7 86 10 75 7 b 58 568 65 193 58 381 b 74 961 58 699 61 831 b 129 969 92 967 110 969 b 263 950 174 969 219 957 b 308 864 265 917 294 886 b 433 656 349 793 386 722 l 446 656 b 453 713 451 674 453 693 b 440 875 453 769 440 821 b 449 965 440 906 443 936 b 521 975 471 972 496 975 b 651 968 565 975 613 968 l 651 278 b 654 83 651 219 654 150 b 653 6 654 56 654 31 z "},"O":{"ha":671,"x_min":0,"x_max":0,"o":"m 639 676 b 614 825 639 729 635 776 b 563 906 601 853 586 885 b 324 981 507 953 411 981 b 88 879 226 981 133 949 b 32 619 38 806 32 706 b 39 340 32 522 33 433 b 297 -29 46 189 13 -29 b 574 76 406 -29 525 8 b 636 554 651 185 636 440 b 639 676 636 597 639 639 z m 336 967 b 601 819 471 967 557 919 b 626 675 621 774 626 725 b 622 540 626 629 622 583 b 624 421 622 507 624 465 b 563 85 624 301 615 158 b 296 -14 517 21 401 -14 b 82 96 189 -14 115 17 b 53 342 46 169 57 263 b 46 628 47 438 46 525 b 99 872 46 711 53 804 b 336 967 140 936 239 967 z m 463 578 l 463 581 b 342 786 446 667 456 786 b 181 521 214 786 181 632 b 183 442 181 494 182 467 b 328 168 192 319 189 168 b 460 282 386 168 460 207 b 464 501 460 357 464 428 b 463 578 464 526 463 551 z m 422 725 b 449 576 451 679 439 626 b 450 501 449 551 450 526 b 446 283 450 429 446 358 b 335 182 446 213 386 182 b 232 224 297 182 258 197 b 206 372 208 269 210 322 b 194 526 201 422 194 475 b 338 774 194 638 229 774 b 422 725 369 774 400 758 z "},"Ó":{"ha":674,"x_min":0,"x_max":0,"o":"m 564 1172 l 564 1181 b 458 1279 532 1213 496 1260 b 226 1053 374 1210 308 1122 l 226 1042 b 338 1029 235 1033 289 1029 b 424 1039 389 1029 417 1032 b 564 1172 440 1075 529 1138 z m 549 1176 b 411 1047 510 1139 429 1082 b 344 1042 390 1043 368 1042 b 244 1050 310 1042 275 1044 b 463 1264 319 1119 383 1200 b 549 1176 490 1235 519 1206 z m 640 683 b 615 832 640 736 636 783 b 564 913 603 860 588 892 b 325 988 508 960 413 988 b 89 886 228 988 135 956 b 33 626 39 813 33 713 b 40 347 33 529 35 440 b 299 -22 47 196 14 -22 b 575 83 407 -22 526 15 b 638 561 653 192 638 447 b 640 683 638 604 640 646 z m 338 974 b 603 826 472 974 558 926 b 628 682 622 781 628 732 b 624 547 628 636 624 590 b 625 428 624 514 625 472 b 564 92 625 308 617 165 b 299 -8 518 28 403 -8 b 83 103 192 -8 117 24 b 54 349 47 176 58 269 b 47 635 49 444 47 532 b 100 879 47 718 54 811 b 338 974 142 943 240 974 z m 464 585 l 464 588 b 343 793 447 674 457 793 b 182 528 215 793 182 639 b 185 449 182 501 183 474 b 329 175 193 326 190 175 b 461 289 388 175 461 214 b 465 508 461 364 465 435 b 464 585 465 533 464 558 z m 424 732 b 450 583 453 686 440 633 b 451 508 450 558 451 533 b 447 290 451 436 447 365 b 336 189 447 219 388 189 b 233 231 299 189 260 204 b 207 379 210 276 211 329 b 196 533 203 429 196 482 b 339 781 196 644 231 781 b 424 732 371 781 401 765 z "},"Ô":{"ha":672,"x_min":0,"x_max":0,"o":"m 569 1043 l 575 1054 l 349 1279 b 339 1281 344 1279 342 1279 b 114 1054 260 1207 179 1139 l 118 1042 b 218 1033 149 1036 189 1033 b 339 1103 299 1033 283 1063 l 350 1092 b 458 1031 368 1056 396 1031 b 569 1043 515 1031 533 1043 z m 553 1056 b 493 1047 532 1054 513 1049 b 410 1050 465 1047 438 1049 l 397 1058 b 343 1117 379 1076 364 1103 l 335 1117 b 226 1049 293 1089 300 1049 b 131 1054 189 1049 142 1053 b 343 1265 193 1133 269 1196 b 553 1056 413 1196 482 1125 z m 639 683 b 614 832 639 736 635 783 b 563 913 601 860 586 892 b 324 988 507 960 411 988 b 88 886 226 988 133 956 b 32 626 38 813 32 713 b 39 347 32 529 33 440 b 297 -22 46 196 13 -22 b 574 83 406 -22 525 15 b 636 561 651 192 636 447 b 639 683 636 604 639 646 z m 336 974 b 601 826 471 974 557 926 b 626 682 621 781 626 732 b 622 547 626 636 622 590 b 624 428 622 514 624 472 b 563 92 624 308 615 165 b 297 -8 517 28 401 -8 b 82 103 190 -8 115 24 b 53 349 46 176 57 269 b 46 635 47 444 46 532 b 99 879 46 718 53 811 b 336 974 140 943 239 974 z m 463 585 l 463 588 b 342 793 446 674 456 793 b 181 528 214 793 181 639 b 183 449 181 501 182 474 b 328 175 192 326 189 175 b 460 289 386 175 460 214 b 464 508 460 364 464 435 b 463 585 464 533 463 558 z m 422 732 b 449 583 451 686 439 633 b 450 508 449 558 450 533 b 446 290 450 436 446 365 b 335 189 446 219 386 189 b 232 231 297 189 258 204 b 206 379 208 276 210 329 b 194 533 201 429 194 482 b 338 781 194 644 229 781 b 422 732 369 781 400 765 z "},"Ö":{"ha":672,"x_min":0,"x_max":0,"o":"m 147 1047 l 151 1047 b 289 1046 197 1047 243 1046 b 304 1193 306 1081 296 1150 b 224 1214 296 1210 260 1214 b 143 1201 192 1214 160 1208 l 139 1193 b 132 1100 139 1167 132 1132 b 147 1047 132 1081 133 1054 z m 389 1047 l 393 1047 b 531 1046 439 1047 485 1046 b 546 1193 547 1081 538 1150 b 465 1214 538 1210 501 1214 b 385 1201 433 1214 401 1208 l 381 1193 b 374 1100 381 1167 374 1132 b 389 1047 374 1081 375 1054 z m 282 1060 b 151 1061 238 1060 194 1061 b 146 1097 147 1071 146 1083 b 153 1190 146 1128 153 1164 b 236 1200 175 1194 207 1200 b 289 1192 256 1200 274 1197 b 282 1060 282 1149 282 1101 z m 524 1060 b 393 1061 479 1060 436 1061 b 388 1097 389 1071 388 1083 b 394 1190 388 1128 394 1164 b 478 1200 417 1194 449 1200 b 531 1192 497 1200 515 1197 b 524 1060 524 1149 524 1101 z m 639 683 b 614 832 639 736 635 783 b 563 913 601 860 586 892 b 324 988 507 960 411 988 b 88 886 226 988 133 956 b 32 626 38 813 32 713 b 39 347 32 529 33 440 b 297 -22 46 196 13 -22 b 574 83 406 -22 525 15 b 636 561 651 192 636 447 b 639 683 636 604 639 646 z m 336 974 b 601 826 471 974 557 926 b 626 682 621 781 626 732 b 622 547 626 636 622 590 b 624 428 622 514 624 472 b 563 92 624 308 615 165 b 297 -8 517 28 401 -8 b 82 103 190 -8 115 24 b 53 349 46 176 57 269 b 46 635 47 444 46 532 b 99 879 46 718 53 811 b 336 974 140 943 239 974 z m 463 585 l 463 588 b 342 793 446 674 456 793 b 181 528 214 793 181 639 b 183 449 181 501 182 474 b 328 175 192 326 189 175 b 460 289 386 175 460 214 b 464 508 460 364 464 435 b 463 585 464 533 463 558 z m 422 732 b 449 583 451 686 439 633 b 450 508 449 558 450 533 b 446 290 450 436 446 365 b 335 189 446 219 386 189 b 232 231 297 189 258 204 b 206 379 208 276 210 329 b 194 533 201 429 194 482 b 338 781 194 644 229 781 b 422 732 369 781 400 765 z "},"Ò":{"ha":674,"x_min":0,"x_max":0,"o":"m 192 1279 l 183 1279 b 88 1182 151 1246 119 1214 l 88 1171 b 228 1039 88 1150 207 1078 b 311 1029 228 1031 269 1029 b 424 1042 356 1029 406 1032 l 424 1053 b 365 1111 401 1069 383 1092 b 192 1279 311 1169 256 1232 z m 188 1264 b 356 1101 249 1218 303 1158 b 404 1050 371 1083 386 1065 b 306 1042 382 1044 340 1042 b 238 1047 275 1042 247 1044 b 100 1176 222 1078 131 1149 z m 640 683 b 615 832 640 736 636 783 b 564 913 603 860 588 892 b 325 988 508 960 413 988 b 89 886 228 988 135 956 b 33 626 39 813 33 713 b 40 347 33 529 35 440 b 299 -22 47 196 14 -22 b 575 83 407 -22 526 15 b 638 561 653 192 638 447 b 640 683 638 604 640 646 z m 338 974 b 603 826 472 974 558 926 b 628 682 622 781 628 732 b 624 547 628 636 624 590 b 625 428 624 514 625 472 b 564 92 625 308 617 165 b 299 -8 518 28 403 -8 b 83 103 192 -8 117 24 b 54 349 47 176 58 269 b 47 635 49 444 47 532 b 100 879 47 718 54 811 b 338 974 142 943 240 974 z m 464 585 l 464 588 b 343 793 447 674 457 793 b 182 528 215 793 182 639 b 185 449 182 501 183 474 b 329 175 193 326 190 175 b 461 289 388 175 461 214 b 465 508 461 364 465 435 b 464 585 465 533 464 558 z m 424 732 b 450 583 453 686 440 633 b 451 508 450 558 451 533 b 447 290 451 436 447 365 b 336 189 447 219 388 189 b 233 231 299 189 260 204 b 207 379 210 276 211 329 b 196 533 203 429 196 482 b 339 781 196 644 231 781 b 424 732 371 781 401 765 z "},"Ø":{"ha":665,"x_min":0,"x_max":0,"o":"m 631 390 b 633 603 631 461 631 532 b 636 674 635 626 636 650 b 571 899 636 754 621 835 b 569 907 571 901 569 904 b 596 994 569 936 596 964 b 535 1013 579 1010 556 1013 b 461 1008 510 1013 486 1008 b 396 1011 439 1008 417 1011 b 382 979 383 1011 382 979 b 304 985 357 983 329 985 b 35 564 28 985 42 750 b 32 471 33 533 32 501 b 76 94 32 344 44 219 b 38 -26 68 94 38 -7 l 40 -33 l 42 -35 b 47 -36 43 -35 46 -35 b 82 -35 58 -35 71 -35 b 157 -39 106 -35 115 -39 b 231 -32 183 -39 217 -36 b 297 -4 228 -18 272 -6 b 364 -6 319 -3 342 -6 b 631 390 608 -6 631 213 z m 622 674 b 619 604 622 650 621 628 b 617 403 618 533 617 542 b 444 18 617 256 607 56 b 247 4 381 3 311 4 b 174 -24 222 -22 203 -24 b 92 -18 144 -24 121 -18 b 51 -21 78 -18 64 -19 b 89 93 54 15 89 64 l 89 99 b 76 156 89 110 79 143 b 47 399 60 229 47 313 l 47 507 b 56 676 47 564 54 619 b 307 971 60 813 78 971 b 386 967 333 971 360 969 b 397 992 393 974 397 971 b 400 997 397 993 399 996 b 436 992 411 993 424 992 b 532 1000 468 992 501 1000 b 582 990 550 1000 567 999 b 556 910 582 961 556 938 b 600 819 556 879 589 850 b 622 674 617 771 622 724 z m 190 385 l 203 385 b 307 697 235 490 272 593 b 332 782 313 714 332 765 b 325 789 329 785 326 786 b 254 763 297 789 275 778 b 203 594 199 721 208 657 b 182 425 197 538 182 482 b 190 385 182 410 185 396 z m 196 413 b 206 504 196 442 206 478 b 263 751 231 582 189 696 b 317 775 278 763 296 775 b 196 413 279 654 235 533 z m 454 549 l 442 551 b 311 183 393 432 353 306 b 319 174 314 181 318 174 b 439 238 358 174 418 206 b 463 365 457 265 463 314 b 454 549 463 431 454 503 z m 449 376 b 446 324 449 358 449 342 b 424 242 443 297 443 263 b 328 189 397 213 364 199 b 440 513 363 297 399 406 b 449 376 443 467 449 421 z "},"Õ":{"ha":672,"x_min":0,"x_max":0,"o":"m 217 1025 l 224 1032 b 221 1068 224 1047 221 1057 b 232 1101 221 1079 224 1085 l 239 1108 b 294 1119 250 1114 276 1119 b 333 1093 311 1119 326 1106 b 458 1018 346 1043 404 1018 b 622 1221 564 1018 622 1125 b 618 1256 622 1232 618 1244 l 617 1257 b 611 1260 614 1258 613 1258 b 590 1258 604 1260 597 1258 b 551 1260 578 1258 565 1260 b 490 1250 529 1260 507 1258 b 421 1167 482 1215 458 1174 b 244 1272 356 1179 350 1272 b 47 1038 135 1272 72 1136 l 54 1029 b 149 1031 86 1029 117 1031 b 217 1025 169 1024 194 1029 z m 207 1040 b 156 1043 189 1043 172 1043 b 126 1047 146 1046 136 1047 b 64 1043 106 1047 83 1043 b 243 1257 92 1128 131 1257 b 329 1231 272 1257 304 1250 b 421 1153 361 1206 382 1153 b 503 1242 440 1153 492 1185 b 607 1246 506 1243 578 1243 b 610 1217 608 1236 610 1226 b 456 1032 610 1128 550 1032 b 290 1138 353 1032 349 1138 b 204 1064 254 1138 204 1113 b 207 1040 204 1056 206 1047 z m 639 683 b 614 832 639 736 635 783 b 563 913 601 860 586 892 b 324 988 507 960 411 988 b 88 886 226 988 133 956 b 32 626 38 813 32 713 b 39 347 32 529 33 440 b 297 -22 46 196 13 -22 b 574 83 406 -22 525 15 b 636 561 651 192 636 447 b 639 683 636 604 639 646 z m 336 974 b 601 826 471 974 557 926 b 626 682 621 781 626 732 b 622 547 626 636 622 590 b 624 428 622 514 624 472 b 563 92 624 308 615 165 b 297 -8 517 28 401 -8 b 82 103 190 -8 115 24 b 53 349 46 176 57 269 b 46 635 47 444 46 532 b 99 879 46 718 53 811 b 336 974 140 943 239 974 z m 463 585 l 463 588 b 342 793 446 674 456 793 b 181 528 214 793 181 639 b 183 449 181 501 182 474 b 328 175 192 326 189 175 b 460 289 386 175 460 214 b 464 508 460 364 464 435 b 463 585 464 533 463 558 z m 422 732 b 449 583 451 686 439 633 b 450 508 449 558 450 533 b 446 290 450 436 446 365 b 335 189 446 219 386 189 b 232 231 297 189 258 204 b 206 379 208 276 210 329 b 194 533 201 429 194 482 b 338 781 194 644 229 781 b 422 732 369 781 400 765 z "},"Œ":{"ha":1153,"x_min":0,"x_max":0,"o":"m 1138 114 b 1135 188 1138 139 1136 164 l 1135 190 b 1129 197 1133 193 1131 194 b 774 204 1013 206 892 204 b 760 297 764 222 760 261 b 769 372 760 328 763 357 b 803 369 778 371 790 369 b 939 371 844 369 894 376 l 938 576 b 936 578 936 576 936 576 l 936 579 b 897 589 931 588 914 589 b 815 588 869 589 844 588 b 764 592 799 588 781 589 b 754 651 757 610 754 631 b 760 740 754 681 758 713 b 963 749 826 750 894 749 b 1018 747 974 749 994 747 b 1129 765 1065 747 1122 750 b 1136 914 1136 813 1136 858 b 1126 976 1136 938 1133 961 b 622 971 958 976 790 971 b 311 976 519 971 408 976 b 58 792 196 976 90 904 b 39 578 39 722 43 649 b 26 353 35 513 26 433 b 326 -29 26 163 71 -29 b 604 -10 431 -29 522 -10 b 1115 -3 775 -10 944 -3 b 1138 114 1139 21 1138 81 z m 1122 117 b 1110 11 1122 81 1119 46 b 604 4 940 11 772 10 b 325 -14 522 1 432 -14 b 43 351 78 -14 43 164 b 54 604 43 435 50 519 b 200 940 61 740 58 867 b 308 964 235 958 271 964 b 621 957 403 964 515 957 b 1119 963 788 957 954 963 b 1121 853 1119 928 1121 890 b 1117 771 1121 825 1119 797 b 946 760 1060 763 1003 760 b 815 761 901 760 863 761 b 746 744 781 761 754 760 b 740 651 746 715 740 682 b 760 579 740 631 742 588 b 811 575 776 576 793 575 b 878 576 833 575 856 576 b 924 574 893 576 908 576 b 928 511 926 553 928 532 b 924 386 928 469 924 426 b 822 386 892 388 858 390 l 767 386 b 747 306 753 386 747 342 b 769 190 747 257 754 197 b 1121 183 886 190 1004 192 b 1122 117 1122 161 1122 139 z m 471 694 l 469 696 b 426 761 456 719 450 743 b 338 793 399 782 367 793 b 210 632 267 793 210 733 b 214 528 210 596 214 560 b 208 381 214 481 208 429 b 325 161 208 297 238 161 b 442 250 369 161 422 206 b 479 493 474 325 474 414 b 483 588 482 524 483 556 b 471 694 483 624 481 660 z m 458 689 l 457 690 b 469 556 465 660 469 611 b 331 178 469 340 432 178 b 225 390 254 178 225 282 b 228 524 225 435 228 479 b 224 629 228 558 224 593 b 340 779 224 721 268 779 b 458 689 401 779 426 740 z "},"P":{"ha":690,"x_min":0,"x_max":0,"o":"m 681 663 b 679 681 681 669 679 676 b 261 999 679 908 450 999 b 51 972 188 999 115 988 l 44 964 b 51 710 50 879 51 794 b 46 275 51 564 46 419 b 54 7 46 185 49 96 b 154 -8 67 -6 110 -8 b 296 7 207 -8 265 -3 l 294 7 b 300 10 296 8 299 8 l 301 11 b 299 10 300 11 300 11 l 304 15 b 299 357 304 129 299 243 b 344 353 314 354 329 353 b 681 663 507 353 681 503 z m 250 982 b 665 682 440 982 665 910 l 665 656 b 663 632 663 650 664 638 b 344 367 638 486 493 367 b 293 372 328 367 310 368 l 285 364 b 290 19 285 254 290 111 b 150 7 258 11 200 7 b 67 14 117 7 86 8 b 60 272 61 100 60 186 b 64 714 60 419 64 567 b 58 960 64 796 63 878 b 250 982 115 974 182 982 z m 479 653 b 433 746 479 688 461 726 b 294 785 392 778 343 785 b 251 778 279 785 265 778 l 250 776 b 243 724 244 765 243 744 b 279 556 243 683 235 556 b 479 653 351 556 479 557 z m 328 768 b 425 735 360 768 388 763 b 465 671 450 717 457 699 b 338 571 465 590 407 574 b 308 572 328 571 318 572 b 288 569 301 572 294 571 l 272 569 b 260 681 263 599 260 639 b 261 765 260 708 261 738 b 328 768 286 765 307 768 z "},"Þ":{"ha":664,"x_min":0,"x_max":0,"o":"m 44 -10 l 72 -10 b 186 -15 104 -10 149 -15 b 258 8 224 -15 249 -11 b 253 33 254 15 253 24 b 261 243 253 106 260 172 b 417 176 308 200 364 176 b 643 544 561 176 643 371 b 608 732 643 608 632 672 b 404 888 582 797 488 888 b 260 842 374 888 290 885 l 257 1010 b 250 1017 254 1013 251 1014 l 61 1021 b 47 897 50 1014 47 956 b 54 329 47 694 54 522 b 44 -10 54 217 49 101 z m 260 264 l 247 258 b 239 40 247 179 239 115 b 243 8 239 29 240 18 b 186 -3 226 0 207 -3 b 58 4 140 -3 96 4 b 68 325 64 111 68 217 b 63 782 68 478 63 631 b 68 1007 63 857 64 932 l 243 1003 l 246 815 l 260 811 b 379 871 279 871 331 858 b 628 549 560 871 628 713 b 425 192 628 360 553 192 b 260 264 364 192 301 222 z m 474 535 b 464 606 474 556 471 583 b 318 699 450 674 378 699 b 246 610 267 699 246 676 b 249 549 246 583 249 558 b 247 489 249 533 247 511 b 342 372 247 399 285 372 b 474 535 428 372 474 451 z m 313 685 b 450 601 367 685 438 667 b 458 546 456 585 451 560 b 342 386 458 471 429 386 b 261 490 271 386 261 438 b 263 547 261 510 263 529 b 260 607 263 564 260 586 b 313 685 260 644 263 685 z "},"Q":{"ha":688,"x_min":0,"x_max":0,"o":"m 603 108 b 640 226 618 142 639 186 b 650 346 649 267 647 306 b 656 506 654 399 656 453 b 515 972 656 654 656 888 b 368 999 472 997 408 999 b 68 867 256 999 121 976 b 35 531 32 793 35 608 b 31 363 35 482 31 424 b 74 129 31 278 39 193 b 331 -17 124 38 228 -17 b 469 22 375 -17 436 -7 b 529 -17 486 1 508 -17 b 629 65 564 -17 629 26 b 603 108 629 83 613 92 z m 626 231 l 626 228 b 589 111 626 190 603 144 l 589 106 b 610 79 593 96 601 86 l 614 71 b 521 -4 614 39 564 -4 b 468 39 501 7 481 32 b 332 -1 433 4 374 -1 b 85 135 235 -1 132 47 b 47 339 51 196 47 269 b 49 426 47 369 49 399 b 47 564 49 460 47 510 b 81 861 47 671 53 794 b 365 985 125 965 261 985 b 561 911 428 985 507 985 b 642 547 633 811 642 668 b 636 347 642 481 640 414 b 626 231 633 307 635 269 z m 390 310 b 403 315 394 311 399 314 l 413 315 b 460 247 433 294 440 267 b 471 253 463 250 467 251 b 469 261 471 254 469 258 b 488 426 469 297 488 399 b 483 546 488 476 483 503 b 318 794 483 681 481 794 b 201 518 219 794 201 714 b 206 454 201 496 206 474 b 200 382 197 431 200 408 b 358 151 200 281 208 151 b 379 165 368 151 374 153 b 321 254 356 189 321 217 b 390 310 331 272 349 268 z m 460 268 b 408 329 446 288 438 329 b 363 303 386 329 378 314 b 306 250 339 286 306 279 b 358 167 306 219 343 182 b 215 350 232 167 215 254 b 222 499 215 401 222 450 b 217 581 222 526 217 542 b 329 781 217 725 232 781 b 471 483 479 781 471 651 b 468 382 471 436 468 403 b 469 358 468 374 469 364 b 460 268 461 333 460 294 z "},"R":{"ha":719,"x_min":0,"x_max":0,"o":"m 718 8 b 725 3 721 7 722 4 b 479 418 668 154 561 279 b 703 699 622 426 703 565 b 308 1006 703 917 500 1006 b 46 978 217 1006 124 992 l 39 969 b 47 743 50 896 47 815 b 54 78 47 521 54 300 b 50 1 54 51 54 26 b 51 4 50 1 51 3 l 56 -7 b 171 -10 92 -7 131 -10 b 304 15 204 -10 292 -10 b 289 240 296 71 289 163 b 294 335 289 275 290 308 b 390 188 328 285 361 240 b 481 -1 424 125 449 61 b 486 -6 482 -3 483 -4 b 718 -3 563 -6 640 -3 z m 707 11 b 490 8 635 11 563 8 b 403 193 460 69 433 132 b 296 358 372 253 332 303 b 283 356 292 357 288 357 b 275 247 278 328 275 289 b 290 19 275 168 283 76 b 178 4 256 7 217 4 b 65 7 139 4 100 7 b 69 67 68 26 69 46 b 57 933 69 356 57 643 b 54 965 57 944 56 954 b 233 986 114 976 174 982 l 231 986 b 322 990 261 988 292 990 b 689 697 478 990 689 928 b 469 432 689 569 608 432 l 463 424 b 542 297 469 385 518 332 b 707 11 603 204 665 113 z m 246 783 l 243 756 b 242 731 243 747 242 739 b 244 707 242 722 244 714 b 240 647 244 692 240 668 b 256 599 240 628 244 610 b 356 592 281 599 319 592 b 463 696 429 592 463 642 b 344 806 463 756 418 806 b 246 783 310 806 275 796 z m 346 790 b 406 776 367 790 388 786 b 450 692 435 758 450 725 b 340 604 450 640 422 604 b 261 613 311 604 281 608 b 257 656 258 626 257 628 b 258 724 257 675 258 701 b 256 763 258 743 257 760 l 256 771 b 346 790 282 782 314 790 z "},"S":{"ha":674,"x_min":0,"x_max":0,"o":"m 525 640 b 650 658 557 640 632 640 b 656 731 653 683 656 707 b 350 979 656 900 499 979 b 24 654 149 979 24 833 b 190 413 24 564 97 435 b 411 278 268 393 411 388 b 331 206 411 229 372 206 b 236 288 286 206 240 232 b 63 297 222 301 86 297 b 10 261 31 297 10 299 b 343 -15 10 85 182 -15 b 649 286 504 -15 649 89 b 381 600 649 428 551 554 b 264 675 340 611 264 604 b 342 750 264 728 307 750 b 428 675 383 750 428 721 b 426 661 428 671 428 667 l 431 653 b 525 640 461 644 493 640 z m 528 653 b 442 665 499 653 469 657 l 443 679 b 340 763 443 731 390 763 b 250 674 297 763 250 736 b 444 564 250 578 386 592 b 635 285 564 507 635 403 b 343 0 635 97 496 0 b 24 281 172 0 24 103 b 79 283 42 283 61 283 b 222 281 128 283 175 281 b 329 192 226 221 279 192 b 426 278 378 192 426 221 b 192 426 426 404 275 406 b 38 663 99 450 38 579 b 346 967 38 828 164 967 b 643 733 488 967 643 888 b 636 664 643 711 640 688 b 528 653 600 658 564 653 z "},"Š":{"ha":674,"x_min":0,"x_max":0,"o":"m 342 1033 b 351 1035 344 1035 347 1035 b 586 1267 426 1110 511 1192 l 449 1285 b 342 1210 393 1285 378 1246 b 249 1279 303 1238 292 1282 l 108 1269 b 342 1033 174 1185 261 1106 z m 242 1265 l 256 1265 b 279 1256 260 1264 269 1265 b 339 1196 283 1246 324 1201 b 450 1265 382 1218 382 1265 b 556 1257 486 1265 519 1257 b 346 1049 485 1188 415 1118 b 135 1257 269 1115 199 1179 b 242 1265 172 1256 208 1263 z m 431 653 b 525 640 461 644 493 640 b 650 658 557 640 632 640 b 656 731 653 683 656 707 b 350 979 656 900 499 979 b 24 654 149 979 24 833 b 190 413 24 564 97 435 b 411 278 268 393 411 388 b 331 206 411 229 372 206 b 236 288 286 206 240 232 b 63 297 222 301 86 297 b 10 261 31 297 10 299 b 343 -15 10 85 182 -15 b 649 286 504 -15 649 89 b 381 600 649 428 551 554 b 264 675 340 611 264 604 b 342 750 264 728 307 750 b 428 675 383 750 428 721 b 426 661 428 671 428 667 z m 340 763 b 250 674 297 763 250 736 b 444 564 250 578 386 592 b 635 285 564 507 635 403 b 343 0 635 97 496 0 b 24 281 172 0 24 103 b 79 283 42 283 61 283 b 222 281 128 283 175 281 b 329 192 226 221 279 192 b 426 278 378 192 426 221 b 192 426 426 404 275 406 b 38 663 99 450 38 579 b 346 967 38 828 164 967 b 643 733 488 967 643 888 b 636 664 643 711 640 688 b 528 653 600 658 564 653 b 442 665 499 653 469 657 l 443 679 b 340 763 443 731 390 763 z "},"T":{"ha":615,"x_min":0,"x_max":0,"o":"m 14 985 l 7 976 l 8 976 b 6 907 4 953 6 929 l 6 839 b 4 803 6 831 4 817 b 36 746 4 772 7 746 b 104 747 58 746 76 747 b 189 729 131 747 167 740 b 193 179 194 544 193 363 b 189 21 193 126 189 74 b 200 -8 189 10 190 -3 b 264 -1 221 -3 242 -1 b 374 -6 300 -1 338 -6 b 433 8 396 -6 428 -4 b 424 578 433 197 424 388 b 426 743 424 632 426 688 b 539 749 463 743 501 749 b 594 743 558 749 576 747 b 608 833 607 768 608 801 l 608 975 b 14 985 413 993 208 985 z m 589 758 b 522 763 567 763 544 763 b 413 746 483 763 413 761 l 413 747 b 410 725 411 747 410 733 l 410 679 b 418 14 410 458 408 233 b 360 8 399 10 379 8 b 263 11 328 8 294 11 b 204 7 243 11 224 11 b 201 50 203 19 201 33 b 207 181 201 94 207 147 b 203 564 207 308 203 436 b 206 726 203 607 206 694 b 119 760 206 751 146 760 b 64 758 101 760 82 758 b 25 763 50 758 36 760 b 15 864 18 776 15 819 b 21 971 15 911 18 960 b 593 958 213 971 401 976 b 594 872 594 929 594 901 b 589 758 594 835 593 796 z m 414 750 l 417 754 l 415 753 b 414 750 414 751 414 750 z "},"U":{"ha":701,"x_min":0,"x_max":0,"o":"m 658 929 l 656 935 b 579 951 631 947 604 951 b 442 935 540 951 469 949 b 435 376 433 749 435 563 b 353 201 435 236 418 201 b 261 336 271 201 261 278 b 263 383 261 354 263 372 b 257 610 263 458 257 535 b 260 938 257 719 260 828 b 169 956 250 956 193 956 b 51 942 138 956 57 957 b 42 253 50 749 42 481 b 56 142 42 211 44 171 b 356 -31 100 24 235 -31 b 601 90 443 -31 533 -8 b 657 389 654 167 653 306 b 664 671 661 483 664 576 b 658 929 664 757 661 843 z m 650 669 b 643 390 650 576 647 483 b 368 -17 636 240 646 -17 b 68 147 243 -17 99 40 b 56 250 58 179 56 215 b 64 938 56 482 64 704 b 147 939 92 938 119 939 b 246 932 181 939 213 938 b 239 664 242 843 239 754 b 244 460 239 596 240 528 b 343 186 250 360 225 186 b 446 328 425 186 439 235 b 456 926 451 528 446 726 b 578 938 496 926 538 938 b 644 924 601 938 624 933 b 650 669 647 839 650 754 z "},"Ú":{"ha":701,"x_min":0,"x_max":0,"o":"m 588 1172 l 588 1181 b 482 1279 556 1213 519 1260 b 250 1053 397 1210 332 1122 l 250 1042 b 361 1029 258 1033 313 1029 b 447 1039 413 1029 440 1032 b 588 1172 464 1075 553 1138 z m 572 1176 b 435 1047 533 1139 453 1082 b 368 1042 414 1043 392 1042 b 268 1050 333 1042 299 1044 b 486 1264 343 1119 407 1200 b 572 1176 514 1235 543 1206 z m 664 671 b 658 929 664 757 661 843 l 658 931 b 582 951 639 949 607 951 b 442 935 542 951 468 949 b 435 376 433 749 435 563 b 353 201 435 236 418 201 b 261 336 271 201 261 278 b 263 383 261 354 263 372 b 257 610 263 458 257 535 b 260 938 257 719 260 828 b 169 956 250 956 193 956 b 51 942 138 956 57 957 b 42 253 50 749 42 481 b 56 142 42 211 44 171 b 356 -31 100 24 235 -31 b 601 90 443 -31 533 -8 b 657 389 654 167 653 306 b 664 671 661 483 664 576 z m 650 669 b 643 390 650 576 647 483 b 368 -17 636 240 646 -17 b 68 147 243 -17 99 40 b 56 250 58 179 56 215 b 64 938 56 482 64 704 b 147 939 92 938 119 939 b 246 932 181 939 213 938 b 239 664 242 843 239 754 b 244 460 239 596 240 528 b 343 186 250 360 225 186 b 446 328 425 186 439 235 b 456 926 451 528 446 726 b 581 938 496 926 539 938 b 644 925 601 938 624 933 b 650 669 647 840 650 754 z "},"Û":{"ha":701,"x_min":0,"x_max":0,"o":"m 571 1043 l 576 1054 l 350 1279 b 340 1281 346 1279 343 1279 b 115 1054 261 1207 181 1139 l 119 1042 b 219 1033 150 1036 190 1033 b 340 1103 300 1033 285 1063 l 351 1092 b 460 1031 369 1056 397 1031 b 571 1043 517 1031 535 1043 z m 554 1056 b 494 1047 533 1054 514 1049 b 411 1050 467 1047 439 1049 l 399 1058 b 344 1117 381 1076 365 1103 l 336 1117 b 228 1049 294 1089 301 1049 b 132 1054 190 1049 143 1053 b 344 1265 194 1133 271 1196 b 554 1056 414 1196 483 1125 z m 664 671 b 658 929 664 757 661 843 l 658 931 b 582 951 639 949 607 951 b 442 935 542 951 468 949 b 435 376 433 749 435 563 b 353 201 435 236 418 201 b 261 336 271 201 261 278 b 263 383 261 354 263 372 b 257 610 263 458 257 535 b 260 938 257 719 260 828 b 169 956 250 956 193 956 b 51 942 138 956 57 957 b 42 253 50 749 42 481 b 56 142 42 211 44 171 b 356 -31 100 24 235 -31 b 601 90 443 -31 533 -8 b 657 389 654 167 653 306 b 664 671 661 483 664 576 z m 650 669 b 643 390 650 576 647 483 b 368 -17 636 240 646 -17 b 68 147 243 -17 99 40 b 56 250 58 179 56 215 b 64 938 56 482 64 704 b 147 939 92 938 119 939 b 246 932 181 939 213 938 b 239 664 242 843 239 754 b 244 460 239 596 240 528 b 343 186 250 360 225 186 b 446 328 425 186 439 235 b 456 926 451 528 446 726 b 581 938 496 926 539 938 b 644 925 601 938 624 933 b 650 669 647 840 650 754 z "},"Ü":{"ha":701,"x_min":0,"x_max":0,"o":"m 156 1047 l 160 1047 b 297 1046 206 1047 251 1046 b 313 1193 314 1081 304 1150 b 232 1214 304 1210 268 1214 b 151 1201 200 1214 168 1208 l 147 1193 b 140 1100 147 1167 140 1132 b 156 1047 140 1081 142 1054 z m 397 1047 l 401 1047 b 539 1046 447 1047 493 1046 b 554 1193 556 1081 546 1150 b 474 1214 546 1210 510 1214 b 393 1201 442 1214 410 1208 l 389 1193 b 382 1100 389 1167 382 1132 b 397 1047 382 1081 383 1054 z m 290 1060 b 160 1061 246 1060 203 1061 b 154 1097 156 1071 154 1083 b 161 1190 154 1128 161 1164 b 244 1200 183 1194 215 1200 b 297 1192 264 1200 282 1197 b 290 1060 290 1149 290 1101 z m 532 1060 b 401 1061 488 1060 444 1061 b 396 1097 397 1071 396 1083 b 403 1190 396 1128 403 1164 b 486 1200 425 1194 457 1200 b 539 1192 506 1200 524 1197 b 532 1060 532 1149 532 1101 z m 664 671 b 658 929 664 757 661 843 l 658 931 b 582 951 639 949 607 951 b 442 935 542 951 468 949 b 435 376 433 749 435 563 b 353 201 435 236 418 201 b 261 336 271 201 261 278 b 263 383 261 354 263 372 b 257 610 263 458 257 535 b 260 938 257 719 260 828 b 169 956 250 956 193 956 b 51 942 138 956 57 957 b 42 253 50 749 42 481 b 56 142 42 211 44 171 b 356 -31 100 24 235 -31 b 601 90 443 -31 533 -8 b 657 389 654 167 653 306 b 664 671 661 483 664 576 z m 650 669 b 643 390 650 576 647 483 b 368 -17 636 240 646 -17 b 68 147 243 -17 99 40 b 56 250 58 179 56 215 b 64 938 56 482 64 704 b 147 939 92 938 119 939 b 246 932 181 939 213 938 b 239 664 242 843 239 754 b 244 460 239 596 240 528 b 343 186 250 360 225 186 b 446 328 425 186 439 235 b 456 926 451 528 446 726 b 581 938 496 926 539 938 b 644 925 601 938 624 933 b 650 669 647 840 650 754 z "},"Ù":{"ha":701,"x_min":0,"x_max":0,"o":"m 232 1279 l 224 1279 b 128 1182 192 1246 160 1214 l 128 1171 b 268 1039 128 1150 247 1078 b 351 1029 268 1031 310 1029 b 464 1042 396 1029 446 1032 l 464 1053 b 406 1111 442 1069 424 1092 b 232 1279 351 1169 296 1232 z m 228 1264 b 396 1101 289 1218 343 1158 b 444 1050 411 1083 426 1065 b 346 1042 422 1044 381 1042 b 278 1047 315 1042 288 1044 b 140 1176 263 1078 171 1149 z m 664 671 b 658 929 664 757 661 843 l 658 931 b 582 951 639 949 607 951 b 442 935 542 951 468 949 b 435 376 433 749 435 563 b 353 201 435 236 418 201 b 261 336 271 201 261 278 b 263 383 261 354 263 372 b 257 610 263 458 257 535 b 260 938 257 719 260 828 b 169 956 250 956 193 956 b 51 942 138 956 57 957 b 42 253 50 749 42 481 b 56 142 42 211 44 171 b 356 -31 100 24 235 -31 b 601 90 443 -31 533 -8 b 657 389 654 167 653 306 b 664 671 661 483 664 576 z m 650 669 b 643 390 650 576 647 483 b 368 -17 636 240 646 -17 b 68 147 243 -17 99 40 b 56 250 58 179 56 215 b 64 938 56 482 64 704 b 147 939 92 938 119 939 b 246 932 181 939 213 938 b 239 664 242 843 239 754 b 244 460 239 596 240 528 b 343 186 250 360 225 186 b 446 328 425 186 439 235 b 456 926 451 528 446 726 b 581 938 496 926 539 938 b 644 925 601 938 624 933 b 650 669 647 840 650 754 z "},"V":{"ha":611,"x_min":0,"x_max":0,"o":"m 619 957 b 511 965 588 965 539 965 b 460 964 494 965 478 964 b 419 969 446 964 432 965 l 415 969 b 413 968 414 968 414 968 l 408 960 l 408 961 b 293 339 394 961 335 538 b 236 853 250 506 236 685 l 236 888 b 132 975 236 963 238 975 b 15 947 75 975 35 967 b 19 896 17 939 18 908 l 28 800 b 178 6 51 568 104 264 b 303 -11 204 -21 281 -11 b 394 -1 338 -11 376 -10 b 625 947 486 311 563 629 z m 382 8 b 264 1 346 8 304 1 b 190 13 238 1 213 4 b 29 944 104 317 56 629 b 131 961 46 957 89 961 b 214 956 165 961 199 958 b 222 794 225 906 222 849 b 286 308 222 635 247 465 b 300 307 290 308 296 308 b 375 701 332 438 351 569 b 421 954 390 786 397 872 b 485 947 442 949 464 947 b 542 949 504 947 522 949 b 610 944 558 943 581 944 b 382 8 549 629 472 315 z "},"W":{"ha":646,"x_min":0,"x_max":0,"o":"m 625 971 b 563 979 614 982 572 979 b 503 981 544 979 524 981 b 424 971 475 981 447 979 l 419 963 l 419 964 b 414 899 418 964 415 915 l 410 794 b 397 406 404 664 404 535 b 321 649 372 485 361 626 l 319 647 b 260 419 297 601 279 485 b 240 629 244 488 240 558 b 244 881 240 711 244 796 b 231 976 244 914 243 950 b 89 979 183 976 138 979 b 25 965 65 979 38 978 b 126 6 25 658 81 322 b 133 0 129 4 131 1 l 139 0 b 142 0 142 -6 142 -3 b 213 -4 157 -1 186 -4 b 261 6 235 -4 254 -1 b 331 229 304 57 288 174 b 414 -3 354 185 378 -3 b 485 -7 431 -3 458 -7 b 535 7 507 -7 522 -6 b 626 967 563 328 599 646 z m 522 13 b 485 7 513 8 499 7 b 417 11 458 7 431 11 b 332 247 382 46 376 203 l 331 247 b 251 15 292 247 272 51 b 208 8 238 10 224 8 b 139 14 186 8 163 13 b 39 961 93 328 49 642 b 107 965 61 964 85 965 b 225 963 147 965 185 963 b 231 817 229 914 231 865 b 229 639 231 757 229 699 b 253 389 229 556 233 471 b 267 388 257 389 263 389 b 326 625 283 467 304 547 b 396 369 361 544 361 450 b 408 372 400 369 404 371 b 433 958 431 567 411 764 b 547 965 471 963 508 965 b 611 963 568 965 590 965 b 522 13 585 644 550 329 z "},"X":{"ha":606,"x_min":0,"x_max":0,"o":"m 617 967 l 617 969 l 618 972 b 585 981 611 979 599 981 b 550 979 572 981 558 979 b 476 981 532 979 504 981 b 390 965 440 981 403 978 l 390 967 b 301 665 357 867 338 764 b 235 896 275 740 258 819 b 156 974 222 933 235 974 b -7 954 100 974 0 968 b 150 482 56 800 113 644 b 6 14 113 322 47 172 l 10 6 b 135 -11 35 -6 89 -11 b 200 -4 161 -11 186 -8 l 201 -4 b 208 0 203 -3 206 -1 b 306 306 256 96 263 208 b 368 81 339 235 347 153 b 399 1 372 67 385 10 b 500 -7 413 -8 457 -7 b 596 6 544 -7 588 -6 b 503 322 569 111 533 217 b 467 474 489 369 467 424 b 493 597 467 515 482 557 b 617 967 525 724 575 844 z m 600 965 b 453 475 547 807 468 639 b 489 318 453 429 475 364 b 581 10 519 214 553 113 b 479 6 547 8 514 6 b 407 13 454 6 431 7 b 344 232 374 79 363 158 b 311 325 338 258 332 304 b 300 324 307 325 303 325 b 197 10 249 225 244 108 b 96 4 165 8 129 4 b 21 17 69 4 43 7 b 164 479 63 172 132 321 b 135 606 164 504 143 576 b 8 950 101 722 56 838 b 196 956 72 954 133 956 l 203 953 l 203 951 b 251 790 217 897 236 844 b 296 646 265 743 272 690 l 308 646 b 403 960 357 743 369 857 b 600 965 467 967 535 965 z "},"Y":{"ha":604,"x_min":0,"x_max":0,"o":"m 224 -3 b 632 958 336 328 521 628 l 632 963 b 553 974 606 965 569 974 b 421 958 507 974 431 968 b 314 669 375 867 360 761 b 214 961 269 760 233 863 b 211 964 213 961 211 963 b 143 978 189 975 167 978 b 15 960 107 978 29 974 b 138 636 42 849 92 740 b 190 481 154 596 190 519 b 6 -11 125 319 56 156 l 60 -11 b 206 -6 106 -11 182 -6 b 217 -7 210 -7 211 -7 b 224 -3 218 -6 221 -4 z m 615 956 b 211 7 506 629 324 332 b 172 11 206 10 192 11 b 29 4 125 11 50 4 b 25 6 28 4 26 6 b 185 428 69 149 128 290 b 204 483 193 447 204 463 b 160 618 204 521 174 585 b 31 954 114 728 58 838 b 144 963 68 954 107 963 b 201 954 164 963 182 960 b 308 651 219 853 263 743 l 321 651 b 431 950 368 747 386 854 b 535 958 464 957 500 958 b 615 956 563 958 589 956 z "},"Ý":{"ha":603,"x_min":0,"x_max":0,"o":"m 540 1172 l 540 1181 b 435 1279 508 1213 472 1260 b 203 1053 350 1210 285 1122 l 203 1042 b 314 1029 211 1033 265 1029 b 400 1039 365 1029 393 1032 b 540 1172 417 1075 506 1138 z m 525 1176 b 388 1047 486 1139 406 1082 b 321 1042 367 1043 344 1042 b 221 1050 286 1042 251 1044 b 439 1264 296 1119 360 1200 b 525 1176 467 1235 496 1206 z m 222 -4 b 629 953 335 325 519 624 l 629 957 b 542 967 621 974 599 967 b 419 953 493 967 428 965 b 356 804 394 917 379 854 b 315 726 343 778 329 753 b 240 956 278 796 257 879 b 158 971 225 971 181 971 b 15 954 122 971 32 971 b 138 632 42 842 93 738 b 189 476 153 593 186 514 b 8 -1 125 319 60 161 l 15 -10 b 158 -6 54 -10 110 -6 b 215 -8 179 -6 199 -6 b 222 -4 217 -7 219 -6 z m 613 951 b 211 7 503 626 321 332 b 167 8 200 8 183 8 b 25 4 121 8 63 6 b 156 351 63 122 111 236 b 203 479 168 385 203 460 b 164 601 203 514 175 571 b 31 949 124 718 60 828 b 156 960 76 949 114 960 b 228 947 178 960 201 956 b 321 708 238 900 281 708 b 431 944 364 785 392 867 b 567 954 461 949 519 954 b 613 951 585 954 600 953 z "},"Ÿ":{"ha":603,"x_min":0,"x_max":0,"o":"m 125 1047 l 129 1047 b 267 1046 175 1047 221 1046 b 282 1193 283 1081 274 1150 b 201 1214 274 1210 238 1214 b 121 1201 169 1214 138 1208 l 117 1193 b 110 1100 117 1167 110 1132 b 125 1047 110 1081 111 1054 z m 367 1047 l 371 1047 b 508 1046 417 1047 463 1046 b 524 1193 525 1081 515 1150 b 443 1214 515 1210 479 1214 b 363 1201 411 1214 379 1208 l 358 1193 b 351 1100 358 1167 351 1132 b 367 1047 351 1081 353 1054 z m 260 1060 b 129 1061 215 1060 172 1061 b 124 1097 125 1071 124 1083 b 131 1190 124 1128 131 1164 b 214 1200 153 1194 185 1200 b 267 1192 233 1200 251 1197 b 260 1060 260 1149 260 1101 z m 501 1060 b 371 1061 457 1060 414 1061 b 365 1097 367 1071 365 1083 b 372 1190 365 1128 372 1164 b 456 1200 394 1194 426 1200 b 508 1192 475 1200 493 1197 b 501 1060 501 1149 501 1101 z m 222 -4 b 629 953 335 325 519 624 l 629 957 b 542 967 621 974 599 967 b 419 953 493 967 428 965 b 356 804 394 917 379 854 b 315 726 343 778 329 753 b 240 956 278 796 257 879 b 158 971 225 971 181 971 b 15 954 122 971 32 971 b 138 632 42 842 93 738 b 189 476 153 593 186 514 b 8 -1 125 319 60 161 l 15 -10 b 158 -6 54 -10 110 -6 b 215 -8 179 -6 199 -6 b 222 -4 217 -7 219 -6 z m 613 951 b 211 7 503 626 321 332 b 167 8 200 8 183 8 b 25 4 121 8 63 6 b 156 351 63 122 111 236 b 203 479 168 385 203 460 b 164 601 203 514 175 571 b 31 949 124 718 60 828 b 156 960 76 949 114 960 b 228 947 178 960 201 956 b 321 708 238 900 281 708 b 431 944 364 785 392 867 b 567 954 461 949 519 954 b 613 951 585 954 600 953 z "},"Z":{"ha":658,"x_min":0,"x_max":0,"o":"m 632 738 l 633 742 b 638 906 633 794 638 850 b 626 971 638 928 636 950 b 264 976 506 971 385 976 b 13 965 182 976 94 974 b 13 956 10 963 14 958 b 14 951 13 954 14 953 b 22 874 14 940 19 882 b 21 828 22 858 21 843 b 40 754 21 808 22 763 b 363 738 147 754 257 749 b 101 360 275 613 181 492 b 28 204 74 314 28 253 b 47 -8 28 131 19 4 b 319 -3 138 -4 229 -3 b 615 -10 418 -3 517 -4 b 629 146 635 31 629 118 b 618 233 629 178 628 213 b 283 217 507 221 394 232 b 632 738 397 392 524 558 z m 619 743 l 621 744 b 299 265 521 579 406 431 b 264 214 288 247 276 228 b 269 201 265 210 268 206 b 611 218 383 217 497 207 b 615 158 614 199 615 178 b 608 4 615 107 608 56 b 310 13 508 10 410 13 b 53 6 225 13 139 10 b 42 103 43 38 42 69 b 43 178 42 128 43 153 b 42 219 43 192 43 206 b 381 739 115 403 267 578 b 192 761 371 767 229 761 b 44 768 142 761 93 769 b 36 807 38 781 36 793 b 39 851 36 822 39 838 b 28 953 39 882 38 924 b 258 963 104 960 181 963 b 621 957 379 963 500 957 b 624 893 624 936 624 914 b 619 743 624 843 619 793 z "},"Ž":{"ha":658,"x_min":0,"x_max":0,"o":"m 336 1033 b 346 1035 339 1035 342 1035 l 572 1260 l 581 1269 b 443 1285 547 1269 482 1285 b 336 1210 388 1285 372 1246 b 243 1279 297 1238 286 1283 l 107 1268 b 336 1033 172 1183 256 1106 z m 129 1257 l 250 1265 b 274 1256 254 1264 264 1265 b 333 1196 278 1246 318 1201 b 444 1265 376 1218 376 1265 b 550 1257 481 1265 514 1257 b 340 1049 479 1188 410 1118 b 129 1257 264 1115 193 1179 z m 626 971 b 264 976 506 971 385 976 b 13 965 182 976 94 974 b 13 956 10 963 14 958 b 14 951 13 954 14 953 b 22 874 14 940 19 882 b 21 828 22 858 21 843 b 40 754 21 808 22 763 b 363 738 147 754 257 749 b 101 360 275 613 181 492 b 28 204 74 314 28 253 b 47 -8 28 131 19 4 b 319 -3 138 -4 229 -3 b 615 -10 418 -3 517 -4 b 629 146 635 31 629 118 b 618 233 629 178 628 213 b 283 217 507 221 394 232 b 632 738 397 392 524 558 l 633 742 b 638 906 633 794 638 850 b 626 971 638 928 636 950 z m 621 744 b 299 265 521 579 406 431 b 264 214 288 247 276 228 b 269 201 265 210 268 206 b 611 218 383 217 497 207 b 615 158 614 199 615 178 b 608 4 615 107 608 56 b 310 13 508 10 410 13 b 53 6 225 13 139 10 b 42 103 43 38 42 69 b 43 178 42 128 43 153 b 42 219 43 192 43 206 b 381 739 115 403 267 578 b 192 761 371 767 229 761 b 44 768 142 761 93 769 b 36 807 38 781 36 793 b 39 851 36 822 39 838 b 28 953 39 882 38 924 b 258 963 104 960 181 963 b 621 957 379 963 500 957 b 624 893 624 936 624 914 b 619 743 624 843 619 793 z "},"a":{"ha":661,"x_min":0,"x_max":0,"o":"m 618 436 l 618 614 b 621 651 618 622 621 638 b 617 686 621 665 618 682 l 617 692 l 610 699 b 450 708 574 699 503 708 b 404 704 432 708 415 708 l 400 696 b 394 651 400 681 396 667 b 274 696 368 688 335 696 b 17 367 121 696 17 551 b 158 8 17 221 76 47 b 236 -8 183 -4 210 -8 b 404 60 297 -8 357 19 b 401 29 403 50 401 39 b 428 -10 401 8 407 -10 b 443 -7 432 -10 438 -8 l 551 -7 b 579 -12 561 -11 571 -12 b 622 83 614 -12 622 31 b 618 436 622 201 618 318 z m 601 14 l 593 6 l 558 6 b 497 11 546 10 522 11 b 436 6 472 11 449 10 l 426 6 b 415 31 415 11 415 21 b 421 78 415 46 421 63 b 410 83 417 79 413 81 b 236 4 365 39 300 4 b 32 368 97 4 32 201 b 274 682 32 544 126 682 b 393 626 331 682 365 674 b 394 624 393 625 394 625 l 396 624 b 408 626 400 624 404 625 b 407 628 408 626 407 626 b 406 636 407 631 406 633 b 414 692 406 654 414 674 b 603 685 476 692 539 685 b 604 681 603 683 603 682 b 608 269 604 544 608 406 b 601 14 608 185 601 97 z m 335 511 b 199 417 274 511 211 481 l 200 418 b 188 349 192 397 188 374 b 324 183 188 267 231 183 b 415 318 394 183 415 239 b 335 511 415 493 408 511 z m 401 300 b 321 197 401 231 372 197 b 201 350 242 197 201 272 b 213 413 201 372 204 394 b 350 497 225 479 289 497 b 401 415 400 497 401 454 b 400 361 401 396 400 378 b 401 300 400 343 401 321 z "},"á":{"ha":661,"x_min":0,"x_max":0,"o":"m 414 813 b 554 946 431 849 519 911 l 554 954 b 449 1053 522 986 486 1033 b 217 826 364 983 299 896 l 217 815 b 328 803 225 807 279 803 b 414 813 379 803 407 806 z m 453 1038 b 544 947 483 1007 514 979 b 401 821 508 922 421 858 b 335 815 381 817 358 815 b 235 824 300 815 265 818 b 453 1038 310 893 374 974 z m 618 436 l 618 614 b 621 651 618 622 621 638 b 617 686 621 665 618 682 l 617 692 l 610 699 b 450 708 574 699 503 708 b 404 704 432 708 415 708 l 400 696 b 394 651 400 681 396 667 b 274 696 368 688 335 696 b 17 367 121 696 17 551 b 158 8 17 221 76 47 b 236 -8 183 -4 210 -8 b 404 60 297 -8 357 19 b 401 29 403 50 401 39 b 428 -10 401 8 407 -10 b 443 -7 432 -10 438 -8 l 551 -7 b 579 -12 561 -11 571 -12 b 622 83 614 -12 622 31 b 618 436 622 201 618 318 z m 601 14 l 593 6 l 558 6 b 497 11 546 10 522 11 b 436 6 472 11 449 10 l 426 6 b 415 31 415 11 415 21 b 421 78 415 46 421 63 b 410 83 417 79 413 81 b 236 4 365 39 300 4 b 32 368 97 4 32 201 b 274 682 32 544 126 682 b 393 626 331 682 365 674 b 394 624 393 625 394 625 l 396 624 b 408 626 400 624 404 625 b 407 628 408 626 407 626 b 406 636 407 631 406 633 b 414 692 406 654 414 674 b 603 685 476 692 539 685 b 604 681 603 683 603 682 b 608 269 604 544 608 406 b 601 14 608 185 601 97 z m 335 511 b 199 417 274 511 211 481 l 200 418 b 188 349 192 397 188 374 b 324 183 188 267 231 183 b 415 318 394 183 415 239 b 335 511 415 493 408 511 z m 401 300 b 321 197 401 231 372 197 b 201 350 242 197 201 272 b 213 413 201 372 204 394 b 350 497 225 479 289 497 b 401 415 400 497 401 454 b 400 361 401 396 400 378 b 401 300 400 343 401 321 z "},"â":{"ha":661,"x_min":0,"x_max":0,"o":"m 225 810 b 343 881 308 810 285 840 b 349 876 343 879 347 876 b 465 807 383 856 374 807 b 576 819 522 807 540 819 l 582 831 l 356 1056 b 346 1057 351 1056 349 1056 b 121 831 267 983 186 915 l 125 818 b 225 810 156 813 196 810 z m 350 1042 b 558 832 424 968 483 906 l 551 831 b 483 824 521 831 525 824 b 417 826 461 824 439 825 l 404 835 b 350 893 386 853 371 879 l 342 893 b 233 825 300 865 307 825 b 138 831 196 825 149 829 b 350 1042 200 910 276 972 z m 618 436 l 618 614 b 621 651 618 622 621 638 b 617 686 621 665 618 682 l 617 692 l 610 699 b 450 708 574 699 503 708 b 404 704 432 708 415 708 l 400 696 b 394 651 400 681 396 667 b 274 696 368 688 335 696 b 17 367 121 696 17 551 b 158 8 17 221 76 47 b 236 -8 183 -4 210 -8 b 404 60 297 -8 357 19 b 401 29 403 50 401 39 b 428 -10 401 8 407 -10 b 443 -7 432 -10 438 -8 l 551 -7 b 579 -12 561 -11 571 -12 b 622 83 614 -12 622 31 b 618 436 622 201 618 318 z m 601 14 l 593 6 l 558 6 b 497 11 546 10 522 11 b 436 6 472 11 449 10 l 426 6 b 415 31 415 11 415 21 b 421 78 415 46 421 63 b 410 83 417 79 413 81 b 236 4 365 39 300 4 b 32 368 97 4 32 201 b 274 682 32 544 126 682 b 393 626 331 682 365 674 b 394 624 393 625 394 625 l 396 624 b 408 626 400 624 404 625 b 407 628 408 626 407 626 b 406 636 407 631 406 633 b 414 692 406 654 414 674 b 603 685 476 692 539 685 b 604 681 603 683 603 682 b 608 269 604 544 608 406 b 601 14 608 185 601 97 z m 335 511 b 199 417 274 511 211 481 l 200 418 b 188 349 192 397 188 374 b 324 183 188 267 231 183 b 415 318 394 183 415 239 b 335 511 415 493 408 511 z m 401 300 b 321 197 401 231 372 197 b 201 350 242 197 201 272 b 213 413 201 372 204 394 b 350 497 225 479 289 497 b 401 415 400 497 401 454 b 400 361 401 396 400 378 b 401 300 400 343 401 321 z "},"ä":{"ha":661,"x_min":0,"x_max":0,"o":"m 281 850 b 360 874 304 850 360 854 b 361 940 360 889 361 915 b 356 1004 361 967 360 992 l 356 1051 l 349 1058 l 160 1063 b 151 1042 153 1058 151 1050 b 158 865 151 982 158 924 b 281 850 171 851 242 850 z m 536 850 b 615 874 560 850 615 854 b 617 940 615 889 617 915 b 611 1004 617 967 615 992 l 611 1051 l 604 1058 l 415 1063 b 407 1042 408 1058 407 1050 b 414 865 407 982 414 924 b 536 850 426 851 497 850 z m 167 1049 l 342 1044 b 340 1019 340 1036 340 1028 b 343 997 340 1011 340 1004 b 346 876 343 957 346 917 b 286 864 335 867 313 864 b 172 871 244 864 196 871 b 165 1024 172 922 165 972 b 167 1049 165 1032 167 1040 z m 422 1049 l 597 1044 b 596 1019 596 1036 596 1028 b 599 997 596 1011 596 1004 b 601 876 599 957 601 917 b 542 864 590 867 568 864 b 428 871 500 864 451 871 b 421 1024 428 922 421 972 b 422 1049 421 1032 422 1040 z m 618 436 l 618 614 b 621 651 618 622 621 638 b 617 686 621 665 618 682 l 617 692 l 610 699 b 450 708 574 699 503 708 b 404 704 432 708 415 708 l 400 696 b 394 651 400 681 396 667 b 274 696 368 688 335 696 b 17 367 121 696 17 551 b 158 8 17 221 76 47 b 236 -8 183 -4 210 -8 b 404 60 297 -8 357 19 b 401 29 403 50 401 39 b 428 -10 401 8 407 -10 b 443 -7 432 -10 438 -8 l 551 -7 b 579 -12 561 -11 571 -12 b 622 83 614 -12 622 31 b 618 436 622 201 618 318 z m 601 14 l 593 6 l 558 6 b 497 11 546 10 522 11 b 436 6 472 11 449 10 l 426 6 b 415 31 415 11 415 21 b 421 78 415 46 421 63 b 410 83 417 79 413 81 b 236 4 365 39 300 4 b 32 368 97 4 32 201 b 274 682 32 544 126 682 b 393 626 331 682 365 674 b 394 624 393 625 394 625 l 396 624 b 408 626 400 624 404 625 b 407 628 408 626 407 626 b 406 636 407 631 406 633 b 414 692 406 654 414 674 b 603 685 476 692 539 685 b 604 681 603 683 603 682 b 608 269 604 544 608 406 b 601 14 608 185 601 97 z m 335 511 b 199 417 274 511 211 481 l 200 418 b 188 349 192 397 188 374 b 324 183 188 267 231 183 b 415 318 394 183 415 239 b 335 511 415 493 408 511 z m 401 300 b 321 197 401 231 372 197 b 201 350 242 197 201 272 b 213 413 201 372 204 394 b 350 497 225 479 289 497 b 401 415 400 497 401 454 b 400 361 401 396 400 378 b 401 300 400 343 401 321 z "},"à":{"ha":661,"x_min":0,"x_max":0,"o":"m 294 813 b 378 803 294 804 336 803 b 490 815 422 803 472 806 l 490 826 b 432 885 468 843 450 865 b 258 1053 378 943 322 1006 l 250 1053 b 154 956 218 1019 186 988 l 154 944 b 294 813 168 914 275 851 z m 246 1033 l 254 1039 b 422 875 317 992 368 933 b 471 824 438 857 453 839 b 372 815 449 818 407 815 b 304 821 342 815 314 818 b 164 954 289 853 189 929 b 246 1033 185 968 208 996 z m 618 436 l 618 614 b 621 651 618 622 621 638 b 617 686 621 665 618 682 l 617 692 l 610 699 b 450 708 574 699 503 708 b 404 704 432 708 415 708 l 400 696 b 394 651 400 681 396 667 b 274 696 368 688 335 696 b 17 367 121 696 17 551 b 158 8 17 221 76 47 b 236 -8 183 -4 210 -8 b 404 60 297 -8 357 19 b 401 29 403 50 401 39 b 428 -10 401 8 407 -10 b 443 -7 432 -10 438 -8 l 551 -7 b 579 -12 561 -11 571 -12 b 622 83 614 -12 622 31 b 618 436 622 201 618 318 z m 601 14 l 593 6 l 558 6 b 497 11 546 10 522 11 b 436 6 472 11 449 10 l 426 6 b 415 31 415 11 415 21 b 421 78 415 46 421 63 b 410 83 417 79 413 81 b 236 4 365 39 300 4 b 32 368 97 4 32 201 b 274 682 32 544 126 682 b 393 626 331 682 365 674 b 394 624 393 625 394 625 l 396 624 b 408 626 400 624 404 625 b 407 628 408 626 407 626 b 406 636 407 631 406 633 b 414 692 406 654 414 674 b 603 685 476 692 539 685 b 604 681 603 683 603 682 b 608 269 604 544 608 406 b 601 14 608 185 601 97 z m 335 511 b 199 417 274 511 211 481 l 200 418 b 188 349 192 397 188 374 b 324 183 188 267 231 183 b 415 318 394 183 415 239 b 335 511 415 493 408 511 z m 401 300 b 321 197 401 231 372 197 b 201 350 242 197 201 272 b 213 413 201 372 204 394 b 350 497 225 479 289 497 b 401 415 400 497 401 454 b 400 361 401 396 400 378 b 401 300 400 343 401 321 z "},"å":{"ha":661,"x_min":0,"x_max":0,"o":"m 338 781 b 460 821 374 781 435 783 l 461 822 b 481 936 472 857 481 897 b 354 1051 481 1015 453 1051 b 214 911 214 1051 214 985 b 338 781 214 825 225 781 z m 346 1039 b 467 949 418 1039 467 1019 b 447 826 467 904 456 850 l 449 828 b 339 793 433 804 386 793 b 226 907 256 793 226 811 b 346 1039 226 1013 260 1039 z m 357 843 b 419 933 419 843 419 889 b 347 992 419 974 382 992 b 304 982 332 992 317 988 l 303 981 b 276 925 283 965 276 947 b 357 843 276 864 285 843 z m 311 969 b 347 978 321 975 335 978 b 406 921 383 978 406 961 b 342 857 406 885 403 857 b 288 911 314 857 288 865 b 311 969 288 936 293 951 z m 618 436 l 618 614 b 621 651 618 622 621 638 b 617 686 621 665 618 682 l 617 692 l 610 699 b 450 708 574 699 503 708 b 404 704 432 708 415 708 l 400 696 b 394 651 400 681 396 667 b 274 696 368 688 335 696 b 17 367 121 696 17 551 b 158 8 17 221 76 47 b 236 -8 183 -4 210 -8 b 404 60 297 -8 357 19 b 401 29 403 50 401 39 b 428 -10 401 8 407 -10 b 443 -7 432 -10 438 -8 l 551 -7 b 579 -12 561 -11 571 -12 b 622 83 614 -12 622 31 b 618 436 622 201 618 318 z m 601 14 l 593 6 l 558 6 b 497 11 546 10 522 11 b 436 6 472 11 449 10 l 426 6 b 415 31 415 11 415 21 b 421 78 415 46 421 63 b 410 83 417 79 413 81 b 236 4 365 39 300 4 b 32 368 97 4 32 201 b 274 682 32 544 126 682 b 393 626 331 682 365 674 b 394 624 393 625 394 625 l 396 624 b 408 626 400 624 404 625 b 407 628 408 626 407 626 b 406 636 407 631 406 633 b 414 692 406 654 414 674 b 603 685 476 692 539 685 b 604 681 603 683 603 682 b 608 269 604 544 608 406 b 601 14 608 185 601 97 z m 335 511 b 199 417 274 511 211 481 l 200 418 b 188 349 192 397 188 374 b 324 183 188 267 231 183 b 415 318 394 183 415 239 b 335 511 415 493 408 511 z m 401 300 b 321 197 401 231 372 197 b 201 350 242 197 201 272 b 213 413 201 372 204 394 b 350 497 225 479 289 497 b 401 415 400 497 401 454 b 400 361 401 396 400 378 b 401 300 400 343 401 321 z "},"ã":{"ha":661,"x_min":0,"x_max":0,"o":"m 160 817 b 228 811 181 810 206 815 l 235 818 b 229 850 235 829 229 839 b 293 906 229 889 263 906 b 465 804 371 906 353 804 b 632 1036 582 804 632 913 b 629 1042 631 1036 629 1039 l 628 1043 b 622 1046 625 1044 624 1044 b 601 1044 615 1046 608 1044 b 563 1046 589 1044 576 1046 b 501 1036 540 1046 518 1044 b 432 953 493 1001 469 960 b 256 1058 367 965 361 1058 b 58 824 146 1058 83 922 l 65 815 b 160 817 97 815 128 817 z m 254 1043 b 340 1017 283 1043 315 1036 b 432 939 372 992 393 939 b 514 1028 451 939 503 971 b 618 1031 521 1029 582 1029 b 465 818 618 915 569 818 b 294 922 349 818 385 922 b 215 844 250 922 215 888 b 218 826 215 839 217 832 b 167 829 200 829 183 829 b 138 833 157 832 147 833 b 75 829 117 833 94 829 b 254 1043 103 914 142 1043 z m 618 614 b 621 651 618 622 621 638 b 617 686 621 665 618 682 l 617 692 l 610 699 b 450 708 574 699 503 708 b 404 704 432 708 415 708 l 400 696 b 394 651 400 681 396 667 b 274 696 368 688 335 696 b 17 367 121 696 17 551 b 158 8 17 221 76 47 b 236 -8 183 -4 210 -8 b 404 60 297 -8 357 19 b 401 29 403 50 401 39 b 428 -10 401 8 407 -10 b 443 -7 432 -10 438 -8 l 551 -7 b 579 -12 561 -11 571 -12 b 622 83 614 -12 622 31 b 618 436 622 201 618 318 z m 601 14 l 593 6 l 558 6 b 497 11 546 10 522 11 b 436 6 472 11 449 10 l 426 6 b 415 31 415 11 415 21 b 421 78 415 46 421 63 b 410 83 417 79 413 81 b 236 4 365 39 300 4 b 32 368 97 4 32 201 b 274 682 32 544 126 682 b 393 626 331 682 365 674 b 394 624 393 625 394 625 l 396 624 b 408 626 400 624 404 625 b 407 628 408 626 407 626 b 406 636 407 631 406 633 b 414 692 406 654 414 674 b 603 685 476 692 539 685 b 604 681 603 683 603 682 b 608 269 604 544 608 406 b 601 14 608 185 601 97 z m 335 511 b 199 417 274 511 211 481 l 200 418 b 188 349 192 397 188 374 b 324 183 188 267 231 183 b 415 318 394 183 415 239 b 335 511 415 493 408 511 z m 401 300 b 321 197 401 231 372 197 b 201 350 242 197 201 272 b 213 413 201 372 204 394 b 350 497 225 479 289 497 b 401 415 400 497 401 454 b 400 361 401 396 400 378 b 401 300 400 343 401 321 z "},"æ":{"ha":976,"x_min":0,"x_max":0,"o":"m 701 161 b 604 322 611 161 604 263 l 604 336 b 739 332 646 326 583 332 b 956 357 822 332 935 336 b 960 421 958 378 960 399 b 689 699 960 586 871 699 b 492 636 614 699 540 678 b 324 689 456 671 393 689 b 36 492 189 689 36 622 b 135 453 36 453 76 453 b 224 471 175 453 210 457 b 306 544 224 515 264 544 b 382 451 357 544 382 504 b 381 385 382 428 381 403 b 218 410 324 404 278 410 b 6 197 97 410 6 318 b 258 -19 6 61 144 -19 b 483 72 346 -19 421 21 b 681 -6 543 -6 590 4 b 739 -10 700 -8 719 -10 b 921 61 807 -10 874 7 b 953 263 951 96 944 221 b 901 279 944 279 922 279 b 806 274 871 279 836 274 b 783 275 799 274 790 274 l 775 267 b 701 161 775 203 756 161 z m 590 344 l 590 321 b 701 146 590 258 601 146 b 789 260 761 146 789 203 b 804 258 793 260 799 258 b 900 264 832 258 869 264 b 938 260 914 264 928 263 b 699 6 915 136 981 6 b 490 86 578 6 535 26 b 481 88 486 86 483 86 b 260 -6 418 38 349 -6 b 19 199 144 -6 19 71 b 249 396 19 322 110 396 b 386 365 289 396 346 390 b 396 372 389 368 393 369 b 394 394 394 379 394 388 b 396 442 394 411 396 426 b 310 561 396 492 375 561 b 210 475 263 561 213 524 b 129 465 193 468 161 465 b 50 494 82 465 50 465 b 319 675 50 613 192 675 b 488 621 388 675 451 657 l 496 621 b 694 685 544 663 619 685 b 944 421 861 685 944 581 b 942 363 944 401 943 381 b 669 347 897 344 694 347 b 599 353 647 347 621 346 z m 761 554 l 758 556 b 701 569 740 563 724 569 b 592 463 640 569 592 525 b 633 436 592 442 611 436 b 682 440 650 436 669 439 l 754 440 b 783 438 763 438 774 438 b 818 461 803 438 818 438 b 761 554 818 494 779 542 z m 754 542 l 753 543 b 800 451 786 521 800 492 b 735 456 778 451 763 456 b 639 450 706 456 668 450 b 606 456 625 450 613 451 b 697 551 606 522 646 551 b 754 542 715 551 735 549 z m 154 203 b 235 128 154 161 186 136 b 278 122 250 124 264 122 b 386 217 325 122 386 146 b 269 304 386 281 328 304 b 154 203 215 304 154 269 z m 276 138 b 236 142 263 138 249 139 b 167 192 203 147 178 157 b 271 290 167 258 215 290 b 371 213 317 290 371 274 b 276 138 371 156 322 138 z "},"b":{"ha":644,"x_min":0,"x_max":0,"o":"m 540 664 b 375 704 496 700 429 704 b 243 679 333 704 279 701 b 247 819 243 708 247 776 b 239 961 247 871 239 933 l 239 976 b 132 993 232 990 169 993 b 54 985 101 993 71 990 l 50 976 b 35 96 50 682 35 390 b 49 -6 35 50 38 0 b 168 -10 88 -6 129 -10 b 238 -4 192 -10 215 -8 b 242 0 238 -1 240 0 l 243 1 b 244 6 243 3 244 4 l 244 40 b 247 60 246 44 243 56 b 368 -7 271 13 318 -7 b 624 369 571 -7 624 189 b 540 664 624 467 619 600 z m 354 10 b 249 76 285 10 278 47 b 229 32 229 76 229 32 b 231 8 229 24 231 15 b 172 4 211 6 192 4 b 56 8 132 4 93 8 b 50 169 51 61 50 115 b 64 972 50 438 64 704 b 143 979 89 976 115 979 b 225 971 171 979 199 976 l 225 960 b 224 924 225 953 224 939 b 231 711 226 872 231 778 b 229 661 231 692 229 674 l 243 660 b 364 690 264 688 326 690 b 561 619 436 690 521 685 b 610 376 594 564 610 469 b 354 10 610 122 525 10 z m 454 438 b 315 543 444 510 383 543 b 219 421 231 543 219 483 b 329 168 219 301 218 168 b 467 347 403 168 467 256 b 454 440 467 378 463 413 z m 329 183 b 236 328 244 183 236 269 b 238 376 236 344 238 361 b 236 433 238 392 236 411 b 315 532 236 488 244 532 b 440 436 374 532 432 496 b 450 375 447 417 444 394 b 329 183 450 286 422 183 z "},"c":{"ha":614,"x_min":0,"x_max":0,"o":"m 592 264 l 589 272 b 539 281 575 279 557 281 b 433 275 504 281 467 275 b 410 276 425 275 417 275 b 368 199 399 271 382 213 b 307 186 351 190 329 186 b 219 264 260 186 219 206 b 310 496 219 449 239 496 b 408 401 369 496 382 454 b 524 386 426 392 475 386 b 594 401 551 386 588 388 b 542 654 589 467 606 607 b 356 717 468 708 424 717 b 71 656 290 717 142 731 b 25 463 25 606 25 499 b 28 364 25 429 28 397 b 26 290 28 339 26 315 b 261 -21 26 136 72 -21 b 368 -24 294 -21 331 -24 b 557 51 440 -24 513 -11 b 592 264 594 104 578 203 z m 576 263 b 546 58 564 197 579 119 b 368 -10 510 0 424 -10 b 40 269 190 -10 40 6 b 42 363 40 303 42 335 b 39 467 42 397 39 431 b 81 646 39 500 40 603 b 344 703 144 714 264 703 b 533 643 413 703 475 696 b 579 407 590 590 579 479 b 514 403 568 404 542 403 b 417 413 475 403 432 406 b 307 511 406 474 356 511 b 208 389 256 511 208 471 b 211 317 208 364 211 338 b 207 256 211 297 207 276 b 318 171 207 200 254 171 b 414 261 385 171 406 217 b 433 260 419 260 426 260 b 540 267 465 260 507 267 b 576 263 554 267 567 265 z "},"ç":{"ha":615,"x_min":0,"x_max":0,"o":"m 396 -24 b 472 -10 422 -21 447 -15 b 592 264 606 28 572 161 b 539 281 583 281 561 281 b 433 275 504 281 467 275 b 410 276 425 275 417 275 b 368 199 399 271 382 213 b 307 186 351 190 329 186 b 219 264 260 186 219 206 b 310 496 219 449 239 496 b 408 401 369 496 382 454 b 524 386 426 392 475 386 b 594 401 551 386 588 388 b 574 607 589 468 599 542 b 361 718 542 688 439 718 b 303 715 340 718 321 715 b 253 717 286 715 269 717 b 85 669 193 717 128 708 b 26 475 33 622 26 544 b 28 407 26 450 28 428 b 25 289 28 369 25 329 b 232 -19 25 154 64 -1 b 169 -201 204 -75 192 -142 b 247 -217 181 -224 236 -217 b 333 -206 279 -217 324 -215 b 396 -24 333 -162 383 -75 z m 390 -10 l 383 -15 b 319 -199 372 -78 335 -136 b 229 -201 290 -199 260 -201 b 185 -199 214 -201 199 -200 b 249 -17 221 -106 247 -19 b 243 -7 247 -12 244 -10 b 40 447 19 10 40 240 b 75 639 40 518 46 599 b 247 703 113 690 199 703 b 561 601 325 703 513 722 b 579 407 585 540 575 471 b 514 403 568 404 542 403 b 417 413 475 403 432 406 b 307 511 406 474 356 511 b 208 389 256 511 208 471 b 211 317 208 364 211 338 b 207 256 211 297 207 276 b 318 171 207 200 254 171 b 414 261 385 171 406 217 b 433 260 419 260 426 260 b 540 267 465 260 507 267 b 576 263 554 267 567 265 b 390 -10 557 143 601 1 z "},"d":{"ha":643,"x_min":0,"x_max":0,"o":"m 413 983 l 406 975 b 396 818 406 918 396 911 b 400 679 396 767 400 700 b 268 704 367 704 308 704 b 121 676 219 704 163 700 b 22 400 38 628 22 499 b 289 -4 22 233 44 -4 b 397 60 335 -4 374 13 b 399 57 397 58 399 57 b 397 38 399 53 397 44 b 400 22 397 31 399 25 l 400 6 b 464 -11 407 -8 424 -11 b 603 1 517 -11 593 -8 b 606 218 606 74 606 146 b 594 978 606 471 594 725 b 511 993 588 992 544 993 b 413 983 474 993 435 989 z m 497 978 b 581 972 525 978 554 975 b 592 222 581 722 592 472 b 589 8 592 151 592 79 b 471 4 550 8 510 4 b 414 18 454 4 414 1 b 397 76 414 43 415 56 l 396 76 b 346 22 382 76 364 32 b 293 10 329 13 313 10 b 33 383 121 10 33 119 b 82 618 33 475 49 565 b 281 690 125 685 207 690 b 403 657 321 690 386 686 b 415 660 407 657 411 658 b 414 776 414 699 414 739 b 419 971 414 815 418 946 b 497 978 444 976 471 978 z m 329 543 b 190 439 260 543 201 511 b 178 360 182 415 178 388 b 315 168 178 267 226 168 b 424 424 419 168 424 289 b 329 543 424 488 413 543 z m 204 435 l 204 438 b 326 532 213 497 269 532 b 408 410 407 532 408 483 b 319 182 408 289 406 182 b 192 357 243 182 192 261 b 204 435 192 385 196 413 z "},"ð":{"ha":738,"x_min":0,"x_max":0,"o":"m 386 1089 b 222 1172 328 1106 279 1161 b 57 1058 181 1172 88 1089 b 32 1031 46 1051 32 1038 l 36 1024 b 188 947 83 1003 139 960 b 31 826 135 908 31 844 b 133 735 57 790 104 771 b 139 731 135 733 136 732 b 203 769 156 731 189 760 b 358 874 254 804 306 839 b 454 601 444 801 438 700 b 293 633 410 622 351 633 b 15 282 56 633 15 467 b 371 -40 15 50 179 -40 b 715 365 644 -40 715 161 b 685 674 715 474 697 585 b 542 1007 667 790 636 926 b 667 1092 569 1025 667 1071 b 543 1192 628 1131 574 1146 b 535 1194 540 1193 538 1193 b 386 1089 493 1181 424 1113 z m 388 1075 l 392 1076 b 535 1178 422 1094 494 1163 b 650 1089 565 1138 614 1124 b 526 1013 610 1063 565 1040 l 526 1001 b 682 594 647 911 664 732 b 701 363 690 526 701 444 b 376 -26 701 172 643 -26 b 31 325 75 -26 31 146 b 294 619 31 468 71 619 b 464 583 368 619 407 597 b 471 593 465 586 468 589 b 461 685 464 624 465 653 b 363 888 453 761 422 838 l 354 888 b 142 746 283 840 214 789 b 46 828 115 781 75 799 b 208 944 99 868 154 906 b 206 957 207 949 207 953 b 49 1033 150 968 100 1010 b 217 1158 65 1046 158 1158 b 388 1075 239 1158 349 1085 z m 196 322 b 200 265 196 303 197 283 b 361 168 215 201 290 168 b 511 279 438 168 511 206 b 314 439 511 368 426 439 b 196 322 228 439 196 383 z m 214 269 l 214 267 b 208 324 211 285 208 304 b 313 428 208 386 250 428 b 497 279 411 428 497 360 b 363 182 497 214 432 182 b 214 269 297 182 228 211 z "},"e":{"ha":617,"x_min":0,"x_max":0,"o":"m 324 153 b 224 324 240 153 224 249 l 224 339 b 268 333 236 335 251 333 b 349 336 301 333 324 336 b 596 360 414 336 572 336 b 600 425 599 381 600 403 b 501 672 600 517 575 617 b 311 721 449 711 364 721 b 36 533 189 721 58 665 b 19 350 26 476 19 414 b 117 36 19 236 43 121 b 319 -25 165 -19 246 -25 l 372 -25 b 593 261 619 -25 568 132 b 540 278 585 278 563 278 b 436 272 507 278 468 272 b 413 274 428 272 419 272 l 404 265 b 324 153 404 217 394 153 z m 210 347 l 210 322 b 326 135 210 250 229 135 b 418 258 378 135 418 192 l 432 257 b 538 264 461 257 503 264 b 578 258 553 264 567 263 b 381 -11 561 146 599 -11 l 319 -11 b 126 46 247 -11 171 -6 b 35 386 44 138 35 267 b 69 593 35 450 38 538 b 307 708 118 676 214 708 b 501 654 369 708 456 699 b 585 424 564 594 585 508 b 582 365 585 404 583 385 b 329 350 538 349 375 350 b 268 347 318 350 293 347 b 221 354 249 347 231 349 b 210 347 217 353 214 350 z m 446 457 b 389 569 446 503 432 547 b 326 583 369 579 349 583 b 211 472 261 583 211 547 b 256 446 211 451 232 446 b 306 450 274 446 293 449 l 382 450 b 417 444 389 447 403 444 b 446 457 428 444 446 447 z m 322 572 b 382 557 342 572 361 567 b 432 461 419 539 432 500 b 358 467 408 461 386 467 b 265 458 329 467 294 458 b 225 467 250 458 236 461 b 322 572 225 532 268 572 z "},"é":{"ha":617,"x_min":0,"x_max":0,"o":"m 533 946 l 533 954 b 428 1053 501 986 465 1033 b 196 826 343 983 278 896 l 196 815 b 307 803 204 807 258 803 b 393 813 358 803 386 806 b 533 946 410 849 499 911 z m 518 950 b 381 821 479 913 399 856 b 314 815 360 817 338 815 b 214 824 279 815 244 818 b 432 1038 289 893 353 974 b 518 950 460 1008 489 979 z m 264 333 b 329 336 288 333 314 336 b 596 360 340 336 568 332 b 600 425 599 381 600 403 b 501 672 600 517 575 617 b 311 721 449 711 364 721 b 36 533 189 721 58 665 b 19 350 26 476 19 414 b 117 36 19 236 43 121 b 319 -25 165 -19 246 -25 l 372 -25 b 593 261 619 -25 568 132 b 540 278 585 278 563 278 b 436 272 507 278 468 272 b 413 274 428 272 419 272 l 404 265 b 331 154 404 221 394 154 b 224 338 239 154 224 239 b 264 333 235 335 249 333 z m 221 354 l 210 347 b 326 136 210 264 224 136 b 418 258 378 136 418 188 l 432 257 b 538 264 461 257 503 264 b 578 258 553 264 567 263 b 381 -11 561 146 599 -11 l 319 -11 b 126 46 247 -11 171 -6 b 35 386 44 138 35 267 b 69 593 35 450 38 538 b 307 708 118 676 214 708 b 501 654 369 708 456 699 b 585 424 564 594 585 508 b 582 365 585 404 583 385 b 329 350 538 349 375 350 b 268 347 318 350 293 347 b 221 354 249 347 231 349 z m 446 457 b 389 569 446 503 432 547 b 326 583 369 579 349 583 b 211 472 261 583 211 547 b 256 446 211 451 232 446 b 306 450 274 446 293 449 l 382 450 b 417 444 389 447 403 444 b 446 457 428 444 446 447 z m 322 572 b 382 557 342 572 361 567 b 432 461 419 539 432 500 b 358 467 408 461 386 467 b 265 458 329 467 294 458 b 225 467 250 458 236 461 b 322 572 225 532 268 572 z "},"ê":{"ha":617,"x_min":0,"x_max":0,"o":"m 551 819 l 557 831 l 331 1056 b 321 1057 326 1056 324 1056 b 96 831 242 983 161 915 l 100 818 b 200 810 131 813 171 810 b 321 879 281 810 265 839 l 332 868 b 440 807 350 832 378 807 b 551 819 497 807 515 819 z m 535 832 b 475 824 514 831 494 825 b 392 826 447 824 419 825 l 379 835 b 325 893 361 853 346 879 l 317 893 b 208 825 275 865 282 825 b 113 831 171 825 124 829 b 325 1042 175 910 251 972 b 535 832 394 972 464 901 z m 264 333 b 329 336 288 333 314 336 b 596 360 340 336 568 332 b 600 425 599 381 600 403 b 501 672 600 517 575 617 b 311 721 449 711 364 721 b 36 533 189 721 58 665 b 19 350 26 476 19 414 b 117 36 19 236 43 121 b 319 -25 165 -19 246 -25 l 372 -25 b 593 261 619 -25 568 132 b 540 278 585 278 563 278 b 436 272 507 278 468 272 b 413 274 428 272 419 272 l 404 265 b 331 154 404 221 394 154 b 224 338 239 154 224 239 b 264 333 235 335 249 333 z m 221 354 l 210 347 b 326 136 210 264 224 136 b 418 258 378 136 418 188 l 432 257 b 538 264 461 257 503 264 b 578 258 553 264 567 263 b 381 -11 561 146 599 -11 l 319 -11 b 126 46 247 -11 171 -6 b 35 386 44 138 35 267 b 69 593 35 450 38 538 b 307 708 118 676 214 708 b 501 654 369 708 456 699 b 585 424 564 594 585 508 b 582 365 585 404 583 385 b 329 350 538 349 375 350 b 268 347 318 350 293 347 b 221 354 249 347 231 349 z m 446 457 b 389 569 446 503 432 547 b 326 583 369 579 349 583 b 211 472 261 583 211 547 b 256 446 211 451 232 446 b 306 450 274 446 293 449 l 382 450 b 417 444 389 447 403 444 b 446 457 428 444 446 447 z m 322 572 b 382 557 342 572 361 567 b 432 461 419 539 432 500 b 358 467 408 461 386 467 b 265 458 329 467 294 458 b 225 467 250 458 236 461 b 322 572 225 532 268 572 z "},"ë":{"ha":617,"x_min":0,"x_max":0,"o":"m 282 1051 l 275 1058 l 86 1063 b 78 1042 79 1058 78 1050 b 85 865 78 982 85 924 b 207 850 97 851 168 850 b 286 874 231 850 286 854 b 288 940 286 889 288 915 b 282 1004 288 967 286 992 z m 538 1051 l 531 1058 l 342 1063 b 333 1042 335 1058 333 1050 b 340 865 333 982 340 924 b 463 850 353 851 424 850 b 542 874 486 850 542 854 b 543 940 542 889 543 915 b 538 1004 543 967 542 992 z m 267 1019 b 269 997 267 1011 267 1004 b 272 876 269 957 272 917 b 213 864 261 867 239 864 b 99 871 171 864 122 871 b 92 1024 99 922 92 972 b 93 1049 92 1032 93 1040 l 268 1044 b 267 1019 267 1036 267 1028 z m 522 1019 b 525 997 522 1011 522 1004 b 528 876 525 957 528 917 b 468 864 517 867 494 864 b 354 871 426 864 378 871 b 347 1024 354 922 347 972 b 349 1049 347 1032 349 1040 l 524 1044 b 522 1019 522 1036 522 1028 z m 263 333 b 329 336 286 333 313 336 b 596 360 340 336 568 332 b 600 425 599 381 600 403 b 501 672 600 517 575 617 b 311 721 449 711 364 721 b 36 533 189 721 58 665 b 19 350 26 476 19 414 b 117 36 19 236 43 121 b 319 -25 165 -19 246 -25 l 372 -25 b 593 261 619 -25 568 132 b 540 278 585 278 563 278 b 436 272 507 278 468 272 b 413 274 428 272 419 272 l 404 265 b 331 154 404 221 394 154 b 224 338 239 154 224 239 b 263 333 235 335 249 333 z m 221 354 l 210 347 b 326 136 210 264 224 136 b 418 258 378 136 418 188 l 432 257 b 538 264 461 257 503 264 b 578 258 553 264 567 263 b 381 -11 561 146 599 -11 l 319 -11 b 126 46 247 -11 171 -6 b 35 386 44 138 35 267 b 69 593 35 450 38 538 b 307 708 118 676 214 708 b 501 654 369 708 456 699 b 585 424 564 594 585 508 b 582 365 585 404 583 385 b 329 350 538 349 375 350 b 268 347 318 350 293 347 b 221 354 249 347 231 349 z m 446 457 b 389 569 446 503 432 547 b 326 583 369 579 349 583 b 211 472 261 583 211 547 b 256 446 211 451 232 446 b 306 450 274 446 293 449 l 382 450 b 417 444 389 447 403 444 b 446 457 428 444 446 447 z m 322 572 b 382 557 342 572 361 567 b 432 461 419 539 432 500 b 358 467 408 461 386 467 b 265 458 329 467 294 458 b 225 467 250 458 236 461 b 322 572 225 532 268 572 z "},"è":{"ha":617,"x_min":0,"x_max":0,"o":"m 228 1053 l 219 1053 b 124 956 188 1019 156 988 l 124 944 b 264 813 124 924 243 851 b 347 803 264 804 306 803 b 460 815 392 803 442 806 l 460 826 b 401 885 438 843 419 865 b 228 1053 347 943 292 1006 z m 224 1038 b 392 875 285 992 339 932 b 440 824 407 857 422 839 b 342 815 418 818 376 815 b 274 821 311 815 283 818 b 136 950 258 851 167 922 z m 263 333 b 329 336 286 333 313 336 b 596 360 340 336 568 332 b 600 425 599 381 600 403 b 501 672 600 517 575 617 b 311 721 449 711 364 721 b 36 533 189 721 58 665 b 19 350 26 476 19 414 b 117 36 19 236 43 121 b 319 -25 165 -19 246 -25 l 372 -25 b 593 261 619 -25 568 132 b 540 278 585 278 563 278 b 436 272 507 278 468 272 b 413 274 428 272 419 272 l 404 265 b 331 154 404 221 394 154 b 224 338 239 154 224 239 b 263 333 235 335 249 333 z m 221 354 l 210 347 b 326 136 210 264 224 136 b 418 258 378 136 418 188 l 432 257 b 538 264 461 257 503 264 b 578 258 553 264 567 263 b 381 -11 561 146 599 -11 l 319 -11 b 126 46 247 -11 171 -6 b 35 386 44 138 35 267 b 69 593 35 450 38 538 b 307 708 118 676 214 708 b 501 654 369 708 456 699 b 585 424 564 594 585 508 b 582 365 585 404 583 385 b 329 350 538 349 375 350 b 268 347 318 350 293 347 b 221 354 249 347 231 349 z m 446 457 b 389 569 446 503 432 547 b 326 583 369 579 349 583 b 211 472 261 583 211 547 b 256 446 211 451 232 446 b 306 450 274 446 293 449 l 382 450 b 417 444 389 447 403 444 b 446 457 428 444 446 447 z m 322 572 b 382 557 342 572 361 567 b 432 461 419 539 432 500 b 358 467 408 461 386 467 b 265 458 329 467 294 458 b 225 467 250 458 236 461 b 322 572 225 532 268 572 z "},"f":{"ha":526,"x_min":0,"x_max":0,"o":"m 300 -1 l 307 6 l 307 486 b 510 476 374 482 442 483 b 526 582 521 481 526 569 l 526 594 b 518 664 526 619 525 665 l 311 664 b 308 686 310 671 308 679 b 336 742 308 707 313 733 b 526 768 375 756 514 756 b 536 900 526 813 536 857 b 506 963 536 925 535 963 b 107 667 313 963 107 960 b 15 668 76 667 46 668 b 7 585 6 658 7 626 b 19 485 7 539 10 489 b 111 486 50 485 81 486 b 106 49 111 339 106 194 b 153 -7 106 13 108 -7 b 274 0 192 -7 232 0 b 300 -1 282 0 290 -1 z m 158 7 b 126 8 147 7 136 7 b 125 493 126 169 125 332 b 118 500 122 496 119 497 b 26 499 88 500 57 499 l 22 654 b 115 653 53 654 83 653 b 122 663 117 656 119 658 b 118 704 119 676 118 690 b 251 919 118 793 171 883 b 514 949 328 954 433 949 b 522 890 519 929 522 910 b 513 775 522 851 514 813 b 293 699 417 772 293 768 b 306 650 293 689 293 656 l 508 650 b 506 625 507 642 506 633 b 507 550 506 618 507 583 b 503 492 507 524 506 497 b 301 501 435 497 368 496 l 293 493 l 293 13 b 158 7 249 13 203 7 z "},"g":{"ha":649,"x_min":0,"x_max":0,"o":"m 404 -286 b 526 -250 447 -286 489 -276 b 600 -79 604 -194 597 -164 b 608 215 603 19 608 117 l 608 442 b 603 693 608 525 606 610 b 533 704 594 701 564 704 b 478 703 511 704 490 703 l 444 703 b 396 669 418 703 396 699 b 399 657 396 665 397 661 l 399 640 b 272 699 372 682 322 699 b 19 300 86 699 19 532 b 292 -8 19 10 147 -8 b 397 17 329 -8 367 -4 b 396 8 397 14 396 11 b 401 -36 396 -6 401 -17 b 324 -131 401 -100 365 -131 b 244 -51 289 -131 244 -106 b 156 -40 228 -43 193 -40 b 53 -79 89 -40 53 -43 b 64 -137 53 -99 58 -118 b 404 -286 106 -294 278 -286 z m 518 -239 b 428 -271 492 -258 460 -271 b 365 -272 408 -274 386 -272 b 78 -133 250 -272 115 -265 b 67 -79 72 -117 67 -99 b 133 -51 67 -51 103 -51 b 233 -62 168 -51 207 -58 b 319 -144 233 -117 276 -144 b 417 -26 378 -144 417 -106 b 413 14 417 -12 413 1 b 415 31 413 19 414 25 b 404 39 411 33 407 36 b 275 6 369 4 321 6 b 33 301 142 6 33 33 b 272 686 33 525 97 686 b 349 668 297 686 325 681 b 401 617 367 657 388 615 l 404 617 b 415 640 413 625 415 626 b 411 675 415 653 411 663 b 479 689 411 692 461 689 b 589 686 515 689 553 686 b 594 438 593 604 594 521 l 594 217 b 586 -78 594 117 589 18 b 518 -239 583 -156 589 -189 z m 181 318 l 181 315 b 319 149 181 240 224 149 b 421 289 413 149 421 194 b 300 526 421 433 417 526 b 181 318 203 522 181 390 z m 322 160 b 194 317 247 160 194 235 b 308 514 194 392 218 514 b 403 383 397 514 397 440 b 411 282 404 360 411 321 b 322 160 411 210 394 160 z "},"h":{"ha":622,"x_min":0,"x_max":0,"o":"m 585 472 b 408 694 585 603 572 694 b 258 642 365 694 294 678 b 239 632 251 638 244 635 l 239 897 b 240 956 239 900 240 929 b 238 997 240 974 240 989 l 238 1007 b 199 1017 238 1015 221 1017 b 99 1007 139 1017 129 1007 b 50 1011 82 1007 65 1011 b 38 924 40 1006 38 965 b 44 -8 38 614 44 300 l 79 -8 b 156 -14 106 -8 129 -14 b 229 4 179 -14 222 -8 b 235 108 229 39 235 72 b 228 342 235 186 228 264 b 317 460 228 393 238 460 b 360 447 344 449 357 447 b 388 325 388 413 382 367 b 393 213 392 288 393 250 b 392 24 393 149 392 86 b 510 -10 392 -32 488 -10 b 582 3 540 -10 576 -8 b 578 69 579 25 578 47 b 585 472 578 204 585 339 z m 567 8 b 478 3 538 4 507 3 b 407 4 454 3 431 4 b 403 60 404 21 403 40 b 406 153 403 92 406 125 l 406 239 b 360 461 406 310 407 451 b 310 472 350 472 321 472 b 211 318 228 472 211 406 b 219 146 211 260 219 200 b 215 10 219 100 215 54 b 132 3 188 1 160 3 b 96 7 122 6 108 7 b 57 4 82 7 68 6 b 53 840 57 282 53 560 b 57 996 53 892 54 944 b 110 990 71 994 90 990 b 224 1003 149 990 185 1003 b 225 990 224 997 224 996 l 225 621 l 236 614 b 410 681 290 649 344 681 b 571 479 561 681 571 600 b 564 60 571 339 564 199 b 567 8 564 43 565 25 z "},"i":{"ha":288,"x_min":0,"x_max":0,"o":"m 244 997 l 238 1004 l 49 1008 b 40 988 42 1004 40 996 b 47 811 40 928 47 869 b 169 796 60 797 131 796 b 249 819 193 796 249 800 b 250 886 249 835 250 861 b 244 950 250 913 249 938 z m 229 965 b 232 943 229 957 229 950 b 235 822 232 903 235 863 b 175 810 224 813 201 810 b 61 817 133 810 85 817 b 54 969 61 868 54 918 b 56 994 54 978 56 986 l 231 990 b 229 965 229 982 229 974 z m 250 699 l 243 706 b 54 710 179 706 117 710 b 47 701 51 707 50 704 l 47 706 b 39 515 40 706 39 517 b 43 143 39 390 43 267 b 39 1 43 96 43 49 l 47 -7 b 74 -6 54 -6 64 -6 b 185 -11 106 -6 149 -11 b 249 8 210 -11 249 -7 b 243 224 244 81 243 153 b 250 699 243 382 250 540 z m 229 224 b 235 11 229 153 231 82 b 181 1 218 4 200 1 b 54 8 139 1 93 8 b 58 169 57 63 58 115 b 54 501 58 281 54 390 b 61 696 54 567 56 631 b 236 692 118 696 176 692 b 229 224 236 536 229 381 z "},"í":{"ha":288,"x_min":0,"x_max":0,"o":"m 265 1053 b 33 826 181 983 115 896 l 33 815 b 144 803 42 807 96 803 b 231 813 196 803 224 806 b 371 946 247 849 336 911 l 371 954 b 265 1053 339 986 303 1033 z m 218 821 b 151 815 197 817 175 815 b 51 824 117 815 82 818 b 269 1038 126 893 190 974 b 356 950 297 1008 326 979 b 218 821 317 913 236 856 z m 240 703 b 233 710 238 706 235 707 b 96 704 188 710 142 704 b 68 706 86 704 78 706 l 44 706 l 38 697 b 43 219 38 538 43 378 b 39 10 43 149 42 79 b 101 -11 47 -8 68 -11 b 235 -6 146 -11 199 -6 b 242 -7 238 -6 239 -7 b 249 0 243 -4 246 -3 b 243 163 244 54 243 108 b 249 540 243 289 249 414 b 240 703 249 596 240 649 z m 106 3 b 53 11 85 3 67 4 b 56 215 56 79 56 147 b 51 692 56 375 51 533 l 68 692 b 94 690 76 692 86 690 b 226 696 139 690 182 696 b 232 511 231 633 232 572 b 228 181 232 401 228 292 b 233 8 228 124 229 65 b 106 3 196 8 146 3 z "},"î":{"ha":288,"x_min":0,"x_max":0,"o":"m 376 819 l 382 831 l 156 1056 b 146 1057 151 1056 149 1056 b -79 831 67 983 -14 915 l -75 818 b 25 810 -44 813 -4 810 b 146 879 106 810 90 839 l 157 868 b 265 807 175 832 203 807 b 376 819 322 807 340 819 z m 360 832 b 300 824 339 831 319 825 b 217 826 272 824 244 825 l 204 835 b 150 893 186 853 171 879 l 142 893 b 33 825 100 865 107 825 b -62 831 -4 825 -51 829 b 150 1042 0 910 76 972 b 360 832 219 972 289 901 z m 250 699 l 243 706 b 54 710 179 706 117 710 b 47 701 51 707 50 704 l 47 706 b 39 515 40 706 39 517 b 43 143 39 390 43 267 b 39 1 43 96 43 49 l 47 -7 b 74 -6 54 -6 64 -6 b 185 -11 106 -6 149 -11 b 249 8 210 -11 249 -7 b 243 224 244 81 243 153 b 250 699 243 382 250 540 z m 229 224 b 235 11 229 153 231 82 b 181 1 218 4 200 1 b 54 8 139 1 93 8 b 58 169 57 63 58 115 b 54 501 58 281 54 390 b 61 696 54 567 56 631 b 236 692 118 696 176 692 b 229 224 236 536 229 381 z "},"ï":{"ha":288,"x_min":0,"x_max":0,"o":"m 121 1058 l 113 1058 l -76 1063 b -85 1042 -83 1058 -85 1050 b -78 865 -85 982 -78 924 b 44 850 -65 851 6 850 b 124 874 68 850 124 854 b 125 940 124 889 126 915 z m 375 1058 l 368 1058 l 179 1063 b 171 1042 172 1058 171 1050 b 178 865 171 982 178 924 b 300 850 190 851 261 850 b 379 874 324 850 379 854 b 381 940 379 889 382 915 z m 106 1044 l 110 876 b 50 864 99 867 76 864 b -64 871 8 864 -40 871 b -71 1024 -64 922 -71 972 b -69 1049 -71 1032 -69 1040 z m 361 1044 l 365 876 b 306 864 354 867 332 864 b 192 871 264 864 215 871 b 185 1024 192 922 185 972 b 186 1049 185 1032 186 1040 z m 250 699 l 243 706 b 54 710 179 706 117 710 b 47 701 51 707 50 704 l 47 706 b 39 515 40 706 39 517 b 43 143 39 390 43 267 b 39 1 43 96 43 49 l 47 -7 b 74 -6 54 -6 64 -6 b 185 -11 106 -6 149 -11 b 249 8 210 -11 249 -7 b 243 224 244 81 243 153 b 250 699 243 382 250 540 z m 229 224 b 235 11 229 153 231 82 b 181 1 218 4 200 1 b 54 8 139 1 93 8 b 58 169 57 63 58 115 b 54 501 58 281 54 390 b 61 696 54 567 56 631 b 236 692 118 696 176 692 b 229 224 236 536 229 381 z "},"ì":{"ha":288,"x_min":0,"x_max":0,"o":"m 22 1053 l 14 1053 b -82 956 -18 1019 -50 988 l -82 944 b 58 813 -82 924 38 851 b 142 803 58 804 100 803 b 254 815 186 803 236 806 l 254 826 b 196 885 232 843 214 865 b 22 1053 142 943 86 1006 z m 18 1038 b 186 875 79 992 133 932 b 235 824 201 857 217 839 b 136 815 213 818 171 815 b 68 821 106 815 78 818 b -69 950 53 851 -39 922 z m 250 699 l 243 706 b 54 710 179 706 117 710 b 47 701 51 707 50 704 l 47 706 b 39 515 40 706 39 517 b 43 143 39 390 43 267 b 39 1 43 96 43 49 l 47 -7 b 74 -6 54 -6 64 -6 b 185 -11 106 -6 149 -11 b 249 8 210 -11 249 -7 b 243 224 244 81 243 153 b 250 699 243 382 250 540 z m 229 224 b 235 11 229 153 231 82 b 181 1 218 4 200 1 b 54 8 139 1 93 8 b 58 169 57 63 58 115 b 54 501 58 281 54 390 b 61 696 54 567 56 631 b 236 692 118 696 176 692 b 229 224 236 536 229 381 z "},"ĳ":{"ha":694,"x_min":0,"x_max":0,"o":"m 250 886 l 246 1007 b 49 1008 182 1008 111 1007 b 40 988 42 1004 40 996 b 47 811 40 928 47 869 b 169 796 60 797 131 796 b 249 819 193 796 249 800 b 250 886 249 835 251 861 z m 649 906 l 646 1006 b 456 1008 583 1007 517 1007 b 447 988 449 1004 447 996 b 454 811 447 928 454 869 b 574 796 467 797 538 796 b 653 846 632 796 653 806 b 649 906 653 868 649 893 z m 229 965 b 232 943 229 957 229 950 b 235 822 232 903 235 863 b 175 810 224 813 201 810 b 61 817 133 810 85 817 b 54 969 61 868 54 918 b 56 994 54 978 56 986 l 231 990 b 229 965 229 982 229 974 z m 633 990 l 638 822 l 638 821 b 575 810 619 813 599 810 b 468 817 539 810 499 817 b 461 969 468 868 461 918 b 463 994 461 978 463 986 z m 243 224 l 249 708 b 54 710 185 708 117 710 b 39 515 42 725 39 515 b 43 143 39 390 43 267 b 40 -7 43 96 44 40 b 185 -11 92 -11 138 -11 b 249 8 210 -11 249 -7 b 243 224 244 81 242 153 z m 465 697 l 451 700 l 451 -14 b 238 -71 411 -76 281 -50 b 225 -172 229 -99 225 -133 b 244 -267 225 -203 228 -258 b 307 -268 265 -268 286 -268 b 618 -165 396 -268 550 -258 b 642 -72 638 -139 638 -103 b 653 235 654 29 653 132 b 651 419 653 297 651 358 b 657 646 651 490 657 568 b 625 703 657 675 653 703 b 501 692 588 703 540 692 b 465 697 489 692 476 693 z m 229 224 b 235 11 229 153 231 82 b 181 1 218 4 200 1 b 54 8 139 1 93 8 b 58 169 57 63 58 115 b 54 501 58 281 54 390 b 61 696 54 567 56 631 b 236 692 118 696 176 692 b 229 224 236 536 229 381 z m 619 689 b 638 688 625 689 632 688 b 642 633 640 671 642 651 b 636 389 642 551 636 471 b 638 172 636 317 638 244 b 618 -136 638 69 635 -33 b 314 -254 568 -236 425 -254 b 250 -253 290 -254 269 -254 b 238 -167 243 -233 238 -201 b 249 -79 238 -136 242 -104 b 464 -21 310 -79 435 -76 b 467 110 469 -10 467 103 l 467 247 b 471 681 467 393 471 536 b 500 678 479 679 489 678 b 619 689 538 678 581 689 z "},"j":{"ha":283,"x_min":0,"x_max":0,"o":"m 236 997 l 229 1004 l 44 1008 b 36 988 38 1004 36 996 b 43 811 36 928 43 869 b 163 796 56 797 126 796 b 242 846 221 796 242 806 z m 221 965 b 224 943 221 957 221 950 b 226 822 224 903 226 863 l 226 821 b 164 810 208 813 188 810 b 57 817 128 810 88 817 b 50 969 57 868 50 918 b 51 994 50 978 51 986 l 222 990 b 221 965 221 982 221 974 z m 54 697 l 46 689 b 40 -14 46 454 40 219 b -174 -71 0 -76 -131 -50 b -186 -172 -182 -99 -186 -133 b -167 -267 -186 -203 -183 -258 b -104 -268 -146 -268 -125 -268 b 207 -165 -15 -268 139 -258 b 231 -72 226 -139 226 -103 b 242 235 243 29 242 132 b 240 419 242 297 240 358 b 246 646 240 490 246 568 b 214 703 246 675 242 703 b 90 692 176 703 129 692 b 54 697 78 692 65 693 z m 208 689 b 226 688 214 689 221 688 b 231 633 229 671 231 651 b 225 389 231 551 225 471 b 226 172 225 317 226 244 b 207 -136 226 69 224 -33 b -97 -254 157 -236 14 -254 b -161 -253 -121 -254 -142 -254 b -174 -167 -168 -233 -174 -201 b -162 -79 -174 -136 -169 -104 b 53 -21 -101 -79 24 -76 b 56 110 58 -10 56 103 l 56 247 b 60 681 56 393 60 536 b 89 678 68 679 78 678 b 208 689 126 678 169 689 z "},"k":{"ha":604,"x_min":0,"x_max":0,"o":"m 243 581 b 249 704 243 622 249 664 l 249 1008 b 133 1019 238 1028 156 1019 b 46 1007 97 1019 57 1018 b 39 335 46 783 39 558 b 46 -1 39 222 42 111 b 167 -12 76 -17 119 -12 b 243 -3 196 -12 226 -11 b 253 99 251 31 253 64 b 249 246 253 149 249 199 b 347 65 289 190 318 126 b 450 -15 368 19 364 -15 b 622 3 511 -15 613 -11 b 382 407 547 142 463 272 b 608 714 457 510 539 607 b 603 725 606 718 604 721 b 463 717 560 725 510 717 b 385 729 435 717 408 719 b 246 538 328 672 299 596 b 243 581 244 551 243 567 z m 235 1003 l 235 703 b 229 567 235 658 229 611 b 246 518 229 546 231 524 b 314 606 272 543 293 574 b 385 714 339 631 358 682 b 456 703 406 706 429 703 b 590 711 500 703 550 711 b 368 410 522 607 442 511 l 368 404 b 604 7 447 271 531 143 b 461 -3 558 7 508 -3 b 396 6 439 -3 417 -1 b 247 272 340 92 307 189 b 235 267 243 271 239 268 b 240 108 235 215 240 161 b 231 7 240 74 238 40 b 114 3 193 6 153 3 b 60 6 96 3 76 3 b 53 338 56 117 53 226 b 60 1001 53 558 60 781 b 183 1006 99 1001 142 1006 b 235 1003 200 1006 218 1006 z "},"l":{"ha":286,"x_min":0,"x_max":0,"o":"m 254 1011 l 243 1013 l 54 1017 b 46 1015 51 1015 49 1017 b 35 751 36 929 35 838 b 46 264 35 589 46 426 b 36 -6 46 176 40 82 b 183 -11 86 -6 139 -11 b 249 8 208 -11 249 -7 b 240 153 243 56 240 104 b 254 1011 240 439 254 726 z m 236 999 b 229 317 236 771 229 543 b 226 146 229 260 226 203 b 233 11 226 100 228 56 b 181 1 218 4 200 1 b 74 10 146 1 107 10 b 53 8 67 10 60 8 b 60 267 57 94 60 181 b 47 761 60 432 47 597 b 60 1003 47 842 50 922 z "},"m":{"ha":950,"x_min":0,"x_max":0,"o":"m 913 467 b 736 694 913 606 904 694 b 564 631 658 694 619 657 b 418 694 538 675 478 694 b 239 631 340 694 282 663 b 236 699 238 653 236 676 b 199 704 232 703 217 704 b 99 694 139 704 129 694 b 50 699 82 694 65 699 b 38 592 39 693 38 643 b 46 -8 38 388 46 193 l 81 -8 b 157 -14 107 -8 131 -14 b 231 4 181 -14 224 -8 b 236 108 231 39 236 72 b 229 342 236 186 229 264 b 318 460 229 393 239 460 b 361 447 346 449 358 447 b 389 325 389 413 383 367 b 394 213 393 288 394 250 b 393 24 394 149 393 86 b 507 -10 393 -32 488 -10 b 583 6 539 -10 578 -8 b 578 78 579 29 578 53 b 586 443 578 201 586 322 b 640 460 600 454 621 460 b 679 451 654 460 668 457 l 681 450 b 721 213 722 450 721 243 b 719 24 721 149 719 86 b 838 -10 719 -32 815 -10 b 910 3 868 -10 904 -8 b 906 69 907 25 906 47 b 913 467 906 203 913 332 z m 894 8 b 806 3 865 4 835 3 b 735 4 782 3 758 4 b 731 60 732 21 731 40 b 733 153 731 92 733 125 l 733 239 b 639 474 733 368 732 474 b 572 446 615 474 582 465 b 564 75 572 322 564 199 b 568 8 564 53 565 31 b 479 3 539 4 508 3 b 408 4 456 3 432 4 b 404 60 406 21 404 40 b 407 153 404 92 407 125 l 407 239 b 361 461 407 310 408 451 b 311 472 351 472 322 472 b 213 318 229 472 213 406 b 221 146 213 260 221 200 b 217 10 221 100 217 54 b 133 3 189 1 161 3 b 97 7 124 6 110 7 b 58 4 83 7 69 6 b 53 461 57 156 53 308 b 57 683 53 536 54 610 b 110 678 71 682 90 678 b 224 690 149 678 185 690 b 226 618 226 667 224 642 l 238 614 b 422 678 296 653 354 678 b 554 619 453 678 538 674 l 565 615 b 738 681 617 650 674 681 b 899 479 889 681 899 600 b 892 60 899 339 892 199 b 894 8 892 43 893 25 z "},"n":{"ha":625,"x_min":0,"x_max":0,"o":"m 588 472 b 411 694 588 603 575 694 b 240 631 354 694 289 667 b 238 699 239 653 238 676 b 200 704 233 703 218 704 b 100 694 140 704 131 694 b 51 699 83 694 67 699 b 39 592 40 693 39 643 b 47 -10 39 388 47 192 l 158 -14 b 232 4 182 -15 225 -8 b 238 108 232 39 238 72 b 231 342 238 186 231 264 b 319 460 231 393 240 460 b 363 447 347 449 360 447 b 390 325 390 413 385 367 b 396 213 394 288 396 250 b 394 24 396 149 394 86 b 513 -10 394 -32 490 -10 b 585 3 543 -10 579 -8 b 581 69 582 25 581 47 b 588 472 581 204 588 339 z m 569 8 b 481 3 540 4 510 3 b 410 4 457 3 433 4 b 406 60 407 21 406 40 b 408 153 406 92 408 125 l 408 239 b 363 461 408 310 410 451 b 313 472 353 472 324 472 b 214 318 231 472 214 406 b 222 146 214 260 222 200 b 218 10 222 100 218 54 b 135 3 190 1 163 3 b 99 7 125 6 111 7 b 60 4 85 7 71 6 b 54 461 58 156 54 308 b 58 683 54 536 56 610 b 111 678 72 682 92 678 b 225 690 150 678 186 690 b 228 618 228 667 225 642 l 239 614 b 413 681 293 649 347 681 b 574 479 564 681 574 600 b 567 60 574 339 567 199 b 569 8 567 43 568 25 z "},"ñ":{"ha":625,"x_min":0,"x_max":0,"o":"m 197 811 l 204 818 b 199 850 204 829 199 839 b 263 906 199 889 232 906 b 435 804 340 906 322 804 b 607 1044 551 804 607 921 b 571 1044 589 1047 581 1044 b 532 1046 558 1044 546 1046 b 471 1036 510 1046 488 1044 b 401 953 463 1001 439 960 b 225 1058 336 965 331 1058 b 28 824 115 1058 53 922 l 35 815 b 129 817 67 815 97 817 b 197 811 150 810 175 815 z m 44 829 b 224 1043 72 914 111 1043 b 310 1017 253 1043 285 1036 b 401 939 342 992 363 939 b 483 1028 421 939 472 971 b 588 1031 490 1029 551 1029 b 435 818 588 915 539 818 b 264 922 318 818 354 922 b 185 844 219 922 185 888 b 188 826 185 839 186 832 b 136 829 169 829 153 829 b 44 829 107 839 74 829 z m 411 694 b 240 631 354 694 289 667 b 238 699 239 653 238 676 b 200 704 233 703 218 704 b 100 694 140 704 131 694 b 51 699 83 694 67 699 b 39 592 40 693 39 643 b 44 -12 39 385 44 189 l 82 -8 b 158 -14 108 -8 132 -14 b 232 4 182 -14 225 -8 b 238 108 232 39 238 72 b 231 342 238 186 231 264 b 319 460 231 393 240 460 b 363 447 347 449 360 447 b 390 325 390 413 385 367 b 396 213 394 288 396 250 b 394 24 396 149 394 86 b 513 -10 394 -32 490 -10 b 585 3 543 -10 579 -8 b 581 69 582 25 581 47 b 588 472 581 204 588 339 b 411 694 588 603 575 694 z m 569 8 b 481 3 540 4 510 3 b 410 4 457 3 433 4 b 406 60 407 21 406 40 b 408 153 406 92 408 125 l 408 239 b 363 461 408 310 410 451 b 313 472 353 472 324 472 b 214 318 231 472 214 406 b 222 146 214 260 222 200 b 218 10 222 100 218 54 b 135 3 190 1 163 3 b 99 7 125 6 111 7 b 60 4 85 7 71 6 b 54 461 58 156 54 308 b 58 683 54 536 56 610 b 111 678 72 682 92 678 b 225 690 150 678 186 690 b 228 618 228 667 225 642 l 239 614 b 413 681 293 649 347 681 b 574 479 564 681 574 600 b 567 60 574 339 567 199 b 569 8 567 43 568 25 z "},"o":{"ha":622,"x_min":0,"x_max":0,"o":"m 242 719 b 56 635 199 719 79 706 b 33 560 50 610 36 585 b 28 403 28 508 28 456 l 28 272 b 79 67 28 217 32 117 b 300 -18 163 -19 183 -10 b 364 -22 321 -19 343 -22 b 572 93 450 -22 549 3 b 599 440 600 203 599 307 b 519 674 599 531 588 631 b 332 721 456 714 400 721 b 242 719 304 721 274 719 z m 47 557 b 69 631 50 582 64 607 b 243 706 89 700 224 706 b 343 707 282 706 315 707 b 539 640 418 707 464 699 b 585 397 574 586 585 492 b 572 189 585 319 576 240 b 365 -10 563 82 542 -10 b 311 -6 344 -10 326 -8 b 172 13 263 1 219 -4 b 40 357 31 63 40 244 b 47 557 40 424 40 492 z m 318 513 b 232 475 285 513 251 499 b 208 371 213 456 208 413 b 210 294 208 342 210 314 b 208 251 210 279 208 267 b 321 175 208 201 265 175 b 425 336 396 175 425 226 b 318 513 425 454 393 513 z m 222 363 b 242 465 222 406 225 449 b 317 497 260 486 289 497 b 410 339 381 497 410 457 b 319 189 410 239 392 189 b 221 251 271 189 221 211 b 224 288 221 264 224 276 b 222 363 224 306 222 333 z "},"ó":{"ha":622,"x_min":0,"x_max":0,"o":"m 533 946 l 533 954 b 428 1053 501 986 465 1033 b 196 826 343 983 278 896 l 196 815 b 307 803 204 807 258 803 b 393 813 358 803 386 806 b 533 946 410 849 499 911 z m 518 950 b 381 821 479 913 399 856 b 314 815 360 817 338 815 b 214 824 279 815 244 818 b 432 1038 289 893 353 974 b 518 950 460 1008 489 979 z m 242 719 b 56 635 199 719 79 706 b 33 560 50 610 36 585 b 28 403 28 508 28 456 l 28 272 b 79 67 28 217 32 117 b 300 -18 163 -19 183 -10 b 364 -22 321 -19 343 -22 b 572 93 450 -22 549 3 b 599 440 600 203 599 307 b 519 674 599 531 588 631 b 332 721 456 714 400 721 b 242 719 304 721 274 719 z m 47 557 b 69 631 50 582 64 607 b 243 706 89 700 224 706 b 343 707 282 706 315 707 b 539 640 418 707 464 699 b 585 397 574 586 585 492 b 572 189 585 319 576 240 b 365 -10 563 82 542 -10 b 311 -6 344 -10 326 -8 b 172 13 263 1 219 -4 b 40 357 31 63 40 244 b 47 557 40 424 40 492 z m 318 513 b 232 475 285 513 251 499 b 208 371 213 456 208 413 b 210 294 208 342 210 314 b 208 251 210 279 208 267 b 321 175 208 201 265 175 b 425 336 396 175 425 226 b 318 513 425 454 393 513 z m 222 363 b 242 465 222 406 225 449 b 317 497 260 486 289 497 b 410 339 381 497 410 457 b 319 189 410 239 392 189 b 221 251 271 189 221 211 b 224 288 221 264 224 276 b 222 363 224 306 222 333 z "},"ô":{"ha":622,"x_min":0,"x_max":0,"o":"m 549 819 l 554 831 l 328 1056 b 318 1057 324 1056 321 1056 b 93 831 239 983 158 915 l 97 818 b 197 810 128 813 168 810 b 318 879 278 810 263 839 l 329 868 b 438 807 347 832 375 807 b 549 819 494 807 513 819 z m 532 832 b 472 824 511 831 492 825 b 389 826 444 824 417 825 l 376 835 b 322 893 358 853 343 879 l 314 893 b 206 825 272 865 279 825 b 110 831 168 825 121 829 b 322 1042 172 910 249 972 b 532 832 392 972 461 901 z m 242 719 b 56 635 199 719 79 706 b 33 560 50 610 36 585 b 28 403 28 508 28 456 l 28 272 b 79 67 28 217 32 117 b 300 -18 163 -19 183 -10 b 364 -22 321 -19 343 -22 b 572 93 450 -22 549 3 b 599 440 600 203 599 307 b 519 674 599 531 588 631 b 332 721 456 714 400 721 b 242 719 304 721 274 719 z m 47 557 b 69 631 50 582 64 607 b 243 706 89 700 224 706 b 343 707 282 706 315 707 b 539 640 418 707 464 699 b 585 397 574 586 585 492 b 572 189 585 319 576 240 b 365 -10 563 82 542 -10 b 311 -6 344 -10 326 -8 b 172 13 263 1 219 -4 b 40 357 31 63 40 244 b 47 557 40 424 40 492 z m 318 513 b 232 475 285 513 253 497 b 208 371 213 456 208 413 b 210 294 208 342 210 314 b 208 251 210 279 208 267 b 321 175 208 201 265 175 b 425 336 396 175 425 226 b 318 513 425 454 393 513 z m 222 363 b 242 465 222 406 225 449 b 317 497 260 486 289 497 b 410 339 381 497 410 457 b 319 189 410 239 392 189 b 221 251 271 189 221 211 b 224 288 221 264 224 276 b 222 363 224 306 222 333 z "},"ö":{"ha":622,"x_min":0,"x_max":0,"o":"m 276 1051 l 269 1058 l 81 1063 b 72 1042 74 1058 72 1050 b 79 865 72 982 79 924 b 201 850 92 851 163 850 b 281 874 225 850 281 854 b 282 940 281 889 282 915 b 276 1004 282 967 281 992 z m 532 1051 l 525 1058 l 336 1063 b 328 1042 329 1058 328 1050 b 335 865 328 982 335 924 b 457 850 347 851 418 850 b 536 874 481 850 536 854 b 538 940 536 889 538 915 b 532 1004 538 967 536 992 z m 261 1019 b 264 997 261 1011 261 1004 b 267 876 264 957 267 917 b 207 864 256 867 233 864 b 93 871 165 864 117 871 b 86 1024 93 922 86 972 b 88 1049 86 1032 88 1040 l 263 1044 b 261 1019 261 1036 261 1028 z m 517 1019 b 519 997 517 1011 517 1004 b 522 876 519 957 522 917 b 463 864 511 867 489 864 b 349 871 421 864 372 871 b 342 1024 349 922 342 972 b 343 1049 342 1032 343 1040 l 518 1044 b 517 1019 517 1036 517 1028 z m 242 719 b 56 635 199 719 79 706 b 33 560 50 610 36 585 b 28 403 28 508 28 456 l 28 272 b 79 67 28 217 32 117 b 300 -18 163 -19 183 -10 b 364 -22 321 -19 343 -22 b 572 93 450 -22 549 3 b 599 440 600 203 599 307 b 519 674 599 531 588 631 b 332 721 456 714 400 721 b 242 719 304 721 274 719 z m 47 557 b 69 631 50 582 64 607 b 243 706 89 700 224 706 b 343 707 282 706 315 707 b 539 640 418 707 464 699 b 585 397 574 586 585 492 b 572 189 585 319 576 240 b 365 -10 563 82 542 -10 b 311 -6 344 -10 326 -8 b 172 13 263 1 219 -4 b 40 357 31 63 40 244 b 47 557 40 424 40 492 z m 318 513 b 232 475 285 513 251 499 b 208 371 213 456 208 413 b 210 294 208 342 210 314 b 208 251 210 279 208 267 b 321 175 208 201 265 175 b 425 336 396 175 425 226 b 318 513 425 454 393 513 z m 222 363 b 242 465 222 406 225 449 b 317 497 260 486 289 497 b 410 339 381 497 410 457 b 319 189 410 239 392 189 b 221 251 271 189 221 211 b 224 288 221 264 224 276 b 222 363 224 306 222 333 z "},"ò":{"ha":622,"x_min":0,"x_max":0,"o":"m 210 1053 l 201 1053 b 106 956 169 1019 138 988 l 106 944 b 246 813 106 924 225 851 b 329 803 246 804 288 803 b 442 815 374 803 424 806 l 442 826 b 383 885 419 843 401 865 b 210 1053 329 943 274 1006 z m 206 1038 b 374 875 267 992 321 932 b 422 824 389 857 404 839 b 324 815 400 818 358 815 b 256 821 293 815 265 818 b 118 950 240 851 149 922 z m 242 719 b 56 635 199 719 79 706 b 33 560 50 610 36 585 b 28 403 28 508 28 456 l 28 272 b 79 67 28 217 32 117 b 300 -18 163 -19 183 -10 b 364 -22 321 -19 343 -22 b 572 93 450 -22 549 3 b 599 440 600 203 599 307 b 519 674 599 531 588 631 b 332 721 456 714 400 721 b 242 719 304 721 274 719 z m 47 557 b 69 631 50 582 64 607 b 243 706 89 700 224 706 b 343 707 282 706 315 707 b 539 640 418 707 464 699 b 585 397 574 586 585 492 b 572 189 585 319 576 240 b 365 -10 563 82 542 -10 b 311 -6 344 -10 326 -8 b 172 13 263 1 219 -4 b 40 357 31 63 40 244 b 47 557 40 424 40 492 z m 318 513 b 232 475 285 513 251 499 b 208 371 213 456 208 413 b 210 294 208 342 210 314 b 208 251 210 279 208 267 b 321 175 208 201 265 175 b 425 336 396 175 425 226 b 318 513 425 454 393 513 z m 222 363 b 242 465 222 406 225 449 b 317 497 260 486 289 497 b 410 339 381 497 410 457 b 319 189 410 239 392 189 b 221 251 271 189 221 211 b 224 288 221 264 224 276 b 222 363 224 306 222 333 z "},"ø":{"ha":488,"x_min":0,"x_max":0,"o":"m 457 263 b 458 414 457 314 458 363 b 461 467 460 431 461 449 b 415 625 461 524 450 583 b 414 632 414 628 414 631 b 432 692 414 653 432 671 b 379 707 418 706 399 707 b 315 704 358 707 336 704 b 288 707 306 704 296 707 b 276 686 278 707 276 692 b 236 688 264 688 250 688 b 35 483 103 688 35 625 b 25 328 35 432 25 381 b 57 53 25 236 38 143 b 31 -31 44 25 31 -14 b 117 -46 31 -49 89 -46 b 171 -40 135 -46 154 -44 b 325 -14 168 -21 300 -21 b 457 263 447 19 457 156 z m 444 415 l 444 413 b 443 264 444 363 443 314 b 264 -6 443 151 439 -6 b 239 -4 256 -6 247 -4 b 176 -15 219 -4 188 -4 l 164 -28 b 118 -32 149 -31 135 -32 b 44 -29 94 -32 68 -29 b 69 47 56 -1 58 22 l 71 49 b 72 53 71 50 72 51 l 71 56 b 49 171 71 89 51 136 b 42 267 46 203 42 235 l 42 385 b 49 465 42 413 47 439 b 222 675 54 556 57 675 b 282 671 243 675 263 674 b 288 674 283 672 285 672 l 289 675 b 290 679 289 676 290 678 l 290 693 b 322 686 300 688 311 686 b 389 692 344 686 367 692 b 418 688 399 692 408 690 b 400 632 415 669 400 651 b 433 563 400 610 425 585 b 447 468 443 535 447 501 b 444 415 447 450 446 432 z m 140 258 l 153 258 b 226 481 176 333 203 407 b 244 542 231 496 244 526 b 238 549 242 544 239 546 b 147 397 149 549 150 458 b 135 293 144 364 133 353 b 140 258 135 278 136 264 z m 149 293 b 154 342 150 310 154 326 b 164 404 163 358 164 381 b 163 429 164 413 163 421 b 228 535 163 478 168 525 b 149 293 201 453 175 374 z m 332 375 l 319 378 b 226 117 279 299 254 176 b 229 111 226 115 228 114 l 235 106 b 339 244 322 119 339 178 b 332 375 339 288 332 335 z m 322 251 b 313 167 322 222 319 194 b 243 121 297 142 272 128 l 318 342 b 322 251 319 311 322 281 z "},"õ":{"ha":622,"x_min":0,"x_max":0,"o":"m 194 811 l 201 818 b 196 850 201 829 196 839 b 260 906 196 889 229 906 b 432 804 338 906 319 804 b 599 1036 549 804 599 913 b 596 1042 597 1036 596 1039 l 594 1043 b 589 1046 592 1044 590 1044 b 568 1044 582 1046 575 1044 b 529 1046 556 1044 543 1046 b 468 1036 507 1046 485 1044 b 399 953 460 1001 436 960 b 222 1058 333 965 328 1058 b 25 824 113 1058 50 922 l 32 815 b 126 817 64 815 94 817 b 194 811 147 810 172 815 z m 185 826 b 133 829 167 829 150 829 b 104 833 124 832 114 833 b 42 829 83 833 61 829 b 221 1043 69 914 108 1043 b 307 1017 250 1043 282 1036 b 399 939 339 992 360 939 b 481 1028 418 939 469 971 b 585 1031 488 1029 549 1029 b 432 818 585 915 536 818 b 261 922 315 818 351 922 b 182 844 217 922 182 888 b 185 826 182 839 183 832 z m 242 719 b 56 635 199 719 79 706 b 33 560 50 610 36 585 b 28 403 28 508 28 456 l 28 272 b 79 67 28 217 32 117 b 300 -18 163 -19 183 -10 b 364 -22 321 -19 343 -22 b 572 93 450 -22 549 3 b 599 440 600 203 599 307 b 519 674 599 531 588 631 b 332 721 456 714 400 721 b 242 719 304 721 274 719 z m 47 557 b 69 631 50 582 64 607 b 243 706 89 700 224 706 b 343 707 282 706 315 707 b 539 640 418 707 464 699 b 585 397 574 586 585 492 b 572 189 585 319 576 240 b 365 -10 563 82 542 -10 b 311 -6 344 -10 326 -8 b 172 13 263 1 219 -4 b 40 357 31 63 40 244 b 47 557 40 424 40 492 z m 318 513 b 232 475 285 513 251 499 b 208 371 213 456 208 413 b 210 294 208 342 210 314 b 208 251 210 279 208 267 b 321 175 208 201 265 175 b 425 336 396 175 425 226 b 318 513 425 454 393 513 z m 222 363 b 242 465 222 406 225 449 b 317 497 260 486 289 497 b 410 339 381 497 410 457 b 319 189 410 239 392 189 b 221 251 271 189 221 211 b 224 288 221 264 224 276 b 222 363 224 306 222 333 z "},"œ":{"ha":976,"x_min":0,"x_max":0,"o":"m 492 94 b 651 -6 538 36 569 6 b 735 -11 668 -8 699 -11 b 918 46 804 -11 897 1 b 953 258 947 79 942 203 b 900 275 944 275 922 275 b 796 269 867 275 828 269 b 772 271 788 269 779 269 l 761 271 b 690 151 761 226 754 151 b 583 336 597 151 583 236 b 628 331 596 332 611 331 b 708 333 661 331 683 333 b 956 357 774 333 932 333 b 958 414 958 375 958 394 b 879 650 958 499 936 590 b 704 699 828 704 781 699 b 500 631 629 699 553 689 b 317 701 468 699 379 701 b 61 575 208 701 117 683 b 10 350 28 511 10 432 b 235 -8 10 196 76 -8 b 492 94 332 -8 443 -1 z m 751 0 b 653 8 715 0 681 4 b 492 114 565 19 550 56 b 483 107 486 114 485 108 b 231 6 440 6 325 6 b 24 351 86 6 24 206 b 72 569 24 431 40 508 b 314 688 125 671 214 688 b 493 615 378 688 443 692 b 501 603 496 614 497 603 b 733 685 563 671 647 685 b 869 640 786 685 831 682 b 944 413 924 582 944 494 b 942 363 944 396 943 379 b 689 347 897 346 735 347 b 628 344 678 347 653 344 b 581 351 608 344 590 346 b 568 328 571 347 568 339 b 686 133 568 246 594 133 b 778 256 738 133 778 185 l 792 254 b 897 261 821 254 863 261 b 938 256 913 261 926 260 b 907 54 928 189 938 117 b 751 0 894 26 815 0 z m 806 454 b 749 567 806 500 792 544 b 686 581 729 576 708 581 b 571 469 621 581 571 544 b 615 443 571 449 592 443 b 806 454 625 443 806 438 z m 296 578 b 171 486 240 578 182 542 b 151 349 158 447 151 399 b 272 125 151 247 179 125 b 403 417 399 125 403 261 b 296 578 403 501 390 578 z m 682 569 b 742 554 701 569 721 564 b 792 458 779 536 792 497 b 625 456 713 465 679 456 b 585 464 610 456 596 458 b 682 569 585 529 628 569 z m 165 351 b 185 482 165 397 171 443 b 297 564 194 532 247 564 b 388 331 394 564 388 469 b 272 135 388 226 356 135 b 165 351 197 135 165 251 z "},"p":{"ha":644,"x_min":0,"x_max":0,"o":"m 233 -289 l 239 -282 b 246 -114 243 -225 246 -142 b 243 13 246 -74 244 -21 b 410 -8 282 -10 390 -8 b 622 317 572 -8 622 106 b 360 699 622 544 557 699 b 247 635 311 699 264 683 b 243 690 243 656 247 678 l 243 692 b 190 703 238 701 213 703 l 168 703 b 108 704 151 703 131 704 b 42 694 82 704 56 701 b 36 529 38 639 36 585 b 50 -282 36 257 50 -11 l 54 -290 l 64 -293 b 129 -299 81 -297 104 -299 b 233 -289 167 -299 208 -294 z m 131 -285 b 64 -278 106 -285 81 -283 b 50 525 64 -10 50 258 b 56 686 50 579 51 633 b 171 689 93 686 132 689 b 231 685 192 689 211 689 b 229 664 231 681 229 672 b 244 617 229 650 229 625 b 360 685 282 635 265 685 b 607 293 590 685 607 463 b 561 74 607 226 601 135 b 375 3 522 13 444 3 b 243 33 336 3 271 4 l 243 35 b 232 33 239 35 235 33 l 229 33 b 224 -236 229 24 224 -153 b 225 -276 224 -256 224 -271 b 131 -285 199 -282 164 -285 z m 454 257 l 454 254 b 467 346 463 282 467 317 b 329 526 467 439 401 526 b 218 269 218 526 218 394 b 315 151 218 206 231 151 b 454 257 383 151 444 185 z m 450 319 b 440 258 444 300 447 278 b 313 161 432 199 371 161 b 236 261 243 161 236 207 b 238 318 236 282 238 303 b 236 368 238 333 236 350 b 322 513 236 433 253 513 b 450 319 422 513 450 404 z "},"þ":{"ha":653,"x_min":0,"x_max":0,"o":"m 35 -244 l 189 -250 b 256 -228 224 -250 246 -246 b 250 -172 251 -210 250 -192 b 251 -126 250 -157 251 -142 l 251 56 b 406 -11 299 13 354 -11 b 633 357 553 -11 633 183 b 599 544 633 421 622 485 b 394 700 572 610 478 700 b 250 654 364 700 281 697 b 253 1004 250 771 253 888 b 50 1010 190 1017 113 1018 b 40 582 42 867 40 725 b 42 153 40 439 42 296 b 35 -244 42 22 40 -114 z m 250 76 l 238 71 l 238 -125 b 236 -176 238 -142 236 -160 b 240 -228 236 -194 238 -211 b 183 -236 226 -235 206 -236 b 49 -228 132 -236 82 -228 b 56 154 54 -101 56 26 b 54 561 56 290 54 426 b 64 1001 54 708 56 854 l 239 997 b 236 628 239 874 236 751 l 250 624 b 369 683 269 683 349 686 b 618 361 550 683 618 525 b 415 4 618 172 543 4 b 250 76 354 4 292 35 z m 464 347 b 454 418 464 368 461 396 b 308 511 440 486 368 511 b 236 422 257 511 236 489 b 239 361 236 396 239 371 b 238 301 239 346 238 324 b 332 185 238 211 275 185 b 464 347 418 185 464 264 z m 303 497 b 440 414 357 497 428 479 b 449 358 446 397 447 376 b 332 199 449 283 419 199 b 251 303 261 199 251 250 b 253 360 251 322 253 342 b 250 419 253 376 250 399 b 303 497 250 457 253 497 z "},"q":{"ha":643,"x_min":0,"x_max":0,"o":"m 400 -133 b 406 -265 400 -178 399 -214 l 406 -281 b 511 -299 421 -297 468 -299 b 594 -283 544 -299 588 -297 b 604 513 594 -18 604 247 b 603 693 604 572 604 633 b 526 703 593 701 558 703 b 476 703 507 703 488 703 l 447 703 b 397 657 410 703 397 697 b 399 638 397 647 399 639 b 397 635 399 636 399 635 b 272 700 374 682 324 700 b 21 285 43 700 21 450 b 71 68 21 208 32 131 b 283 -10 115 -4 203 -10 b 400 15 321 -10 371 -7 z m 419 -276 l 419 -267 b 414 -74 419 -228 414 -107 b 415 35 414 -37 414 -1 l 401 36 b 254 4 367 1 297 4 b 82 75 189 4 117 18 b 33 311 49 129 33 219 b 274 688 33 542 108 688 b 393 618 371 688 367 636 b 414 686 417 631 414 633 b 471 690 432 689 451 690 b 589 686 510 690 551 686 b 590 507 590 626 590 567 b 581 -278 590 246 581 -17 b 494 -285 554 -282 524 -285 b 419 -276 468 -285 443 -282 z m 192 254 l 190 256 b 338 151 201 179 264 151 b 424 314 417 151 424 203 b 315 525 424 472 389 525 b 178 335 229 525 178 429 b 192 254 178 306 182 278 z m 204 257 l 204 260 b 192 332 196 281 192 307 b 314 513 192 417 236 513 b 410 272 408 513 410 392 b 343 165 410 217 401 165 b 204 257 276 165 215 183 z "},"r":{"ha":511,"x_min":0,"x_max":0,"o":"m 46 -3 l 100 -7 b 190 -10 129 -7 161 -10 b 246 4 210 -10 240 -8 b 239 372 246 126 239 250 b 329 467 239 419 257 467 b 494 439 382 467 431 463 b 504 446 497 442 501 443 b 500 526 501 472 500 500 b 504 690 500 582 504 636 b 449 703 497 703 468 703 b 246 657 381 703 299 681 l 246 694 b 211 703 242 703 235 703 b 100 694 140 703 131 694 b 51 699 83 694 67 699 b 39 592 40 693 39 643 b 46 -3 39 385 46 199 z m 233 647 l 244 640 b 490 685 322 679 404 685 b 485 525 490 632 485 578 b 489 456 485 501 486 478 b 333 481 438 472 390 481 b 226 361 240 481 226 426 b 232 10 226 244 232 126 b 174 3 213 4 193 3 b 92 6 146 3 119 6 b 60 4 81 6 71 6 b 54 461 58 156 54 308 b 58 683 54 536 56 610 b 111 678 72 682 92 678 b 197 689 140 678 179 682 l 232 689 b 231 667 232 683 231 675 b 233 651 231 661 232 656 z "},"s":{"ha":625,"x_min":0,"x_max":0,"o":"m 607 474 l 613 481 b 535 682 613 551 594 636 b 300 731 472 729 378 731 b 22 514 181 731 22 693 b 256 296 22 389 139 315 b 392 215 307 288 392 274 b 313 151 392 175 360 151 b 228 213 272 151 232 171 l 232 213 b 228 214 231 213 229 214 l 228 219 b 153 231 219 228 185 231 b 90 229 128 231 104 229 l 68 229 b 8 217 44 229 19 228 b 328 -29 8 31 165 -29 b 606 213 449 -29 606 18 b 446 404 606 306 549 378 b 254 508 381 421 254 413 b 324 557 261 544 293 557 b 401 485 364 557 401 532 l 401 483 b 496 464 411 463 469 464 b 607 474 533 464 571 468 z m 496 476 b 415 486 468 476 442 479 b 319 572 415 543 365 572 b 240 503 279 572 240 549 b 443 390 240 400 379 407 b 589 211 544 363 589 296 b 314 -17 589 22 444 -17 b 22 213 171 -17 22 46 b 92 215 44 215 68 215 b 214 213 132 215 174 214 b 318 135 219 165 271 135 b 403 219 360 135 403 160 b 232 314 403 300 286 303 b 38 515 119 338 38 413 b 329 715 38 703 213 715 b 599 486 457 715 599 693 b 496 476 565 481 529 476 z "},"š":{"ha":625,"x_min":0,"x_max":0,"o":"m 310 760 b 538 996 389 835 471 910 b 401 1007 486 1007 443 1007 b 319 946 369 1007 329 965 l 310 938 b 201 1010 261 968 265 1015 l 60 999 b 301 760 135 924 225 835 z m 151 992 b 239 990 181 992 210 990 b 307 922 265 974 278 938 b 408 992 344 942 356 992 b 490 983 436 994 468 983 b 515 985 499 983 507 985 b 306 775 453 907 379 844 b 96 982 236 844 165 913 z m 496 464 b 607 474 533 464 571 468 l 613 481 b 535 682 613 551 594 636 b 300 731 472 729 378 731 b 22 514 181 731 22 693 b 256 296 22 389 139 315 b 392 215 307 288 392 274 b 313 151 392 175 360 151 b 228 213 272 151 232 171 l 232 213 b 228 214 231 213 229 214 l 228 219 b 153 231 219 228 185 231 b 90 229 128 231 104 229 l 68 229 b 8 217 44 229 19 228 b 328 -29 8 31 165 -29 b 606 213 449 -29 606 18 b 446 404 606 306 549 378 b 254 508 381 421 254 413 b 324 557 261 544 293 557 b 401 485 364 557 401 532 l 401 483 b 496 464 411 463 469 464 z m 319 572 b 240 503 279 572 240 549 b 443 390 240 400 379 407 b 589 211 544 363 589 296 b 314 -17 589 22 444 -17 b 22 213 171 -17 22 46 b 92 215 44 215 68 215 b 214 213 132 215 174 214 b 318 135 219 165 271 135 b 403 219 360 135 403 160 b 232 314 403 300 286 303 b 38 515 119 338 38 413 b 329 715 38 703 213 715 b 599 486 457 715 599 693 b 496 476 565 481 529 476 b 415 486 468 476 442 479 b 319 572 415 543 365 572 z "},"ß":{"ha":653,"x_min":0,"x_max":0,"o":"m 324 494 l 324 492 b 411 281 324 403 411 353 b 378 210 411 260 406 231 b 300 111 329 199 300 200 b 318 -7 300 63 306 -1 b 379 -11 338 -8 358 -11 b 646 235 561 -11 646 125 b 539 471 646 315 608 401 b 536 478 538 472 538 475 b 575 556 547 504 564 529 b 608 714 596 607 608 660 b 261 999 608 940 425 999 b 168 993 229 999 197 996 b 42 960 133 989 51 979 b 44 707 44 875 44 792 b 42 256 44 557 42 407 b 46 3 42 171 43 88 b 82 -8 56 -7 65 -8 b 117 -7 94 -8 107 -7 b 192 -10 150 -7 174 -10 b 239 83 239 -10 239 3 l 239 131 b 225 667 239 310 225 488 b 231 751 225 694 226 724 b 279 760 244 757 263 760 b 424 678 357 760 424 728 b 353 571 424 640 376 611 b 324 494 338 546 331 522 z m 426 279 b 338 490 426 354 339 406 b 364 564 343 515 349 543 b 436 681 394 606 436 640 b 279 772 436 715 401 772 b 218 757 257 772 233 772 b 211 664 213 726 211 696 b 228 104 211 475 228 321 b 217 7 228 64 225 28 b 60 8 164 7 111 8 b 56 278 57 99 56 188 b 58 715 56 424 58 569 b 56 957 58 796 57 876 b 267 985 122 974 196 985 b 594 701 432 985 594 919 b 563 561 594 653 581 606 b 522 476 553 539 521 500 b 632 249 557 406 632 358 b 363 4 632 76 499 4 b 324 7 350 4 336 6 b 313 103 318 31 313 68 b 404 214 313 224 374 168 b 426 279 419 238 426 260 z "},"t":{"ha":538,"x_min":0,"x_max":0,"o":"m 307 693 l 307 958 l 292 956 b 258 953 281 953 269 953 b 142 963 219 953 179 963 b 104 894 107 963 104 929 b 111 694 104 829 111 754 b 21 696 79 694 50 693 b 8 594 10 690 8 640 b 8 535 8 572 8 550 l 8 521 b 54 511 17 513 36 511 b 108 513 74 511 92 510 b 107 433 107 486 107 460 b 110 322 107 396 108 360 b 132 119 111 272 111 160 b 483 -8 192 -1 357 -8 b 525 -3 500 -8 515 -8 b 535 61 532 18 535 39 b 518 194 535 99 533 164 b 485 193 508 193 497 193 b 311 246 425 193 339 203 b 310 517 308 336 310 426 l 526 514 l 524 531 b 522 551 522 538 522 544 b 529 642 522 581 529 611 b 510 704 529 664 526 686 b 307 693 442 701 375 693 z m 292 940 l 292 679 b 506 690 361 679 433 686 b 514 644 513 676 514 660 b 506 553 514 613 506 581 b 508 531 506 544 507 538 l 296 531 b 296 283 293 528 299 525 b 294 257 296 275 294 267 b 481 179 294 197 419 179 b 511 181 492 179 503 179 b 521 63 515 140 521 103 b 513 7 521 43 518 25 b 453 6 494 6 474 6 b 160 94 351 6 221 18 b 132 206 136 124 136 172 b 121 419 124 276 121 347 b 124 532 121 457 121 496 b 22 526 94 529 53 526 l 26 681 b 85 678 46 681 61 678 b 125 688 101 678 117 679 b 122 929 125 768 122 849 b 144 949 122 940 125 949 b 263 938 183 949 224 938 b 292 940 272 938 282 939 z "},"u":{"ha":625,"x_min":0,"x_max":0,"o":"m 382 33 b 386 0 382 22 383 10 l 386 1 b 426 -10 390 -8 394 -10 b 564 -4 539 -6 553 -4 b 581 3 571 -4 574 -4 b 583 211 583 72 583 142 b 579 699 583 374 579 536 b 572 706 576 701 574 703 b 540 703 561 704 551 703 b 467 708 514 703 493 708 b 397 697 443 708 417 703 l 393 689 b 386 594 393 657 386 626 b 394 354 386 515 394 435 b 304 233 394 299 383 233 b 263 247 293 236 263 246 l 256 254 b 228 436 232 301 228 369 b 231 649 228 513 231 578 b 221 704 231 668 229 686 l 108 704 b 40 690 81 704 53 703 b 42 633 40 671 42 651 b 35 288 42 517 35 403 b 39 164 35 246 36 206 b 67 50 42 132 42 76 b 215 0 106 10 161 0 b 383 63 260 0 335 17 b 382 33 382 53 382 43 z m 397 75 l 388 82 b 210 14 325 50 286 14 b 47 219 63 14 47 99 b 56 632 47 353 56 494 b 54 686 56 650 56 668 b 214 690 106 693 161 690 b 218 603 217 661 218 632 b 214 407 218 536 214 472 b 257 235 214 369 215 254 l 258 233 b 315 219 269 226 289 219 b 408 351 394 219 408 294 b 400 593 408 440 400 519 b 407 685 400 624 407 654 b 461 692 425 690 443 692 b 522 688 482 692 500 688 b 565 690 538 688 553 689 b 569 214 565 532 569 372 b 567 10 569 146 569 78 b 526 14 553 10 539 14 b 400 4 481 14 439 4 b 397 75 400 28 397 51 z "},"ú":{"ha":624,"x_min":0,"x_max":0,"o":"m 532 946 l 532 954 b 426 1053 500 986 464 1033 b 194 826 342 983 276 896 l 194 815 b 306 803 203 807 257 803 b 392 813 357 803 385 806 b 532 946 408 849 497 911 z m 517 950 b 379 821 478 913 397 856 b 313 815 358 817 336 815 b 213 824 278 815 243 818 b 431 1038 288 893 351 974 b 517 950 458 1008 488 979 z m 382 33 b 386 0 382 22 383 10 l 386 1 b 426 -10 390 -8 394 -10 b 518 -1 507 -10 513 -3 l 532 -1 b 564 -4 539 -6 553 -4 b 581 3 571 -4 574 -4 b 583 211 583 72 583 142 b 579 699 583 374 579 536 b 572 706 576 701 574 703 b 540 703 561 704 551 703 b 467 708 514 703 493 708 b 397 697 443 708 417 703 l 393 689 b 386 594 393 657 386 626 b 394 354 386 515 394 435 b 304 233 394 299 383 233 b 263 247 293 236 263 246 l 256 254 b 228 436 232 301 228 369 b 231 649 228 513 231 578 b 221 704 231 668 229 686 l 108 704 b 40 690 81 704 53 703 b 42 633 40 671 42 651 b 35 288 42 517 35 403 b 39 164 35 246 36 206 b 67 50 42 132 40 78 b 215 0 106 10 161 0 b 383 63 260 0 335 17 b 382 33 382 53 382 43 z m 397 75 l 388 82 b 210 14 325 50 286 14 b 47 217 63 14 47 97 b 56 632 47 351 56 494 b 54 686 56 650 56 668 b 214 690 106 693 161 690 b 218 603 217 661 218 632 b 214 407 218 536 214 472 b 222 340 214 383 215 360 b 257 235 222 311 225 250 l 258 233 b 315 219 276 233 296 219 b 408 351 394 219 408 294 b 400 593 408 440 400 519 b 407 685 400 624 407 654 b 461 692 425 690 443 692 b 522 688 482 692 500 688 b 565 690 538 688 553 689 b 569 214 565 532 569 372 b 567 10 569 146 569 78 b 526 14 553 10 539 14 b 400 4 481 14 439 4 b 397 75 400 28 397 51 z "},"û":{"ha":625,"x_min":0,"x_max":0,"o":"m 547 819 l 553 831 l 326 1056 b 317 1057 322 1056 319 1056 b 92 831 238 983 157 915 l 96 818 b 196 810 126 813 167 810 b 317 879 276 810 261 839 l 328 868 b 436 807 346 832 374 807 b 547 819 493 807 511 819 z m 531 832 b 471 824 510 831 490 825 b 388 826 443 824 415 825 l 375 835 b 321 893 357 853 342 879 l 313 893 b 204 825 271 865 278 825 b 108 831 167 825 119 829 b 321 1042 171 910 247 972 b 531 832 390 972 460 901 z m 382 33 b 386 0 382 22 383 10 l 386 1 b 426 -10 390 -8 394 -10 b 518 -1 507 -10 513 -3 l 532 -1 b 564 -4 539 -6 553 -4 b 581 3 571 -4 574 -4 b 583 211 583 72 583 142 b 579 699 583 374 579 536 b 572 706 576 701 574 703 b 540 703 561 704 551 703 b 467 708 514 703 493 708 b 397 697 443 708 417 703 l 393 689 b 386 594 393 657 386 626 b 394 354 386 515 394 435 b 304 233 394 299 383 233 b 263 247 293 236 263 246 l 256 254 b 228 436 232 301 228 369 b 231 649 228 513 231 578 b 221 704 231 668 229 686 l 108 704 b 40 690 81 704 53 703 b 42 633 40 671 42 651 b 35 288 42 517 35 403 b 39 164 35 246 36 206 b 67 50 42 132 40 78 b 215 0 106 10 161 0 b 383 63 260 0 335 17 b 382 33 382 53 382 43 z m 397 75 l 388 82 b 210 14 325 50 286 14 b 47 217 63 14 47 97 b 56 632 47 351 56 494 b 54 686 56 650 56 668 b 214 690 106 693 161 690 b 218 603 217 661 218 632 b 214 407 218 536 214 472 b 222 340 214 383 215 360 b 257 235 222 311 225 250 l 258 233 b 315 219 276 233 296 219 b 408 351 394 219 408 294 b 400 593 408 440 400 519 b 407 685 400 624 407 654 b 461 692 425 690 443 692 b 522 688 482 692 500 688 b 565 690 538 688 553 689 b 569 214 565 532 569 372 b 567 10 569 146 569 78 b 526 14 553 10 539 14 b 400 4 481 14 439 4 b 397 75 400 28 397 51 z "},"ü":{"ha":624,"x_min":0,"x_max":0,"o":"m 281 940 l 278 1058 l 79 1063 b 71 1042 72 1058 71 1050 b 78 865 71 982 78 924 b 200 850 90 851 161 850 b 279 874 224 850 279 854 b 281 940 279 889 281 915 z m 536 940 l 531 1058 l 335 1063 b 326 1042 328 1058 326 1050 b 333 865 326 982 333 924 b 456 850 346 851 417 850 b 535 874 479 850 535 854 b 536 940 535 889 538 915 z m 261 1044 l 265 876 b 206 864 254 867 232 864 b 92 871 164 864 115 871 b 86 1049 92 931 82 989 z m 517 1044 l 521 876 b 461 864 510 867 488 864 b 347 871 419 864 371 871 b 340 1024 347 922 340 972 b 342 1049 340 1032 342 1040 z m 382 33 b 386 0 382 22 383 10 l 386 1 b 426 -10 390 -8 394 -10 b 564 -4 539 -6 553 -4 b 581 3 571 -4 574 -4 b 583 211 583 72 583 142 b 579 699 583 374 579 536 b 540 703 569 710 554 703 b 394 700 494 703 439 719 l 393 689 b 386 594 393 657 386 626 b 394 354 386 515 394 435 b 304 233 394 299 383 233 b 228 436 224 246 228 358 b 231 649 228 513 231 578 b 221 704 231 668 229 686 l 108 704 b 40 690 81 704 53 703 b 42 633 40 671 42 651 b 35 288 42 517 35 403 b 39 164 35 246 36 206 b 67 50 42 132 40 78 b 215 0 106 10 161 0 b 383 63 260 0 335 17 b 382 33 382 53 382 43 z m 396 89 l 388 82 b 210 14 325 50 286 14 b 47 217 63 14 47 97 b 56 632 47 351 56 494 b 54 686 56 650 56 668 b 214 690 106 693 161 690 b 218 603 217 661 218 632 b 214 407 218 536 214 472 b 257 235 214 369 215 254 l 258 233 b 315 219 283 221 296 219 b 408 351 394 219 408 294 b 400 593 408 440 400 519 b 407 685 400 624 407 654 b 461 692 425 690 443 692 b 522 688 482 692 500 688 b 565 690 538 688 553 689 b 569 214 565 532 569 372 b 567 10 569 146 569 78 b 526 14 553 10 539 14 b 400 4 481 14 439 4 b 396 89 400 28 396 65 z "},"ù":{"ha":625,"x_min":0,"x_max":0,"o":"m 208 1053 l 200 1053 b 104 956 168 1019 136 988 l 104 944 b 244 813 104 924 224 851 b 328 803 244 804 286 803 b 440 815 372 803 422 806 l 440 826 b 382 885 418 843 400 865 b 208 1053 328 943 272 1006 z m 204 1038 b 372 875 265 992 319 932 b 421 824 388 857 403 839 b 322 815 399 818 357 815 b 254 821 292 815 264 818 b 117 950 239 851 147 922 z m 382 33 b 386 0 382 22 383 10 l 386 1 b 426 -10 390 -8 394 -10 b 518 -1 507 -10 513 -3 l 532 -1 b 564 -4 539 -6 553 -4 b 581 3 571 -4 574 -4 b 583 211 583 72 583 142 b 579 699 583 374 579 536 b 572 706 576 701 574 703 b 540 703 561 704 551 703 b 467 708 514 703 493 708 b 397 697 443 708 417 703 l 393 689 b 386 594 393 657 386 626 b 394 354 386 515 394 435 b 304 233 394 299 383 233 b 263 247 293 236 263 246 l 256 254 b 228 436 232 301 228 369 b 231 649 228 513 231 578 b 221 704 231 668 229 686 l 108 704 b 40 690 81 704 53 703 b 42 633 40 671 42 651 b 35 288 42 517 35 403 b 39 164 35 246 36 206 b 67 50 42 132 40 78 b 215 0 106 10 161 0 b 383 63 260 0 335 17 b 382 33 382 53 382 43 z m 397 75 l 388 82 b 210 14 325 50 286 14 b 47 217 63 14 47 97 b 56 632 47 351 56 494 b 54 686 56 650 56 668 b 214 690 106 693 161 690 b 218 603 217 661 218 632 b 214 407 218 536 214 472 b 222 340 214 383 215 360 b 257 235 222 311 225 250 l 258 233 b 315 219 276 233 296 219 b 408 351 394 219 408 294 b 400 593 408 440 400 519 b 407 685 400 624 407 654 b 461 692 425 690 443 692 b 522 688 482 692 500 688 b 565 690 538 688 553 689 b 569 214 565 532 569 372 b 567 10 569 146 569 78 b 526 14 553 10 539 14 b 400 4 481 14 439 4 b 397 75 400 28 397 51 z "},"v":{"ha":596,"x_min":0,"x_max":0,"o":"m 215 690 l 210 697 b 161 700 193 699 178 700 b 72 697 132 700 101 697 b 17 701 54 697 35 699 l 8 693 b 153 -6 67 463 115 231 b 261 -17 171 -15 217 -17 b 428 -4 329 -17 407 -25 b 601 690 488 226 519 467 b 594 700 599 694 596 697 b 408 696 532 700 469 696 b 403 692 406 694 404 693 b 299 236 346 546 346 385 b 215 690 260 376 235 543 z m 201 683 b 242 443 214 603 228 524 b 294 213 254 367 264 283 l 307 213 b 413 682 357 365 356 532 b 585 686 471 682 528 686 b 415 4 504 465 475 231 b 338 -1 400 0 372 -1 b 165 3 278 -1 203 3 b 25 686 129 233 81 460 b 72 683 40 683 57 683 b 160 685 101 683 131 685 b 201 683 174 685 188 685 z "},"w":{"ha":949,"x_min":0,"x_max":0,"o":"m 217 690 l 211 697 b 160 700 194 700 176 700 b 68 697 129 700 99 697 b 17 701 51 697 33 699 l 8 693 b 153 -6 67 463 115 231 b 261 -17 171 -15 217 -17 b 428 -4 329 -17 407 -25 b 475 279 453 89 457 186 b 522 -6 492 185 506 89 b 529 -11 525 -7 526 -10 b 703 -17 579 -11 643 -17 b 781 -4 732 -17 769 -15 b 954 690 840 226 872 467 b 919 703 950 701 933 703 b 767 696 868 703 817 696 b 761 692 764 694 763 693 b 653 233 703 546 708 365 b 607 460 628 297 614 394 b 571 693 599 538 582 615 b 526 706 565 704 543 706 b 439 697 497 706 469 697 b 411 701 429 697 419 699 b 382 583 390 692 390 618 b 300 235 354 467 339 347 b 235 588 267 349 249 469 b 217 690 229 622 219 656 z m 203 683 b 240 457 214 607 228 533 b 294 213 253 376 263 289 l 307 213 b 414 686 360 367 383 529 b 467 685 431 686 449 685 b 511 690 482 685 497 686 b 557 688 526 690 542 690 b 593 458 568 611 581 535 b 647 213 606 378 615 289 l 660 213 b 771 682 721 363 713 533 b 904 689 815 682 861 689 b 938 688 915 689 926 689 b 768 4 857 467 828 231 b 696 -1 754 0 728 -1 b 535 3 639 -1 569 3 b 482 317 518 107 501 213 b 483 321 482 318 483 319 b 468 319 478 321 472 319 b 415 4 444 215 443 107 b 338 -1 400 0 372 -1 b 165 3 278 -1 203 3 b 25 686 129 233 81 460 b 72 683 40 683 57 683 b 160 685 101 683 131 685 b 203 683 175 685 189 685 z "},"x":{"ha":574,"x_min":0,"x_max":0,"o":"m 574 689 b 581 694 575 690 578 692 l 581 696 b 483 703 572 704 549 703 b 363 699 429 703 369 703 l 351 699 b 344 693 349 697 347 694 b 285 474 321 621 306 546 b 250 606 269 515 263 561 b 219 697 243 629 233 683 l 218 697 b 140 704 208 703 192 704 b -3 688 78 704 4 703 b 113 343 39 574 89 463 b 60 172 97 286 81 228 b 6 7 40 118 17 64 l 1 -10 l 214 -8 b 221 -4 215 -7 218 -6 b 285 203 250 63 257 136 b 307 142 290 182 303 156 b 372 -7 319 96 319 -7 b 517 -6 388 -7 496 -11 b 557 -7 531 -6 543 -7 b 564 3 558 -4 561 -1 b 465 342 533 117 485 225 b 579 692 485 464 543 575 z m 563 689 b 451 343 526 574 468 464 b 450 335 451 340 450 338 b 475 238 450 304 467 263 b 547 7 499 160 526 85 b 357 11 446 19 344 1 b 282 228 319 58 326 186 b 210 6 246 158 239 76 b 76 1 161 14 136 1 b 21 10 54 1 33 4 b 126 340 49 122 104 226 b 106 432 126 364 111 410 b 13 685 81 518 44 600 b 100 688 42 688 71 688 b 197 685 132 688 165 685 b 206 686 200 685 203 686 b 279 451 226 686 251 518 l 292 451 b 357 685 324 525 331 608 b 563 689 424 685 493 689 z "},"y":{"ha":624,"x_min":0,"x_max":0,"o":"m 217 690 l 211 697 b 157 700 193 700 175 700 b 60 697 125 700 93 697 b 6 701 42 697 24 699 l -3 693 b 153 65 51 485 111 278 b 160 17 156 49 160 33 b 71 -58 160 -47 119 -58 b -17 -54 43 -58 11 -54 b -32 -142 -32 -61 -32 -119 b -8 -253 -32 -169 -29 -243 b 44 -254 8 -254 26 -254 b 528 314 425 -254 468 54 b 619 690 557 440 585 567 b 579 703 615 701 597 703 b 410 700 522 703 467 700 b 404 696 407 699 406 697 b 317 211 344 542 363 369 b 265 435 293 283 279 360 b 217 690 250 518 228 604 z m 203 683 b 251 431 215 599 235 515 b 313 188 268 349 282 265 l 325 188 b 414 686 378 349 354 528 b 558 690 461 686 510 690 b 604 688 574 690 589 689 b 514 318 569 565 543 442 b 49 -240 456 67 418 -240 b -3 -239 31 -240 14 -240 b -18 -140 -14 -208 -18 -174 b -11 -68 -18 -117 -15 -92 b 72 -71 17 -68 46 -71 b 174 25 131 -71 174 -58 b 167 69 174 36 167 68 b 139 204 157 114 147 158 b 14 686 106 367 53 526 b 61 683 29 683 46 683 b 156 686 93 683 124 686 b 203 683 171 686 188 685 z "},"ý":{"ha":624,"x_min":0,"x_max":0,"o":"m 508 946 l 508 954 b 403 1053 476 986 440 1033 b 171 826 318 983 253 896 l 171 815 b 282 803 179 807 233 803 b 368 813 333 803 361 806 b 508 946 385 849 474 911 z m 493 950 b 356 821 454 913 374 856 b 289 815 335 817 313 815 b 189 824 254 815 219 818 b 407 1038 264 893 328 974 b 493 950 435 1008 464 979 z m 217 690 l 211 697 b 157 700 193 700 175 700 b 60 697 125 700 93 696 l -8 700 b 153 65 46 492 111 278 b 160 17 156 49 160 33 b 71 -58 160 -47 119 -58 b -17 -54 43 -58 11 -54 b -32 -142 -32 -61 -32 -119 b -8 -253 -32 -169 -29 -243 b 44 -254 8 -254 26 -254 b 528 314 425 -254 468 54 b 619 690 557 440 585 567 b 579 703 615 701 597 703 b 410 700 522 703 467 700 b 404 696 407 699 406 697 b 317 211 344 542 363 369 b 265 435 293 283 279 360 b 217 690 250 518 228 604 z m 203 683 b 251 431 215 599 235 515 b 313 188 268 349 282 265 l 325 188 b 414 686 378 349 354 528 b 558 690 461 686 510 690 b 604 688 574 690 589 689 b 514 318 569 565 543 442 b 49 -240 456 67 418 -240 b -3 -239 31 -240 14 -240 b -18 -140 -14 -208 -18 -174 b -11 -68 -18 -117 -15 -92 b 72 -71 17 -68 46 -71 b 174 25 131 -71 174 -58 b 167 69 174 36 167 68 b 139 204 157 114 147 158 b 14 686 106 367 53 526 b 61 683 29 683 46 683 b 156 686 93 683 124 686 b 203 683 171 686 188 685 z "},"ÿ":{"ha":624,"x_min":0,"x_max":0,"o":"m 293 940 l 290 1061 b 92 1063 226 1063 154 1061 b 83 1042 85 1058 83 1050 b 90 865 83 982 90 924 b 213 850 103 851 174 850 b 292 874 236 850 292 854 b 293 940 292 889 293 915 z m 549 940 l 546 1058 l 347 1063 b 339 1042 340 1058 339 1050 b 346 865 339 982 346 924 b 468 850 358 851 429 850 b 547 874 492 850 547 854 b 549 940 547 889 549 915 z m 274 1044 l 278 876 b 218 864 267 867 244 864 b 104 871 176 864 128 871 b 97 1024 104 922 97 972 b 99 1049 97 1032 99 1040 z m 529 1044 l 533 876 b 474 864 522 867 500 864 b 360 871 432 864 383 871 b 353 1024 360 922 353 972 b 354 1049 353 1032 354 1040 z m 265 435 l 211 697 b 157 700 193 700 175 700 b 60 697 125 700 93 696 l -4 699 b 153 65 50 490 111 278 b 160 17 156 49 160 33 b 71 -58 160 -47 119 -58 b -17 -54 43 -58 11 -54 b -32 -142 -32 -61 -32 -119 b -8 -253 -32 -169 -29 -243 b 44 -254 8 -254 26 -254 b 528 314 425 -254 468 54 b 619 690 557 440 585 567 b 579 703 615 701 597 703 b 410 700 522 703 467 700 b 317 211 340 549 365 371 b 265 435 293 283 279 360 z m 203 683 b 251 431 215 599 235 515 b 313 188 268 349 282 265 l 325 188 b 414 686 378 349 354 528 b 558 690 461 686 510 690 b 604 688 574 690 589 689 b 514 318 569 565 543 442 b 49 -240 456 67 418 -240 b -3 -239 31 -240 14 -240 b -18 -140 -14 -208 -18 -174 b -11 -68 -18 -117 -15 -92 b 72 -71 17 -68 46 -71 b 174 25 131 -71 174 -58 b 167 69 174 36 167 68 b 139 204 157 114 147 158 b 14 686 106 367 53 526 b 61 683 29 683 46 683 b 156 686 93 683 124 686 b 203 683 171 686 188 685 z "},"z":{"ha":633,"x_min":0,"x_max":0,"o":"m 610 690 l 613 701 b 560 701 600 704 576 701 b 438 696 519 701 471 696 b 267 699 381 696 324 699 b 39 697 190 699 114 697 b 25 539 22 681 25 557 b 40 475 25 515 26 482 b 333 496 129 497 242 492 b 18 136 226 371 18 239 l 26 3 b 83 -8 35 -6 58 -8 b 599 3 256 -8 426 -7 b 606 10 600 6 603 7 b 603 203 606 74 603 139 b 603 213 600 206 604 210 b 488 201 567 206 524 201 b 360 204 444 201 401 204 b 311 203 343 204 326 204 b 608 500 407 306 514 396 b 610 507 608 501 608 504 b 606 567 607 526 606 547 b 610 690 606 608 610 650 z m 592 571 b 596 507 592 549 592 528 b 290 200 499 399 388 307 b 296 188 292 196 294 192 b 357 190 315 189 336 190 b 493 186 403 190 449 186 b 589 194 525 186 557 189 b 592 17 589 135 592 75 b 40 8 408 7 224 8 b 42 61 40 15 42 39 b 36 156 42 103 36 122 b 38 176 36 163 36 169 b 354 500 135 293 257 383 b 349 511 351 504 350 507 b 44 490 249 501 143 511 b 40 547 42 508 40 528 b 46 683 40 592 46 639 b 424 685 172 683 297 685 b 575 686 501 682 528 686 b 596 685 582 686 589 686 b 592 571 594 647 592 608 z "},"ž":{"ha":633,"x_min":0,"x_max":0,"o":"m 122 993 l 114 985 b 340 760 189 910 264 835 l 349 760 b 575 988 428 835 508 901 b 582 997 583 994 590 997 l 565 999 b 440 1007 524 999 482 1007 b 358 946 408 1007 368 965 l 349 938 b 240 1010 300 968 304 1010 b 122 993 201 1010 144 997 z m 135 982 l 190 992 l 185 992 b 278 990 208 992 231 1000 b 346 922 304 974 317 938 b 447 992 383 942 394 992 b 529 983 476 990 497 983 b 554 985 538 983 546 985 b 344 775 492 907 418 844 b 135 982 275 844 204 913 z m 610 690 l 613 701 b 560 701 600 704 576 701 b 438 696 519 701 471 696 b 267 699 381 696 324 699 b 39 697 190 699 114 697 b 25 539 22 681 25 557 b 40 475 25 515 26 482 b 333 496 129 497 242 492 b 18 136 226 371 18 239 l 26 3 b 83 -8 35 -6 58 -8 b 599 3 256 -8 426 -7 b 606 10 600 6 603 7 b 603 203 606 74 603 139 b 603 213 600 206 604 210 b 488 201 567 206 524 201 b 360 204 444 201 401 204 b 311 203 343 204 326 204 b 608 500 407 306 514 396 b 610 507 608 501 608 504 b 606 567 607 526 606 547 b 610 690 606 608 610 650 z m 592 571 b 596 507 592 549 592 528 b 290 200 499 399 388 307 b 296 188 292 196 294 192 b 357 190 315 189 336 190 b 493 186 403 190 449 186 b 589 194 525 186 557 189 b 592 17 589 135 592 75 b 40 8 408 7 224 8 b 42 61 40 15 42 39 b 36 156 42 103 36 122 b 38 176 36 163 36 169 b 354 500 135 293 257 383 b 349 511 351 504 350 507 b 44 490 249 501 143 511 b 40 547 42 508 40 528 b 46 683 40 592 46 639 b 424 685 172 683 297 685 b 575 686 501 682 528 686 b 596 685 582 686 589 686 b 592 571 594 647 592 608 z "},"ﬀ":{"ha":1096,"x_min":0,"x_max":0,"o":"m 392 699 l 325 699 b 321 731 322 707 321 718 b 544 801 321 804 474 801 b 561 942 560 832 561 901 b 544 1014 561 964 561 997 b 110 701 342 1014 110 1025 l 100 701 b 6 694 78 706 11 708 b 11 507 13 514 8 508 b 114 511 43 507 81 511 b 108 43 114 354 108 200 b 169 -11 108 4 113 -11 b 258 -3 213 -11 236 -8 b 321 -6 276 -3 301 -4 l 321 513 b 658 511 433 513 546 511 b 671 0 658 342 671 169 b 724 -11 682 -12 697 -11 b 813 -3 767 -11 790 -8 b 874 -6 831 -3 856 -4 l 874 513 b 1088 508 944 507 1018 515 b 1099 622 1093 519 1099 568 l 1100 688 l 876 688 b 872 711 874 694 872 703 b 886 765 872 731 878 750 l 896 775 b 1097 801 946 800 1042 801 b 1117 908 1115 819 1117 868 b 1083 1014 1117 954 1117 1014 b 667 774 878 1014 704 1011 b 661 721 664 757 661 739 b 663 700 661 714 661 707 b 392 699 572 700 482 699 z m 679 685 l 678 696 b 675 722 676 704 675 714 b 1092 1000 675 1006 908 1000 b 1104 911 1100 976 1104 944 b 1092 815 1104 876 1099 842 b 860 710 974 813 860 817 b 863 688 860 701 860 694 l 865 669 l 1081 674 b 1082 661 1081 668 1081 667 b 1081 522 1082 615 1081 569 b 1001 526 1054 525 1028 526 b 915 525 972 526 943 525 b 860 528 899 525 875 526 l 860 10 b 828 13 849 11 838 13 b 701 3 792 13 746 3 b 685 4 696 3 690 3 b 672 524 685 175 672 354 b 307 525 556 533 432 528 l 307 10 b 275 13 296 11 285 13 b 153 4 240 13 194 4 b 129 6 144 4 138 4 b 133 526 129 175 133 356 b 24 524 97 524 60 525 l 19 689 l 93 689 b 126 688 99 688 121 688 b 122 732 124 688 122 724 b 539 1000 122 1008 363 1000 b 549 939 546 979 549 960 b 538 815 549 897 539 856 b 307 733 431 813 307 808 b 319 685 307 724 307 690 z "},"ﬃ":{"ha":1325,"x_min":0,"x_max":0,"o":"m 1103 997 l 1108 997 b 1072 1011 1096 997 1101 1011 b 663 772 871 1011 701 1007 b 657 719 660 756 657 738 b 658 699 657 713 657 706 b 322 697 546 699 435 697 b 318 729 319 706 318 717 b 542 800 318 803 471 800 b 558 940 557 831 558 900 b 551 997 558 958 556 978 l 557 997 b 514 1011 546 997 547 1011 b 108 700 317 1011 108 1004 l 99 700 b 65 703 90 703 78 703 b 4 615 -15 703 4 682 b 17 510 4 567 7 514 b 113 511 49 510 81 511 b 110 64 113 363 110 214 b 167 -8 110 0 111 -8 b 257 1 199 -8 233 -4 b 311 0 275 1 293 1 b 318 7 313 3 315 4 l 318 513 b 654 507 431 513 542 507 b 667 3 654 339 667 171 b 718 -8 679 -10 697 -8 b 872 0 778 -8 817 7 l 869 513 b 1075 508 932 507 1003 515 b 1067 1 1075 339 1076 171 b 1071 0 1068 0 1069 0 b 1217 -11 1114 -4 1169 -11 b 1286 10 1242 -11 1286 -7 b 1281 236 1282 85 1281 160 b 1290 742 1281 401 1290 575 b 1082 746 1222 742 1150 746 b 1072 708 1076 740 1072 746 b 1075 690 1072 700 1074 693 l 1075 688 l 874 688 b 871 717 871 697 871 707 b 894 778 871 740 876 763 b 1093 800 950 797 1035 800 b 1110 940 1108 831 1110 900 b 1103 997 1110 958 1107 978 z m 675 685 l 674 694 b 671 719 671 703 671 711 b 676 768 671 736 674 753 b 1088 997 715 1004 892 997 b 1094 936 1093 976 1094 957 b 1086 814 1094 896 1088 854 b 856 721 965 810 856 806 b 868 674 856 706 857 679 l 1082 674 b 1089 689 1085 678 1089 678 b 1086 721 1089 694 1086 708 b 1088 732 1086 725 1088 729 b 1274 728 1150 732 1211 728 b 1267 235 1274 564 1267 399 b 1272 13 1267 161 1268 86 b 1211 1 1254 4 1233 1 b 1092 13 1167 1 1132 13 b 1081 11 1088 13 1085 11 b 1089 515 1090 179 1089 347 b 1035 525 1085 524 1058 525 l 922 525 b 863 526 901 525 882 525 l 856 518 l 856 14 b 824 17 844 15 833 17 b 694 6 786 17 738 6 l 681 7 b 669 519 681 176 669 351 b 304 526 551 522 424 525 l 304 14 b 272 17 293 15 282 17 b 143 6 235 17 188 6 b 122 57 125 6 122 32 b 128 525 122 211 128 371 b 24 524 94 525 58 524 l 19 688 l 92 688 b 108 685 97 686 103 685 b 124 696 113 685 117 688 b 121 725 122 706 121 715 b 536 997 121 1007 367 997 b 543 936 542 976 543 957 b 535 814 543 896 536 854 b 304 732 428 811 304 807 b 317 683 304 722 304 689 b 675 685 433 683 558 685 z "},"ﬄ":{"ha":1403,"x_min":0,"x_max":0,"o":"m 896 775 b 1097 801 946 800 1042 801 b 1117 908 1115 819 1117 868 b 1083 1014 1117 954 1117 1014 b 667 774 878 1014 704 1011 b 661 721 664 757 661 739 b 663 700 661 714 661 707 b 392 699 572 700 482 699 l 325 699 b 321 731 322 707 321 718 b 544 801 321 804 474 801 b 561 942 560 832 561 901 b 544 1014 561 964 561 997 b 110 701 342 1014 110 1025 l 100 701 b 65 704 92 704 79 704 b 6 694 32 704 15 704 l 8 510 b 114 511 43 510 78 511 b 108 43 114 354 108 200 b 169 -11 108 4 113 -11 b 258 -3 213 -11 236 -8 b 324 -3 279 -1 303 -6 l 321 513 b 658 507 433 513 546 507 b 671 0 658 338 671 169 b 724 -11 682 -12 697 -11 b 813 -3 767 -11 790 -8 b 875 -3 833 -1 856 -6 l 874 513 b 1088 508 944 507 1018 515 b 1099 622 1093 519 1099 568 l 1099 688 l 876 688 b 872 711 874 694 872 703 b 886 765 872 731 878 750 z m 1357 268 b 1363 1010 1357 514 1363 763 l 1144 1014 b 1135 747 1135 926 1135 835 b 1151 154 1135 550 1151 351 b 1147 -8 1151 103 1150 43 l 1160 -7 b 1300 -14 1193 -7 1253 -14 b 1368 6 1326 -14 1368 -10 b 1357 268 1358 92 1357 181 z m 860 710 b 861 674 860 701 858 681 b 1081 674 869 676 914 682 b 1082 661 1081 668 1081 667 b 1081 522 1082 615 1081 569 b 1001 526 1054 525 1028 526 b 915 525 972 526 943 525 b 860 526 899 525 875 525 l 860 10 b 828 13 849 11 838 13 b 701 3 792 13 746 3 b 685 4 696 3 690 3 b 671 519 681 176 685 353 b 306 525 550 518 424 528 l 307 10 b 275 13 296 11 285 13 b 153 4 240 13 194 4 b 129 6 144 4 138 4 b 133 525 129 175 133 354 b 24 524 97 525 60 524 l 19 689 l 93 689 b 110 686 99 688 104 686 b 125 697 114 686 118 689 b 122 732 122 708 122 719 b 539 1000 122 1008 363 1000 b 549 939 546 979 549 960 b 538 815 549 897 539 856 b 307 733 431 813 307 808 b 319 685 307 724 307 690 l 678 685 l 678 696 b 675 722 676 704 675 714 b 1092 1000 675 1006 908 1000 b 1104 911 1100 976 1104 944 b 1092 815 1104 876 1099 842 b 860 710 974 813 860 817 z m 1294 -1 b 1161 7 1247 -1 1199 7 b 1165 204 1164 72 1165 139 b 1150 789 1165 399 1150 594 b 1160 1000 1150 860 1153 929 l 1347 996 b 1344 482 1347 825 1344 653 b 1346 313 1344 425 1344 369 b 1353 8 1347 211 1343 108 b 1294 -1 1336 1 1315 -1 z m 861 672 l 861 674 b 861 672 857 672 860 671 z "},"ﬁ":{"ha":771,"x_min":0,"x_max":0,"o":"m 546 1007 l 519 1008 b 107 688 314 1008 107 1003 l 97 688 b 64 690 89 690 76 690 b 4 681 32 690 14 690 b 11 504 11 513 8 506 b 111 510 43 504 79 510 b 107 58 111 358 107 208 b 167 -8 107 8 110 -8 b 256 1 197 -8 232 -4 b 317 0 274 1 299 1 l 317 511 b 522 507 385 507 454 510 b 513 1 522 336 522 171 b 663 -11 560 -4 615 -11 b 732 10 688 -11 732 -7 b 724 239 725 86 724 163 b 733 743 724 408 733 576 l 529 743 b 519 706 524 738 519 743 b 522 685 519 697 521 690 l 319 685 b 315 710 317 692 315 701 b 338 772 315 733 324 758 b 546 804 378 793 532 790 b 556 936 546 847 556 892 b 546 1007 556 956 550 988 z m 539 521 l 303 526 l 303 14 b 271 17 292 15 281 17 b 147 7 235 17 189 7 b 128 8 142 7 135 7 b 121 192 128 69 121 131 b 126 522 121 300 126 413 b 22 522 93 525 57 521 l 18 675 l 90 675 b 119 714 129 672 119 699 b 533 994 119 1000 344 994 b 542 933 539 974 542 953 b 532 811 542 892 533 851 b 329 783 485 810 351 803 b 304 699 304 761 304 729 b 315 671 304 671 318 671 l 529 671 b 536 686 532 675 536 675 b 533 718 536 692 533 706 b 535 729 533 722 535 726 b 719 725 596 729 658 725 b 710 226 719 558 710 393 b 717 13 710 156 711 83 b 654 1 699 4 676 1 b 538 13 611 1 578 13 b 526 11 533 13 531 11 b 539 521 535 179 539 351 z "},"ﬂ":{"ha":781,"x_min":0,"x_max":0,"o":"m 529 515 l 519 -8 b 556 -4 526 -7 546 -4 b 678 -11 590 -4 639 -11 b 743 10 701 -11 743 -7 b 736 165 738 61 736 113 b 749 1019 736 449 749 738 b 553 1022 685 1019 618 1022 b 400 1021 475 1024 444 1025 b 247 989 347 1015 296 1008 b 110 699 132 943 110 806 b 11 700 76 699 43 700 b 3 617 1 690 3 658 b 15 517 3 571 6 521 b 114 518 47 517 81 518 b 108 72 114 368 108 225 b 121 -4 108 42 111 15 b 164 -10 132 -8 147 -10 b 260 1 201 -10 236 -4 b 322 0 281 1 303 0 l 321 519 b 529 515 390 515 457 518 z m 543 528 l 306 532 l 307 14 b 275 17 296 15 285 17 b 151 6 239 17 193 6 b 122 50 125 6 122 26 b 131 532 122 213 131 372 b 22 531 96 532 57 531 l 18 686 b 126 683 51 686 93 683 b 122 729 124 697 122 714 b 732 1006 122 1101 507 989 b 722 157 732 722 722 440 b 728 13 722 108 724 60 b 669 1 710 4 690 1 b 556 11 632 1 593 11 b 535 10 549 11 542 10 b 543 528 544 181 543 356 z m 542 681 l 543 689 l 543 817 b 419 829 529 829 450 829 b 308 711 350 829 308 811 b 319 682 308 697 303 688 z m 324 696 b 322 728 321 704 322 718 b 419 815 322 801 365 815 b 529 810 454 815 494 810 l 529 696 z "},"ª":{"ha":383,"x_min":0,"x_max":0,"o":"m 342 725 l 339 1011 l 315 1011 b 222 1013 310 1013 231 1013 b 218 994 213 997 219 997 b 171 1013 206 1007 189 1013 b 25 838 76 1013 25 926 b 147 643 25 749 61 643 b 224 672 175 643 204 653 b 242 639 224 656 226 639 b 292 643 279 644 286 643 b 342 688 338 643 342 653 z m 235 1001 b 326 994 256 1000 311 994 b 328 989 326 992 326 990 b 325 660 328 879 325 769 l 238 658 b 235 664 236 660 236 663 l 235 675 b 239 692 238 681 239 685 b 226 694 235 693 231 694 b 225 693 226 693 225 693 l 225 692 b 149 656 208 668 178 656 b 39 838 69 656 39 757 b 161 999 39 914 79 999 b 218 969 185 999 211 990 b 235 1001 238 969 235 986 z m 192 915 b 119 871 158 915 131 906 b 192 740 106 811 119 740 b 238 831 231 740 238 792 b 192 915 238 899 235 915 z m 192 756 b 138 876 153 756 103 806 l 153 892 b 192 903 164 897 178 903 b 218 894 200 903 208 900 b 225 839 221 886 225 864 b 192 756 225 799 218 756 z "},"º":{"ha":353,"x_min":0,"x_max":0,"o":"m 176 904 b 64 844 146 904 92 883 b 31 693 32 796 31 747 b 169 457 31 599 35 457 b 326 694 278 457 326 567 b 176 904 326 826 264 904 z m 75 838 l 76 839 b 178 892 86 857 139 892 b 314 690 272 892 314 788 b 174 471 314 572 264 471 b 43 656 79 471 43 550 b 75 838 43 718 32 775 z m 121 672 b 176 556 121 628 124 556 b 225 689 224 556 225 657 l 225 688 b 178 810 225 689 226 810 b 121 672 118 810 121 724 z m 157 572 b 133 701 128 588 133 661 b 171 794 133 758 143 789 l 176 794 b 211 717 219 781 206 744 b 193 579 213 703 207 610 b 157 572 185 568 168 567 z "},"¹":{"ha":260,"x_min":0,"x_max":0,"o":"m 206 896 l 88 897 l 81 889 l 81 890 b 82 893 82 892 82 892 b 10 757 58 861 10 794 b 85 728 19 736 69 728 b 108 744 94 728 101 735 b 100 471 107 653 100 563 b 161 454 113 458 135 454 b 208 472 178 454 208 458 l 208 475 b 218 819 208 590 218 703 b 206 896 218 846 217 874 z m 82 893 b 83 894 83 893 83 894 z m 194 476 l 194 475 b 192 474 193 475 193 474 b 144 472 175 474 160 472 b 114 475 133 472 124 472 b 122 768 114 572 122 669 b 113 775 119 771 115 772 b 89 742 101 769 94 753 l 82 742 b 24 758 64 749 42 750 b 92 883 24 788 74 858 b 189 883 165 879 181 883 b 204 832 203 878 204 854 b 194 476 204 714 194 596 z "},"²":{"ha":367,"x_min":0,"x_max":0,"o":"m 44 456 l 74 456 b 289 460 144 456 217 460 l 317 460 b 325 522 325 489 325 510 b 311 560 325 539 322 549 b 160 558 260 560 210 558 l 160 563 b 335 739 186 646 335 636 b 193 918 335 864 293 918 b 89 890 174 918 117 915 b 42 753 40 846 42 797 b 93 717 42 726 46 717 b 150 729 111 717 143 717 b 163 786 150 751 153 767 l 171 794 b 193 800 179 799 185 800 l 203 796 l 208 790 b 217 761 214 781 217 771 b 138 682 217 728 172 701 b 38 464 33 622 38 578 z m 307 474 b 74 469 228 474 150 471 l 51 469 b 72 617 57 503 40 582 b 229 756 119 667 229 700 b 188 815 229 783 213 815 b 136 733 147 815 136 764 b 94 731 122 731 108 731 b 53 769 57 731 53 731 b 201 904 53 856 101 904 b 319 749 318 914 314 794 b 146 556 319 629 146 658 l 149 549 l 151 546 b 156 544 153 546 154 544 b 306 546 206 544 256 546 b 310 510 311 533 310 521 b 306 478 307 500 306 479 b 307 474 306 476 307 475 z "},"³":{"ha":353,"x_min":0,"x_max":0,"o":"m 32 597 b 61 482 32 549 32 510 b 154 451 85 458 135 451 b 317 647 306 451 317 535 b 179 914 317 815 339 908 b 26 800 107 917 26 875 b 32 768 26 793 28 786 b 89 756 43 757 65 756 b 122 761 99 756 108 757 b 207 779 146 786 190 821 b 146 742 207 749 200 742 b 122 738 138 742 129 742 l 118 729 b 115 674 118 710 115 692 b 133 636 115 663 117 636 l 135 636 b 156 638 142 638 149 638 b 207 603 174 638 207 631 b 186 571 207 590 199 576 b 124 610 154 571 156 578 b 32 597 96 610 46 611 z m 74 488 l 75 488 l 63 500 b 47 590 47 532 54 557 l 57 589 b 119 596 78 589 99 596 b 179 554 129 574 154 554 b 219 603 204 554 219 578 b 164 651 219 626 203 651 b 133 650 154 651 143 651 b 129 672 131 657 129 664 b 132 726 129 692 132 710 b 221 767 189 726 221 729 b 179 814 221 789 206 814 b 110 774 153 814 133 785 l 46 774 b 44 785 46 778 46 781 b 176 901 44 864 110 901 b 301 833 229 901 282 878 b 303 638 301 767 303 704 b 164 464 303 554 292 464 b 74 488 110 464 74 483 z "},"½":{"ha":836,"x_min":0,"x_max":0,"o":"m 304 6 l 307 8 b 542 681 393 229 465 456 l 625 926 b 642 979 631 944 642 961 b 596 993 629 992 614 993 b 500 986 582 990 514 989 b 167 3 407 651 276 331 b 257 -11 179 -10 228 -11 b 304 6 281 -11 290 -8 z m 294 15 b 289 7 293 13 292 10 b 183 8 254 7 218 8 b 511 975 292 332 421 647 b 536 974 518 974 528 974 b 600 979 561 974 575 979 b 626 975 610 979 618 978 b 294 15 517 656 418 331 z m 243 431 l 243 436 b 239 489 240 450 239 469 b 251 831 239 619 251 711 b 239 917 251 860 250 892 l 225 917 l 104 918 b 89 899 97 918 90 904 b 14 757 68 874 14 792 b 100 725 25 735 85 725 b 128 749 114 725 119 735 b 119 426 126 640 119 535 b 194 411 131 415 169 411 b 243 431 208 411 243 417 z m 229 433 b 224 431 228 432 225 432 b 193 428 214 431 203 428 b 133 432 172 428 153 431 b 144 733 133 532 144 626 b 140 769 144 746 143 758 l 140 771 b 131 778 138 774 133 775 b 108 742 118 771 114 753 l 106 739 b 28 760 81 739 50 749 l 28 761 b 107 904 46 804 75 872 b 233 903 196 903 226 904 b 238 815 236 874 238 844 b 225 489 238 704 225 611 b 229 433 225 468 226 449 z m 496 -4 l 528 -4 b 754 -1 603 -4 679 -1 l 793 -1 b 799 1 794 0 796 0 l 800 3 b 801 10 800 4 800 7 l 799 14 l 799 26 b 803 57 801 33 803 44 b 788 111 803 79 800 99 b 663 108 746 111 704 108 b 621 110 649 108 635 108 l 621 115 b 811 332 653 211 811 176 b 654 507 811 447 747 507 b 539 471 615 507 574 496 b 492 343 499 442 492 388 b 536 281 492 292 493 281 b 611 297 556 281 604 285 b 654 374 611 325 617 374 b 685 326 681 374 685 338 b 515 182 685 272 601 268 b 488 35 489 156 488 83 b 496 -4 488 17 488 3 z m 785 13 b 528 10 699 13 613 11 l 503 10 b 501 57 503 22 501 39 b 581 219 501 149 522 181 b 700 331 622 247 700 268 b 653 389 700 361 679 389 b 597 303 608 389 597 336 b 551 299 582 300 567 299 b 503 335 507 299 503 307 b 669 490 503 449 567 490 b 793 365 744 486 793 442 b 796 351 793 360 793 354 b 746 226 796 297 792 257 b 607 107 697 194 607 179 b 671 94 615 89 629 94 b 782 97 708 94 744 96 b 788 64 786 88 788 76 b 783 21 788 49 783 33 b 785 13 783 18 783 15 z "},"¼":{"ha":826,"x_min":0,"x_max":0,"o":"m 625 926 b 642 979 631 944 642 961 b 596 993 629 992 614 993 b 528 989 574 993 551 989 b 510 990 521 989 515 989 l 511 989 b 500 986 508 988 504 988 b 167 3 407 651 276 331 b 257 -11 179 -10 228 -11 b 304 6 281 -11 290 -8 l 307 8 b 542 681 393 229 465 456 z m 510 990 b 508 990 508 990 508 990 z m 294 15 b 289 7 293 13 292 10 b 183 8 254 7 218 8 b 511 975 292 332 421 647 b 536 974 518 974 528 974 b 600 979 561 974 575 979 b 626 975 610 979 618 978 b 294 15 517 656 418 331 z m 194 411 b 243 431 208 411 243 417 l 243 436 b 239 489 240 450 239 469 b 251 831 239 619 251 711 b 239 917 251 860 250 892 l 104 918 b 89 899 97 918 90 904 b 14 757 68 874 14 792 b 100 725 25 735 85 725 b 128 749 114 725 119 735 b 119 426 126 640 119 535 b 194 411 131 415 169 411 z m 108 742 b 28 760 81 739 50 749 l 28 761 b 107 904 46 804 75 872 b 233 903 196 903 226 904 b 238 815 236 874 238 844 b 225 489 238 704 225 611 b 229 433 225 468 226 449 b 193 428 219 428 204 428 b 133 432 172 428 153 431 b 144 733 133 532 144 626 b 131 778 144 756 142 767 b 108 742 118 771 114 753 z m 769 263 b 764 261 767 263 765 261 b 760 336 761 283 760 310 b 764 494 760 389 764 447 b 703 504 754 504 725 504 b 675 500 692 504 682 503 l 644 500 b 639 496 642 499 640 497 b 533 336 604 442 567 390 b 483 214 506 290 483 275 b 494 150 483 199 483 161 l 496 149 b 500 147 497 149 499 147 l 629 147 b 635 146 632 146 633 146 b 633 6 635 100 633 53 b 701 -7 643 -4 661 -7 b 751 8 724 -7 751 -3 b 761 135 751 49 756 94 b 801 144 775 133 786 133 l 806 250 b 769 263 799 256 786 263 z m 788 151 b 756 149 778 150 765 149 b 738 13 738 139 738 42 b 699 10 725 11 713 10 b 647 11 679 10 661 11 b 649 153 647 58 649 106 b 590 165 633 165 608 165 b 504 161 561 165 529 161 b 497 233 496 178 497 214 b 544 329 497 261 526 300 b 649 486 578 383 615 433 l 750 488 b 749 286 750 318 749 303 b 792 243 749 254 750 243 z m 669 358 b 589 253 657 358 592 264 b 619 242 600 242 610 242 b 674 251 654 242 667 244 b 676 350 674 285 675 317 l 676 351 b 669 358 674 354 671 356 z m 660 258 b 638 256 653 257 644 256 b 607 257 626 256 617 257 b 661 335 622 283 642 311 b 660 258 661 308 661 283 z "},"¾":{"ha":869,"x_min":0,"x_max":0,"o":"m 671 926 b 688 979 676 944 688 961 b 642 993 675 992 660 993 b 574 989 619 993 597 989 b 556 990 567 989 561 989 l 557 989 b 546 986 554 988 550 988 b 213 3 453 651 322 331 b 303 -11 225 -10 274 -11 b 350 6 326 -11 336 -8 l 353 8 b 588 681 439 229 511 456 z m 556 990 b 554 990 554 990 554 990 z m 340 15 b 335 7 339 13 338 10 b 229 8 300 7 264 8 b 557 975 338 332 467 647 b 582 974 564 974 574 974 b 646 979 607 974 621 979 b 672 975 656 979 664 978 b 340 15 563 656 464 331 z m 338 636 b 335 756 338 683 335 728 b 336 801 335 768 336 785 b 186 919 336 886 254 919 b 28 801 118 919 28 882 l 25 760 b 89 747 36 749 63 747 b 118 753 100 747 110 749 l 124 753 b 186 792 143 772 157 792 b 208 788 193 792 201 790 l 211 785 b 217 760 215 778 217 769 b 214 743 217 754 217 747 l 206 735 b 125 724 182 722 150 733 l 121 715 b 117 658 121 696 117 676 b 132 614 117 644 118 621 b 161 617 142 615 151 617 b 217 583 186 617 208 610 b 194 540 217 563 214 550 b 125 585 156 540 150 560 b 25 571 96 585 39 585 b 57 444 25 511 26 475 b 168 410 81 421 124 410 b 338 636 318 410 338 499 z m 167 424 b 67 454 126 424 88 433 b 40 565 36 485 46 528 b 119 571 68 565 93 569 b 185 525 135 539 168 525 b 231 576 213 525 231 550 b 161 631 231 604 210 631 b 135 628 153 631 143 629 b 131 678 129 643 131 663 b 232 765 131 739 232 690 b 188 807 232 792 213 807 b 113 765 149 807 140 779 l 39 765 b 38 779 39 771 39 774 b 182 904 38 864 97 904 b 322 807 251 904 322 875 b 321 764 322 792 321 776 b 325 650 321 744 325 701 b 167 424 325 508 313 424 z m 851 250 b 810 261 844 256 826 265 b 806 336 807 283 806 310 b 810 494 806 389 810 447 b 749 504 800 504 771 504 l 690 500 b 685 496 688 499 686 497 b 579 336 650 442 613 390 b 529 214 551 290 529 275 b 540 150 529 199 529 161 l 542 149 b 546 147 543 149 544 147 l 675 147 b 681 146 678 146 679 146 b 679 6 681 100 679 53 b 747 -7 689 -4 707 -7 b 797 8 769 -7 797 -3 b 807 135 797 49 801 94 b 819 133 811 135 815 133 b 843 139 828 133 836 135 l 842 139 l 847 144 z m 833 151 b 801 149 824 150 811 149 b 783 13 783 139 783 42 b 744 10 771 11 758 10 b 693 11 725 10 707 11 b 694 153 693 58 694 106 b 688 160 692 156 689 157 l 682 160 b 636 165 668 164 653 165 b 550 161 607 165 575 161 b 542 206 543 172 542 189 b 590 329 542 263 567 292 b 694 486 624 383 661 433 l 796 488 l 796 325 b 794 286 796 318 794 303 b 838 243 794 254 796 243 z m 715 358 b 635 253 703 358 638 264 l 639 244 b 711 244 660 238 689 240 l 713 244 b 722 307 721 260 722 283 b 722 336 722 317 722 326 l 722 350 l 722 351 b 715 358 719 354 717 356 z m 706 258 b 683 256 699 257 690 256 b 653 257 672 256 663 257 b 707 335 668 283 688 311 b 706 258 707 308 707 283 z "}}}
